<svg xmlns="http://www.w3.org/2000/svg" viewBox="0 0 191.11 509.87"><defs><style>.cls-1{fill:#282828;}.cls-2{fill:none;stroke:#5fc1c7;stroke-miterlimit:10;}.cls-3{font-size:10.68px;font-family:MicrosoftJhengHeiBold, Microsoft JhengHei;font-weight:700;}.cls-3,.cls-4{fill:#fff;}.cls-5{fill:#5fc1c7;}</style></defs><title>CIS0</title><g id="圖層_2" data-name="圖層 2"><g id="圖層_3" data-name="圖層 3"><path class="cls-1" d="M95.83,0a55.51,55.51,0,0,1,26.26,6.19A53.06,53.06,0,0,1,141.65,24a72.11,72.11,0,0,1,10.67,27.58H125.13a38.65,38.65,0,0,0-6.3-13.54,30.21,30.21,0,0,0-10.23-8.9,27.16,27.16,0,0,0-12.77-3.09A29.54,29.54,0,0,0,80,30.23,27.37,27.37,0,0,0,69.64,42,41.31,41.31,0,0,0,66,60v44.11a41.23,41.23,0,0,0,3.65,18A26.9,26.9,0,0,0,80,133.86,29.79,29.79,0,0,0,95.83,138a28.15,28.15,0,0,0,12.88-3,29.18,29.18,0,0,0,10.23-8.74,36.64,36.64,0,0,0,6.19-13.81h27.19A73.36,73.36,0,0,1,141.54,140,53.06,53.06,0,0,1,122,157.85,55.3,55.3,0,0,1,95.83,164H78.37L65.49,156.8A48.68,48.68,0,0,1,45.7,136.07q-6.9-13.48-6.9-31.94V60q0-18.45,6.9-31.94A49,49,0,0,1,65.49,7.3Q78.36,0,95.83,0H0V509.87H191.11V0Z"/><line class="cls-2" x1="150.67" y1="464.68" x2="176.17" y2="464.68"/><text class="cls-3" transform="translate(58.64 468.04)">企業視覺識別系統</text><path class="cls-4" d="M45.44,274.33l.94-1.67a6.31,6.31,0,0,1,2.7-2.59,9.09,9.09,0,0,1,4.17-.9H59a9.06,9.06,0,0,1,4.17.9,6.39,6.39,0,0,1,2.71,2.59,7.88,7.88,0,0,1,1,3.95A7.19,7.19,0,0,1,66,280a6.77,6.77,0,0,1-2.33,2.55A9.34,9.34,0,0,1,60.1,284v-3.55a5,5,0,0,0,1.76-.82A4,4,0,0,0,63,278.28a3.56,3.56,0,0,0,.41-1.67,3.85,3.85,0,0,0-.54-2.07,3.63,3.63,0,0,0-1.54-1.35,5.5,5.5,0,0,0-2.35-.47H53.25a5.5,5.5,0,0,0-2.35.47,3.6,3.6,0,0,0-1.53,1.35,3.93,3.93,0,0,0-.53,2.07,3.64,3.64,0,0,0,.39,1.68,3.79,3.79,0,0,0,1.14,1.33,4.64,4.64,0,0,0,1.8.81V284a9.63,9.63,0,0,1-3.6-1.41A6.89,6.89,0,0,1,46.25,280a7.18,7.18,0,0,1-.81-3.41Z"/><path class="cls-4" d="M46.2,290.05a5,5,0,0,1,2.23-2.16,7.63,7.63,0,0,1,3.52-.74h2.44a7.51,7.51,0,0,1,3.48.74,5,5,0,0,1,2.21,2.16,8.13,8.13,0,0,1,0,6.82A5,5,0,0,1,57.87,299a7.51,7.51,0,0,1-3.48.74H51.91a7.57,7.57,0,0,1-3.5-.74,5.07,5.07,0,0,1-2.21-2.16,8,8,0,0,1,0-6.82Zm3.37,5.53a3.36,3.36,0,0,0,2.34.75h2.48a3.32,3.32,0,0,0,2.32-.75,3.15,3.15,0,0,0,0-4.24,3.32,3.32,0,0,0-2.32-.75H51.91a3.4,3.4,0,0,0-2.34.74,3.14,3.14,0,0,0,0,4.25Z"/><path class="cls-4" d="M60.62,303.66v3.59h-15v-3.59Zm-3.28,7.49a3.26,3.26,0,0,0,.19-1.17,2.6,2.6,0,0,0-.77-2,3,3,0,0,0-2.14-.72L58,307a5.36,5.36,0,0,1,2.08,1.7,3.89,3.89,0,0,1,.74,2.29,5.23,5.23,0,0,1-.29,1.78,3.92,3.92,0,0,1-.88,1.38L56.77,312A2.28,2.28,0,0,0,57.34,311.15Z"/><path class="cls-4" d="M60.62,316.26v3.45h-21v-3.45ZM46.11,321A4,4,0,0,1,48,319.5l3.28.21a3.2,3.2,0,0,0-1.45.3,2.06,2.06,0,0,0-.92.88,2.87,2.87,0,0,0-.31,1.4,2.5,2.5,0,0,0,.8,2,3.37,3.37,0,0,0,2.29.7H54.5a3.54,3.54,0,0,0,2.35-.7,2.49,2.49,0,0,0,.83-2,3,3,0,0,0-.31-1.4,2.06,2.06,0,0,0-.92-.88,3.25,3.25,0,0,0-1.46-.3l3.1-.31a5.16,5.16,0,0,1,2,1.68,4.07,4.07,0,0,1,.71,2.32,4.86,4.86,0,0,1-.73,2.71,4.59,4.59,0,0,1-2.16,1.73,9,9,0,0,1-3.42.59H51.69a8.62,8.62,0,0,1-3.38-.6,4.61,4.61,0,0,1-2.14-1.75,5,5,0,0,1-.73-2.76A4,4,0,0,1,46.11,321Z"/><path class="cls-4" d="M46.2,334.79a5,5,0,0,1,2.23-2.16,7.63,7.63,0,0,1,3.52-.74h2.44a7.51,7.51,0,0,1,3.48.74,5,5,0,0,1,2.21,2.16,8.13,8.13,0,0,1,0,6.82,5.12,5.12,0,0,1-2.21,2.16,7.64,7.64,0,0,1-3.48.74H51.91a7.7,7.7,0,0,1-3.5-.74,5.18,5.18,0,0,1-2.21-2.16,8,8,0,0,1,0-6.82Zm3.37,5.53a3.36,3.36,0,0,0,2.34.75h2.48a3.32,3.32,0,0,0,2.32-.75,3.15,3.15,0,0,0,0-4.24,3.32,3.32,0,0,0-2.32-.75H51.91a3.4,3.4,0,0,0-2.34.74,3.14,3.14,0,0,0,0,4.25Z"/><path class="cls-4" d="M60.62,348.41V352h-15v-3.58Zm-3.28,7.48a3.26,3.26,0,0,0,.19-1.17,2.6,2.6,0,0,0-.77-2,3,3,0,0,0-2.14-.72l3.39-.3a5.42,5.42,0,0,1,2.08,1.69,3.94,3.94,0,0,1,.74,2.3,5.23,5.23,0,0,1-.29,1.78,3.84,3.84,0,0,1-.88,1.38l-2.89-2.1A2.36,2.36,0,0,0,57.34,355.89Z"/><path class="cls-4" d="M46.58,361.56a4.47,4.47,0,0,1,3.49-1.28,4.12,4.12,0,0,1,3.32,1.3,5.84,5.84,0,0,1,1.11,3.89v4l-2.68.2v-4.2a2.31,2.31,0,0,0-.43-1.53,1.64,1.64,0,0,0-1.32-.51,1.59,1.59,0,0,0-1.4.66,3.59,3.59,0,0,0-.45,2,6.31,6.31,0,0,0,.36,2.45,1.19,1.19,0,0,0,1.12.8l-2.13.3a2.5,2.5,0,0,1-1.18-.86,4,4,0,0,1-.71-1.47,7.09,7.09,0,0,1-.24-1.89A5.7,5.7,0,0,1,46.58,361.56Zm8.56,7.79a2.51,2.51,0,0,0,1.94-.75,2.9,2.9,0,0,0,.7-2.09,5.46,5.46,0,0,0-.28-1.7,5,5,0,0,0-.76-1.5L58.67,361a5.78,5.78,0,0,1,1.59,2.3,8.48,8.48,0,0,1,.57,3.17,7.52,7.52,0,0,1-.65,3.26,4.73,4.73,0,0,1-1.91,2.07,6,6,0,0,1-3,.71H45.65v-3.18Z"/><path class="cls-4" d="M46.58,378a4.37,4.37,0,0,1,3-.88H65v3.45H50a1.45,1.45,0,0,0-.84.21.75.75,0,0,0-.3.64v1.19h-3.3v-1.84A3.53,3.53,0,0,1,46.58,378Zm14-2.42v7h-3v-7Z"/><path class="cls-4" d="M45.44,390.49l.78-1.5a5.31,5.31,0,0,1,2.28-2.29,7.73,7.73,0,0,1,3.64-.79h1.69a8.74,8.74,0,0,1,3.79.75A5.39,5.39,0,0,1,60,388.87a6.89,6.89,0,0,1,.82,3.48,5.55,5.55,0,0,1-1,3.28,6,6,0,0,1-2.77,2.08,12.11,12.11,0,0,1-4.38.71h-1V388.26h2.52v7l.16,0a4.13,4.13,0,0,0,2.43-.88,2.44,2.44,0,0,0,.87-2,3.06,3.06,0,0,0-1-2.41,4.1,4.1,0,0,0-2.76-.85H52.08a3.21,3.21,0,0,0-3.53,3.52,4.49,4.49,0,0,0,.33,1.68,4.83,4.83,0,0,0,.9,1.49L47.67,398A8.38,8.38,0,0,1,46,395.47a7.46,7.46,0,0,1-.58-2.86Z"/><path class="cls-4" d="M15.65,273v-3.52h21V273Z"/><path class="cls-4" d="M16.15,279.36a4.64,4.64,0,0,1,2.15-1.75,8.64,8.64,0,0,1,3.39-.6h2.86a9,9,0,0,1,3.41.59,4.69,4.69,0,0,1,2.16,1.73,4.86,4.86,0,0,1,.74,2.71,4,4,0,0,1-.71,2.32,5.14,5.14,0,0,1-2,1.68l-3.19-.3a3.26,3.26,0,0,0,1.47-.31,2.06,2.06,0,0,0,.92-.88,2.86,2.86,0,0,0,.32-1.39,2.48,2.48,0,0,0-.84-2,3.49,3.49,0,0,0-2.33-.7H21.69a3.42,3.42,0,0,0-2.3.7,2.53,2.53,0,0,0-.81,2,2.86,2.86,0,0,0,.32,1.39,2.14,2.14,0,0,0,.93.88,3.28,3.28,0,0,0,1.46.31l-3.29.2a4.13,4.13,0,0,1-1.88-1.44,4,4,0,0,1-.71-2.38A5,5,0,0,1,16.15,279.36Zm20.46,6.38v3.44h-21v-3.44Z"/><path class="cls-4" d="M15.44,297.51l.78-1.5a5.31,5.31,0,0,1,2.28-2.29,7.73,7.73,0,0,1,3.64-.79h1.69a8.74,8.74,0,0,1,3.79.75A5.39,5.39,0,0,1,30,295.89a6.89,6.89,0,0,1,.82,3.48,5.55,5.55,0,0,1-1,3.28,6,6,0,0,1-2.77,2.08,12.11,12.11,0,0,1-4.38.71h-1V295.28h2.52v7l.16,0a4.19,4.19,0,0,0,2.43-.88,2.44,2.44,0,0,0,.87-2,3.06,3.06,0,0,0-1-2.41,4.1,4.1,0,0,0-2.76-.85H22.08a3.21,3.21,0,0,0-3.53,3.52,4.49,4.49,0,0,0,.33,1.68,4.83,4.83,0,0,0,.9,1.49l-2.11,2.25A8.38,8.38,0,0,1,16,302.49a7.46,7.46,0,0,1-.58-2.86Z"/><path class="cls-4" d="M30.62,309.18v3.45h-15v-3.45Zm-5.9,8.87a2.86,2.86,0,0,0,2.08-.72,2.75,2.75,0,0,0,.73-2.05,2.7,2.7,0,0,0-.68-2,2.63,2.63,0,0,0-1.94-.69l3.1-.3a5.41,5.41,0,0,1,2.1,1.7,4.15,4.15,0,0,1,.72,2.43,4.53,4.53,0,0,1-1.59,3.71,6.86,6.86,0,0,1-4.5,1.32H15.65v-3.44Z"/><path class="cls-4" d="M16.58,326.94a4.42,4.42,0,0,1,3-.88H35v3.45H20a1.45,1.45,0,0,0-.84.21.75.75,0,0,0-.3.64v1.2h-3.3v-1.85A3.53,3.53,0,0,1,16.58,326.94Zm14-2.42v7h-3v-7Z"/><path class="cls-4" d="M30.62,335.2v3.43h-15V335.2Zm6,0v3.43H33.17V335.2Z"/><path class="cls-4" d="M16.58,344a4.37,4.37,0,0,1,3-.88H35v3.45H20a1.45,1.45,0,0,0-.84.21.75.75,0,0,0-.3.64v1.19h-3.3v-1.84A3.53,3.53,0,0,1,16.58,344Zm14-2.42v7h-3v-7Z"/><path class="cls-4" d="M30.62,364.29l-18.47-6.52a4.62,4.62,0,0,1-1.62-.91,3.18,3.18,0,0,1-.86-1.38,6.89,6.89,0,0,1-.26-2v-.73h3.33v.73a2,2,0,0,0,.31,1.19,2.13,2.13,0,0,0,1,.75l16.55,5.53Zm0-13.54v3.36l-13,4.82-3.19-2.07Z"/><path class="cls-4" d="M15.44,379.74s.1-.46.29-1.39a11.62,11.62,0,0,1,.88-2.61A10.3,10.3,0,0,1,18,373.51l2.76,1.83a8.46,8.46,0,0,0-1.55,2.72,9.62,9.62,0,0,0-.53,3.19,6,6,0,0,0,.75,3.27,2.4,2.4,0,0,0,2.12,1.16h0a2.22,2.22,0,0,0,1.54-.52A3,3,0,0,0,24,383.8a15.63,15.63,0,0,0,.5-2.14.29.29,0,0,0,0-.09.28.28,0,0,1,0-.09l0-.26a21.91,21.91,0,0,1,.82-3.46,5,5,0,0,1,1.71-2.3,5.49,5.49,0,0,1,3.47-.95h0a6.32,6.32,0,0,1,3.41.89A5.62,5.62,0,0,1,36.09,378a10.32,10.32,0,0,1,.74,4.1,10.77,10.77,0,0,1-.25,2.25,11.81,11.81,0,0,1-.74,2.22,12.47,12.47,0,0,1-1.2,2.12L31.8,387a10.11,10.11,0,0,0,1.31-2.46,7.23,7.23,0,0,0,.45-2.45,5.56,5.56,0,0,0-.73-3.08,2.35,2.35,0,0,0-2.06-1.09h0a2.13,2.13,0,0,0-1.57.57,3.15,3.15,0,0,0-.84,1.4,22.38,22.38,0,0,0-.57,2.36l0,.11a.44.44,0,0,1,0,.1l0,.16a1,1,0,0,0,0,.16,17.61,17.61,0,0,1-.94,3.25A5.09,5.09,0,0,1,25,388.21a5.5,5.5,0,0,1-3.3.88h0a5.91,5.91,0,0,1-3.36-.92,5.68,5.68,0,0,1-2.12-2.68,11,11,0,0,1-.73-4.24Z"/><path class="cls-4" d="M30.62,404.65l-18.47-6.52a4.78,4.78,0,0,1-1.62-.91,3.24,3.24,0,0,1-.86-1.38,6.89,6.89,0,0,1-.26-2v-.74h3.33v.74a2,2,0,0,0,.31,1.19,2.12,2.12,0,0,0,1,.74l16.55,5.54Zm0-13.54v3.36l-13,4.81-3.19-2.06Z"/><path class="cls-4" d="M15.44,411.12s.08-.41.25-1.21a10.78,10.78,0,0,1,.74-2.27,8.59,8.59,0,0,1,1.2-1.91l2.59,2.09A9.59,9.59,0,0,0,19,410.14a7,7,0,0,0-.42,2.32,5.19,5.19,0,0,0,.43,2.38,1.32,1.32,0,0,0,1.23.82,1.11,1.11,0,0,0,.93-.41,2.27,2.27,0,0,0,.42-1c.08-.41.15-1,.22-1.73l0-.38c0-.14,0-.27,0-.39a.49.49,0,0,1,0-.12s0-.08,0-.11a13.57,13.57,0,0,1,.48-2.58,3.3,3.3,0,0,1,1.19-1.7,4,4,0,0,1,2.52-.68,4.72,4.72,0,0,1,2.6.68,4.21,4.21,0,0,1,1.6,2,8.68,8.68,0,0,1,.54,3.26,11.15,11.15,0,0,1-.22,2.25,11.38,11.38,0,0,1-.65,2.1,10,10,0,0,1-1.06,1.89l-2.51-2.06a9.19,9.19,0,0,0,1-2.13,7,7,0,0,0,.33-2.08,4.35,4.35,0,0,0-.39-2.06,1.25,1.25,0,0,0-1.15-.71.84.84,0,0,0-.75.39,2.47,2.47,0,0,0-.36,1c-.06.39-.12.95-.19,1.69a1.8,1.8,0,0,0,0,.22c0,.08,0,.15,0,.23v.1a.43.43,0,0,1,0,.11,15.07,15.07,0,0,1-.47,2.76A3.66,3.66,0,0,1,23.06,418a4.35,4.35,0,0,1-2.75.76,4.71,4.71,0,0,1-2.67-.72A4.4,4.4,0,0,1,16,415.94a9.63,9.63,0,0,1-.55-3.48Z"/><path class="cls-4" d="M16.58,423.53a4.37,4.37,0,0,1,3-.88H35v3.44H20a1.38,1.38,0,0,0-.84.22.72.72,0,0,0-.3.63v1.2h-3.3V426.3A3.52,3.52,0,0,1,16.58,423.53Zm14-2.42v7h-3v-7Z"/><path class="cls-4" d="M15.44,436l.78-1.5a5.31,5.31,0,0,1,2.28-2.29,7.73,7.73,0,0,1,3.64-.8h1.69a8.74,8.74,0,0,1,3.79.76A5.39,5.39,0,0,1,30,434.42a6.89,6.89,0,0,1,.82,3.48,5.57,5.57,0,0,1-1,3.28,5.93,5.93,0,0,1-2.77,2.07,11.89,11.89,0,0,1-4.38.72h-1V433.8h2.52v7l.16,0a4.19,4.19,0,0,0,2.43-.88,2.45,2.45,0,0,0,.87-2,3.06,3.06,0,0,0-1-2.41,4.05,4.05,0,0,0-2.76-.85H22.08a3.53,3.53,0,0,0-2.61.92,3.54,3.54,0,0,0-.92,2.6,4.57,4.57,0,0,0,.33,1.68,4.83,4.83,0,0,0,.9,1.49l-2.11,2.25A8.51,8.51,0,0,1,16,441a7.46,7.46,0,0,1-.58-2.86Z"/><path class="cls-4" d="M30.62,447.71v3.45h-15v-3.45Zm-6.12,8.84a3.24,3.24,0,0,0,2.25-.72,2.59,2.59,0,0,0,.78-2,2.68,2.68,0,0,0-.68-2,2.63,2.63,0,0,0-1.94-.69l3.1-.31a5.42,5.42,0,0,1,2.09,1.73,4.13,4.13,0,0,1,.73,2.41,4.82,4.82,0,0,1-.73,2.7,4.56,4.56,0,0,1-2.16,1.71,9.16,9.16,0,0,1-3.42.58H15.65v-3.43Zm0,8.82a3.24,3.24,0,0,0,2.25-.72,2.65,2.65,0,0,0,.78-2,2.48,2.48,0,0,0-.76-1.94,3.11,3.11,0,0,0-2.15-.68l3.17-.66A5.7,5.7,0,0,1,30,461.17a4.34,4.34,0,0,1,.79,2.54,5,5,0,0,1-.73,2.76,4.57,4.57,0,0,1-2.16,1.75,8.94,8.94,0,0,1-3.42.6H15.65v-3.45Z"/><path class="cls-5" d="M76.75,277l-.65-.37a2.36,2.36,0,0,1-1-1,3.51,3.51,0,0,1-.35-1.61v-2.23a3.51,3.51,0,0,1,.35-1.61,2.36,2.36,0,0,1,1-1,3,3,0,0,1,1.53-.37A2.69,2.69,0,0,1,80,269.94a3.62,3.62,0,0,1,.53,1.4H79.11a2,2,0,0,0-.32-.69,1.67,1.67,0,0,0-.51-.45,1.44,1.44,0,0,0-.65-.15,1.47,1.47,0,0,0-.8.21,1.3,1.3,0,0,0-.52.59,2,2,0,0,0-.19.91V274a2,2,0,0,0,.19.91,1.3,1.3,0,0,0,.52.59,1.47,1.47,0,0,0,.8.21,1.41,1.41,0,0,0,.65-.15,1.55,1.55,0,0,0,.52-.44,1.94,1.94,0,0,0,.31-.7h1.37a3.74,3.74,0,0,1-.54,1.39,2.67,2.67,0,0,1-1,.9,2.8,2.8,0,0,1-1.32.32Z"/><path class="cls-5" d="M83.19,276.93H81.82v-8.12h1.37Z"/><path class="cls-5" d="M86.94,277l-.54-.12a4.61,4.61,0,0,1-1-.34,3.82,3.82,0,0,1-.86-.55l.71-1.07a3.05,3.05,0,0,0,1.05.6,3.61,3.61,0,0,0,1.23.21,2.36,2.36,0,0,0,1.27-.29.93.93,0,0,0,.45-.82h0A.84.84,0,0,0,89,274a1.2,1.2,0,0,0-.53-.33,6.17,6.17,0,0,0-.83-.19h-.07l-.1,0a7.57,7.57,0,0,1-1.34-.32,2,2,0,0,1-.89-.65,2.15,2.15,0,0,1-.37-1.35h0a2.39,2.39,0,0,1,.35-1.31,2.13,2.13,0,0,1,1-.84,4,4,0,0,1,1.59-.28,3.69,3.69,0,0,1,.87.1,4.54,4.54,0,0,1,.86.28,4.81,4.81,0,0,1,.82.47l-.65,1.1a3.53,3.53,0,0,0-1-.51,2.73,2.73,0,0,0-1-.17,2.09,2.09,0,0,0-1.19.28.89.89,0,0,0-.43.79h0a.86.86,0,0,0,.22.61A1.33,1.33,0,0,0,87,272c.21.06.52.14.91.22h.14l.07,0a6.91,6.91,0,0,1,1.26.36,2,2,0,0,1,.84.68,2.11,2.11,0,0,1,.34,1.28h0a2.28,2.28,0,0,1-.36,1.3,2.13,2.13,0,0,1-1,.82,4.31,4.31,0,0,1-1.65.29Z"/><path class="cls-5" d="M79.92,283.71l-.18.31a6.78,6.78,0,0,1-2.67-1.78,7.54,7.54,0,0,1-2.52,1.83l-.24-.28a6.52,6.52,0,0,0,2.75-2.11l.38.07a.72.72,0,0,1-.14.19A5.33,5.33,0,0,0,79.92,283.71Zm0,3.44H74.36v-.33h1v-2.35h.35v2.35H77v-3.54h.35v1.46H79.3v.33H77.39v1.75h2.49Z"/><path class="cls-5" d="M86.29,285.66H83.71v1.62h-.34v-1.62H80.76v-.32h2.61v-.52H81v-.3h2.33V284H80.9v-.31h1.66a2.62,2.62,0,0,0-.35-.5l.24-.15H80.76v-.32h2.09v-1h.33v1h.72v-1h.31v1h2.06v.32H84.62l.23.16a2.15,2.15,0,0,1-.32.49h1.61V284H83.71v.49H86v.3H83.71v.52h2.58Zm-3.49.48a6.39,6.39,0,0,1-1.81,1l-.21-.27a6.18,6.18,0,0,0,1.78-.91Zm-.59-3.69-.28.16a4.68,4.68,0,0,0-.63-.64l.29-.2A4.72,4.72,0,0,1,82.21,282.45Zm2.33.62h-2a4.87,4.87,0,0,1,.41.65h1.2A3.27,3.27,0,0,0,84.54,283.07Zm1.75,3.84-.19.26a12.67,12.67,0,0,0-1.85-1l.19-.26A11.73,11.73,0,0,1,86.29,286.91Zm-.51-5a2.9,2.9,0,0,1-.65.66l-.29-.16a3.82,3.82,0,0,0,.64-.65Z"/><path class="cls-5" d="M89.41,285.23l-.25.23a6.49,6.49,0,0,0-.74-.95v2.71H88.1v-2.39c-.17.18-.42.43-.75.74l-.25-.23a5.73,5.73,0,0,0,1.72-2.16H87.26v-.32h1.91v.32a7.4,7.4,0,0,1-.59,1.05A5.84,5.84,0,0,1,89.41,285.23Zm-.8-2.67-.31.13a4.38,4.38,0,0,0-.53-.84l.3-.15A3.81,3.81,0,0,1,88.61,282.56Zm4,3.53a1.91,1.91,0,0,1-.09.65.66.66,0,0,1-.22.33.81.81,0,0,1-.43.09c-.32,0-.52-.06-.6-.16a.48.48,0,0,1-.12-.3v-1.5H90.5a2.38,2.38,0,0,1-.23,1,2.06,2.06,0,0,1-.63.76,1.33,1.33,0,0,1-.49.27h0l-.21-.26a1.82,1.82,0,0,0,1.24-1.79h-.6v-3.32h2.64v3.32h-.7v1.45c0,.13.13.19.38.19a.34.34,0,0,0,.31-.13,1.78,1.78,0,0,0,.13-.72Zm-.76-3.21v-.69h-2v.69Zm0,1v-.67h-2v.67Zm0,1v-.71h-2v.71Z"/><path class="cls-5" d="M99,286.34a1.64,1.64,0,0,1-.11.57.42.42,0,0,1-.27.25,4.13,4.13,0,0,1-.9,0,6.11,6.11,0,0,1-.75,0,.33.33,0,0,1-.23-.15.48.48,0,0,1-.09-.29v-.39h-.72a1.36,1.36,0,0,1-.55.57,4.55,4.55,0,0,1-1.75.33L93.5,287a8.18,8.18,0,0,0,1.44-.18.82.82,0,0,0,.62-.43h-1v-1.93h3.35v1.93h-1v.41a.15.15,0,0,0,.09.14,4.27,4.27,0,0,0,.72,0,2.88,2.88,0,0,0,.75-.05c.11,0,.17-.24.2-.64ZM98.84,285h-.31v-.87H93.92V285h-.3v-1.14H94l0-1.87a6.31,6.31,0,0,0,1.29-.3l.16.23a5.45,5.45,0,0,1-1.13.3v.32h1v.26h-1v.37h1v.26h-1v.43h3.92l0-.39h-1v-.27h1v-.41h-1v-.26h1l0-.38H97.12v-.28h1.43l-.06,2h.35Zm-1.25,0v-.25H94.87V285Zm0,.54v-.27H94.87v.27Zm0,.57v-.32H94.87v.32Zm-.54-2.52-.17.19-.63-.38c-.29.14-.52.25-.7.32l-.16-.21a5.72,5.72,0,0,0,.6-.26l-.44-.26.16-.19a4,4,0,0,1,.54.31,3.4,3.4,0,0,0,.56-.36l.19.16a2.7,2.7,0,0,1-.51.35A4.17,4.17,0,0,1,97.05,283.56Zm0-1.74a3.61,3.61,0,0,1-.5.37,3.39,3.39,0,0,1,.38.29l-.19.19c-.13-.11-.28-.21-.45-.33a6.21,6.21,0,0,1-.68.33l-.14-.22a5.73,5.73,0,0,0,.56-.26,3.88,3.88,0,0,0-.46-.26l.16-.2a6.09,6.09,0,0,1,.57.32,3.67,3.67,0,0,0,.53-.38Z"/><path class="cls-5" d="M101.57,282.68H99.85v-.31h.83a2.09,2.09,0,0,0-.27-.58l.3-.12a4.8,4.8,0,0,1,.29.7h.57Zm-.13.88H100v-.31h1.47Zm0,.95H100v-.3h1.47Zm0,2.59h-.31v-.34h-.8v.49H100v-2.1h1.43Zm-.31-.65v-1h-.8v1Zm4.24-.38a3.36,3.36,0,0,1-.12.63.92.92,0,0,1-.21.46.37.37,0,0,1-.21.08c-.22,0-.44-.31-.65-.91a4.22,4.22,0,0,1-.94.8l-.23-.22a4.64,4.64,0,0,0,1.11-.94,12.46,12.46,0,0,1-.18-2.13h-2.31v-.3h.59a4.54,4.54,0,0,0-.24-1h-.22v-.31h.82a1.8,1.8,0,0,0-.22-.47l.29-.11a3.6,3.6,0,0,1,.24.58h.8v.31h-.26c-.06.34-.14.66-.22,1h.71c0-.74,0-1.35,0-1.83h.3v1.83h1.12v.3h-1.1a10.76,10.76,0,0,0,.13,1.74,5.48,5.48,0,0,0,.52-1.38l.27.16a5.63,5.63,0,0,1-.72,1.67,2.82,2.82,0,0,0,.18.54c.08.21.15.31.21.31a.07.07,0,0,0,.06,0,1.18,1.18,0,0,0,.09-.32,2.89,2.89,0,0,0,.09-.61Zm-1.92.31h-1.6v-2.07h1.6Zm-.31-1.21v-.56h-1v.56Zm0,.9v-.59h-1v.59Zm0-3.48h-.81a7.7,7.7,0,0,1,.22,1h.35A7,7,0,0,0,103.11,282.59Zm2.08.49-.28.12a4.11,4.11,0,0,0-.37-.89l.26-.12A4.58,4.58,0,0,1,105.19,283.08Z"/><path class="cls-5" d="M109.23,284.69c0,.46,0,.9,0,1.32a5,5,0,0,1-.07.79.51.51,0,0,1-.15.26.62.62,0,0,1-.23.14,1.82,1.82,0,0,1-.5,0h-.44l-.11-.34.8,0a.31.31,0,0,0,.32-.22,7.88,7.88,0,0,0,.07-1.68h-1.46a3.91,3.91,0,0,1-1.1,2.24l-.22-.28a4.11,4.11,0,0,0,1.07-3.22h-.59v-1.91h2.62v1.91h-1.69c0,.32,0,.63,0,.94Zm-.34-1.26v-1.26h-2v1.26Zm1.4,2.64H110v-3.93h.31Zm1.24.68c0,.33-.19.49-.56.49h-.83l-.13-.33h1a.13.13,0,0,0,.11-.07.23.23,0,0,0,0-.15v-5h.34Z"/><path class="cls-5" d="M114.52,285.88a5.68,5.68,0,0,1-1.81,1l-.21-.29a5.59,5.59,0,0,0,1.76-.92Zm3.36-.49-.29.19a5.25,5.25,0,0,0-.37-.49l-1.71.17v1.61a.36.36,0,0,1-.09.24.57.57,0,0,1-.21.12l-.43,0h-.32l-.14-.33h.37a2.61,2.61,0,0,0,.4,0s.07-.06.07-.15v-1.46l-2.1.12-.1-.28a20.25,20.25,0,0,0,2.29-1c-.74,0-1.39.07-2,.08l-.08-.23a6.73,6.73,0,0,0,2.3-1.32l.32.19a7.41,7.41,0,0,1-1.58,1l.59,0c.19,0,.38,0,.56,0a3,3,0,0,0,.58-.08c.27-.17.53-.35.79-.55l.29.2a16,16,0,0,1-3.06,1.7c1,0,2-.12,3-.24a4.34,4.34,0,0,0-.48-.47l.28-.19A7.17,7.17,0,0,1,117.88,285.39Zm-1.94-3.54a6.27,6.27,0,0,1-2.67,1.27l-.25-.29a5.7,5.7,0,0,0,2.63-1.17Zm2.1,4.77-.22.27a7.22,7.22,0,0,0-1.6-1l.22-.27A8.35,8.35,0,0,1,118,286.62Z"/><path class="cls-5" d="M119.55,285.74a6.39,6.39,0,0,1-.38,1.5l-.3-.11a5.88,5.88,0,0,0,.37-1.46Zm1.54-.39-.3.1a2.43,2.43,0,0,0-.1-.37,15.94,15.94,0,0,1-1.68.44l-.09-.29a9.91,9.91,0,0,0,1.25-1.57c-.33.07-.71.13-1.12.19l-.09-.31a6.39,6.39,0,0,0,1.05-1.86l.3.1a6.33,6.33,0,0,1-.93,1.71,8.37,8.37,0,0,0,1-.18,4.79,4.79,0,0,0,.26-.48l.29.12a9.63,9.63,0,0,1-1.46,2.15,8.89,8.89,0,0,0,1.12-.32c0-.12-.1-.26-.16-.4l.29-.12A6,6,0,0,1,121.09,285.35Zm-.75,1.62L120,287a4.77,4.77,0,0,0-.2-1.29l.32-.05A8.3,8.3,0,0,1,120.34,287Zm.72-.5-.3.09a6.17,6.17,0,0,0-.25-.9l.29-.09A5.31,5.31,0,0,1,121.06,286.47Zm3.32-3.74h-1.94a8.42,8.42,0,0,1-.85,1.43,18.75,18.75,0,0,0,2-.21,7.16,7.16,0,0,0-.47-.59l.27-.18a7.68,7.68,0,0,1,.94,1.33l-.27.2a3.22,3.22,0,0,0-.29-.48l-.59.1v2.37c0,.09,0,.14.15.14h.45a.18.18,0,0,0,.14-.06.9.9,0,0,0,.1-.39c0-.22,0-.47,0-.75l.32.12a3.75,3.75,0,0,1-.1,1,.55.55,0,0,1-.23.35,1.33,1.33,0,0,1-.53.08,1,1,0,0,1-.52-.09.39.39,0,0,1-.14-.34v-2.36l-.65.06a3.33,3.33,0,0,1-1.19,2.82l-.22-.22a2.86,2.86,0,0,0,.8-1,3.77,3.77,0,0,0,.28-1.57,5.86,5.86,0,0,1-.69,0l-.08-.29a5.39,5.39,0,0,0,1-1.48H121v-.31h1.23c.07-.16.17-.41.29-.75l.31.1a5.72,5.72,0,0,1-.26.65h1.8Z"/></g></g></svg>