<svg xmlns="http://www.w3.org/2000/svg" viewBox="0 0 191.11 509.87"><defs><style>.cls-1{fill:#282828;}.cls-2{fill:none;stroke:#5fc1c7;stroke-miterlimit:10;}.cls-3{font-size:10.68px;font-family:MicrosoftJhengHeiBold, Microsoft JhengHei;font-weight:700;}.cls-3,.cls-4{fill:#fff;}.cls-5{fill:#5fc1c7;}</style></defs><title>Fan Club 0</title><g id="圖層_2" data-name="圖層 2"><g id="圖層_3" data-name="圖層 3"><polygon class="cls-1" points="147.23 0 147.23 25.31 70.3 25.31 70.3 69.75 135.07 69.75 135.07 94.95 70.3 94.95 70.3 160.72 43.88 160.72 43.88 0 0 0 0 509.87 191.11 509.87 191.11 0 147.23 0"/><line class="cls-2" x1="150.67" y1="464.68" x2="176.17" y2="464.68"/><text class="cls-3" transform="translate(58.63 461.63)">粉絲後援會經營<tspan x="0" y="12.82">及相關應援策辦</tspan></text><path class="cls-4" d="M66.61,309.82v3.44h-21v-3.44Zm-9.1,1.44v10.45H54.23V311.26Zm9.1,0v12h-3.3v-12Z"/><path class="cls-4" d="M46.58,326.59a4.46,4.46,0,0,1,3.48-1.28,4.13,4.13,0,0,1,3.33,1.3,5.84,5.84,0,0,1,1.11,3.89v4l-2.68.21v-4.2a2.31,2.31,0,0,0-.43-1.53,1.65,1.65,0,0,0-1.33-.51,1.57,1.57,0,0,0-1.39.66,3.59,3.59,0,0,0-.45,2,6.31,6.31,0,0,0,.36,2.45,1.18,1.18,0,0,0,1.12.8l-2.13.3a2.52,2.52,0,0,1-1.18-.86,4.17,4.17,0,0,1-.72-1.48,7.39,7.39,0,0,1-.23-1.88A5.7,5.7,0,0,1,46.58,326.59Zm8.56,7.79a2.51,2.51,0,0,0,1.94-.75,2.94,2.94,0,0,0,.69-2.09,5.56,5.56,0,0,0-.27-1.71,5.37,5.37,0,0,0-.76-1.49l1.93-2.3a5.89,5.89,0,0,1,1.59,2.31,8.48,8.48,0,0,1,.57,3.17,7.37,7.37,0,0,1-.66,3.26,4.66,4.66,0,0,1-1.9,2.07,6,6,0,0,1-3,.71H45.65v-3.18Z"/><path class="cls-4" d="M60.61,341.74v3.45h-15v-3.45Zm-5.89,8.87a2.8,2.8,0,0,0,2.07-.73,2.73,2.73,0,0,0,.74-2,2.65,2.65,0,0,0-.69-2,2.59,2.59,0,0,0-1.93-.69l3.1-.31a5.34,5.34,0,0,1,2.1,1.71,4.15,4.15,0,0,1,.72,2.43,4.55,4.55,0,0,1-1.59,3.71,6.89,6.89,0,0,1-4.51,1.32H45.65v-3.44Z"/><path class="cls-4" d="M45.44,371.17l.94-1.67a6.29,6.29,0,0,1,2.7-2.58,8.94,8.94,0,0,1,4.17-.91H59a9,9,0,0,1,4.17.91,6.29,6.29,0,0,1,2.7,2.58,7.78,7.78,0,0,1,1,3.95,7.19,7.19,0,0,1-.81,3.42,7,7,0,0,1-2.33,2.56,9.47,9.47,0,0,1-3.6,1.39v-3.55a5,5,0,0,0,1.77-.82A4.06,4.06,0,0,0,63,375.12a3.55,3.55,0,0,0,.4-1.67,3.85,3.85,0,0,0-.54-2.07A3.51,3.51,0,0,0,61.35,370a5.36,5.36,0,0,0-2.35-.48H53.25a5.33,5.33,0,0,0-2.35.48,3.51,3.51,0,0,0-1.53,1.34,3.93,3.93,0,0,0-.53,2.07,3.64,3.64,0,0,0,.39,1.68,3.79,3.79,0,0,0,1.14,1.33,4.64,4.64,0,0,0,1.8.81v3.55a9.56,9.56,0,0,1-3.6-1.41,7,7,0,0,1-2.33-2.55,7.3,7.3,0,0,1-.8-3.41Z"/><path class="cls-4" d="M50.05,387.86a1.18,1.18,0,0,0-.84.28,1,1,0,0,0-.3.78v1h-3.3v-1.87a3.48,3.48,0,0,1,1-2.69,4.13,4.13,0,0,1,2.92-1h17v3.44Z"/><path class="cls-4" d="M51.52,396.27a2.82,2.82,0,0,0-2.05.7,2.64,2.64,0,0,0-.73,2,2.72,2.72,0,0,0,.68,2,2.66,2.66,0,0,0,2,.69l-3.2.2a4.43,4.43,0,0,1-2-1.44,3.87,3.87,0,0,1-.79-2.47A4.64,4.64,0,0,1,47,394.16a6.63,6.63,0,0,1,4.44-1.34h9.16v3.45Zm9.09,5.36v3.43h-15v-3.43Z"/><path class="cls-4" d="M46.11,414A3.9,3.9,0,0,1,48,412.48l3.27.2a3.16,3.16,0,0,0-1.44.31,2.06,2.06,0,0,0-.92.88,2.86,2.86,0,0,0-.32,1.39,2.49,2.49,0,0,0,.81,2,3.37,3.37,0,0,0,2.29.71H54.5a3.5,3.5,0,0,0,2.34-.71,2.44,2.44,0,0,0,.83-2,2.86,2.86,0,0,0-.31-1.39,2,2,0,0,0-.91-.88,3.25,3.25,0,0,0-1.46-.31l3.1-.3a5,5,0,0,1,2,1.68,4.06,4.06,0,0,1,.71,2.31,4.79,4.79,0,0,1-.74,2.72,4.55,4.55,0,0,1-2.15,1.72,8.8,8.8,0,0,1-3.42.59H51.69a8.81,8.81,0,0,1-3.38-.59,4.63,4.63,0,0,1-2.14-1.76,5,5,0,0,1-.73-2.75A4.1,4.1,0,0,1,46.11,414Zm20.5-4.71v3.44h-21v-3.44Z"/><path class="cls-4" d="M36.61,323.94v4h-21v-3.23h16l-.92.14-12.44-4.58v-2.77l12.15-4.58,1.21.14h-16v-3.22h21v4l-14,5.08Z"/><path class="cls-4" d="M16.58,333.09a4.46,4.46,0,0,1,3.48-1.28,4.13,4.13,0,0,1,3.33,1.3A5.84,5.84,0,0,1,24.5,337v4l-2.68.2V337a2.31,2.31,0,0,0-.43-1.53,1.65,1.65,0,0,0-1.33-.51,1.57,1.57,0,0,0-1.39.66,3.59,3.59,0,0,0-.45,2,6.31,6.31,0,0,0,.36,2.45,1.18,1.18,0,0,0,1.12.8l-2.13.3a2.45,2.45,0,0,1-1.18-.86,4.17,4.17,0,0,1-.72-1.48,7.39,7.39,0,0,1-.23-1.88A5.7,5.7,0,0,1,16.58,333.09Zm8.56,7.79a2.51,2.51,0,0,0,1.94-.75,2.94,2.94,0,0,0,.69-2.09,5.45,5.45,0,0,0-.27-1.7,5.29,5.29,0,0,0-.76-1.5l1.93-2.29a5.78,5.78,0,0,1,1.59,2.3,8.48,8.48,0,0,1,.57,3.17,7.37,7.37,0,0,1-.66,3.26,4.66,4.66,0,0,1-1.9,2.07,6,6,0,0,1-3,.71H15.65v-3.18Z"/><path class="cls-4" d="M30.61,348.24v3.45h-15v-3.45Zm-5.89,8.87a2.83,2.83,0,0,0,2.07-.72,2.75,2.75,0,0,0,.74-2.05,2.65,2.65,0,0,0-.69-2,2.59,2.59,0,0,0-1.93-.69l3.1-.31a5.52,5.52,0,0,1,2.1,1.71,4.15,4.15,0,0,1,.72,2.43,4.55,4.55,0,0,1-1.59,3.71,6.89,6.89,0,0,1-4.51,1.32H15.65v-3.44Z"/><path class="cls-4" d="M16.58,365.29A4.46,4.46,0,0,1,20.06,364a4.13,4.13,0,0,1,3.33,1.3,5.84,5.84,0,0,1,1.11,3.89v4l-2.68.2v-4.2a2.31,2.31,0,0,0-.43-1.53,1.65,1.65,0,0,0-1.33-.51,1.57,1.57,0,0,0-1.39.66,3.59,3.59,0,0,0-.45,2,6.31,6.31,0,0,0,.36,2.45,1.18,1.18,0,0,0,1.12.8l-2.13.3a2.52,2.52,0,0,1-1.18-.86,4.17,4.17,0,0,1-.72-1.48,7.39,7.39,0,0,1-.23-1.88A5.7,5.7,0,0,1,16.58,365.29Zm8.56,7.79a2.51,2.51,0,0,0,1.94-.75,2.94,2.94,0,0,0,.69-2.09,5.45,5.45,0,0,0-.27-1.7,5.29,5.29,0,0,0-.76-1.5l1.93-2.29a5.78,5.78,0,0,1,1.59,2.3,8.48,8.48,0,0,1,.57,3.17,7.37,7.37,0,0,1-.66,3.26,4.66,4.66,0,0,1-1.9,2.07,6,6,0,0,1-3,.71H15.65v-3.18Z"/><path class="cls-4" d="M9.57,383.87l.63-1.37A5,5,0,0,1,12,380.37l2.12,2.32a3.64,3.64,0,0,0-1.4,2.87,3.27,3.27,0,0,0,.8,2.32,3,3,0,0,0,2.26.85H30.61v3.44H16.1a7.45,7.45,0,0,1-3.53-.77,5.13,5.13,0,0,1-2.24-2.25,7.6,7.6,0,0,1-.76-3.55Zm6.58-1.52a4.63,4.63,0,0,1,2.15-1.74,8.6,8.6,0,0,1,3.39-.6h2.86a8.88,8.88,0,0,1,3.4.59,4.65,4.65,0,0,1,2.17,1.72,4.9,4.9,0,0,1,.74,2.72,4,4,0,0,1-.71,2.31,4.94,4.94,0,0,1-2,1.68l-3.18-.3a3.29,3.29,0,0,0,1.47-.3,2.17,2.17,0,0,0,.92-.88,2.9,2.9,0,0,0,.32-1.4,2.45,2.45,0,0,0-.84-2,3.51,3.51,0,0,0-2.33-.71H21.69a3.42,3.42,0,0,0-2.3.71,2.49,2.49,0,0,0-.81,2,2.9,2.9,0,0,0,.32,1.4,2.26,2.26,0,0,0,.93.88,3.28,3.28,0,0,0,1.46.3l-3.29.2a4.13,4.13,0,0,1-1.88-1.43,4,4,0,0,1-.71-2.39A5,5,0,0,1,16.15,382.35Z"/><path class="cls-4" d="M15.44,400.5l.78-1.49a5.28,5.28,0,0,1,2.28-2.3,7.83,7.83,0,0,1,3.64-.79h1.69a8.63,8.63,0,0,1,3.79.76,5.37,5.37,0,0,1,2.39,2.2,6.94,6.94,0,0,1,.82,3.48,5.55,5.55,0,0,1-1,3.28,6,6,0,0,1-2.77,2.08,12.11,12.11,0,0,1-4.38.71h-1V398.27h2.53v7h.16a4.29,4.29,0,0,0,2.43-.88,2.46,2.46,0,0,0,.87-2,3,3,0,0,0-1-2.4,4,4,0,0,0-2.76-.85h-1.9a3.2,3.2,0,0,0-3.53,3.51,4.68,4.68,0,0,0,.32,1.68,5.25,5.25,0,0,0,.9,1.49L17.67,408A8.38,8.38,0,0,1,16,405.48a7.42,7.42,0,0,1-.58-2.86Z"/><path class="cls-4" d="M30.61,412.18v3.44h-15v-3.44ZM24.5,421a3.19,3.19,0,0,0,2.24-.71,2.56,2.56,0,0,0,.79-2,2.65,2.65,0,0,0-.69-2,2.59,2.59,0,0,0-1.93-.7l3.1-.3a5.33,5.33,0,0,1,2.09,1.73,4.09,4.09,0,0,1,.73,2.41,4.72,4.72,0,0,1-.74,2.69,4.53,4.53,0,0,1-2.15,1.71,9,9,0,0,1-3.42.59H15.65V421Zm0,8.83a3.19,3.19,0,0,0,2.24-.72,2.65,2.65,0,0,0,.79-2.05,2.47,2.47,0,0,0-.76-1.94,3.07,3.07,0,0,0-2.15-.68l3.17-.67A5.7,5.7,0,0,1,30,425.63a4.39,4.39,0,0,1,.79,2.55,5,5,0,0,1-.74,2.76,4.58,4.58,0,0,1-2.15,1.74,8.79,8.79,0,0,1-3.42.6H15.65v-3.44Z"/><path class="cls-4" d="M15.44,441.61l.78-1.5a5.25,5.25,0,0,1,2.28-2.29,7.71,7.71,0,0,1,3.64-.79h1.69a8.63,8.63,0,0,1,3.79.76A5.32,5.32,0,0,1,30,440a6.94,6.94,0,0,1,.82,3.48,5.55,5.55,0,0,1-1,3.28,6,6,0,0,1-2.77,2.08,12.11,12.11,0,0,1-4.38.71h-1V439.38h2.53v7h.16a4.29,4.29,0,0,0,2.43-.88,2.46,2.46,0,0,0,.87-2,3,3,0,0,0-1-2.41,4.09,4.09,0,0,0-2.76-.85h-1.9a3.21,3.21,0,0,0-3.53,3.52,4.68,4.68,0,0,0,.32,1.68,5.25,5.25,0,0,0,.9,1.49l-2.1,2.25A8.38,8.38,0,0,1,16,446.59a7.42,7.42,0,0,1-.58-2.86Z"/><path class="cls-4" d="M30.61,453.29v3.44h-15v-3.44Zm-5.89,8.86a2.83,2.83,0,0,0,2.07-.72,2.74,2.74,0,0,0,.74-2.05,2.66,2.66,0,0,0-.69-2,2.59,2.59,0,0,0-1.93-.69l3.1-.3a5.34,5.34,0,0,1,2.1,1.71,4.1,4.1,0,0,1,.72,2.43,4.56,4.56,0,0,1-1.59,3.71,6.89,6.89,0,0,1-4.51,1.32H15.65v-3.45Z"/><path class="cls-4" d="M16.58,471a4.41,4.41,0,0,1,3-.87H35v3.44H20a1.34,1.34,0,0,0-.84.22.72.72,0,0,0-.3.63v1.2h-3.3v-1.85A3.5,3.5,0,0,1,16.58,471Zm14-2.42v7h-3v-7Z"/><path class="cls-5" d="M16.6,277.37h1.34v8.12H16.6Zm.56,0h4.67v1.28H17.16Zm0,3.53h4.05v1.27H17.16Z"/><path class="cls-5" d="M23.1,285.13a1.72,1.72,0,0,1-.49-1.35,1.6,1.6,0,0,1,.5-1.29,2.3,2.3,0,0,1,1.51-.43h1.55l.08,1H24.62a.9.9,0,0,0-.59.17.72.72,0,0,0,.06,1.05,1.35,1.35,0,0,0,.77.18,2.5,2.5,0,0,0,.95-.14.48.48,0,0,0,.31-.44l.12.83a1.09,1.09,0,0,1-.34.46,1.59,1.59,0,0,1-.57.27,2.8,2.8,0,0,1-.73.1A2.17,2.17,0,0,1,23.1,285.13Zm3-3.31a1,1,0,0,0-.29-.76,1.13,1.13,0,0,0-.81-.26,2.16,2.16,0,0,0-.66.1,1.88,1.88,0,0,0-.58.3l-.89-.75a2.41,2.41,0,0,1,.89-.62,3.45,3.45,0,0,1,1.23-.22,2.83,2.83,0,0,1,1.26.26,1.85,1.85,0,0,1,.81.73,2.35,2.35,0,0,1,.27,1.17v3.72H26.12Z"/><path class="cls-5" d="M29,279.7h1.34v5.79H29ZM32.41,282a1.15,1.15,0,0,0-.28-.81,1.11,1.11,0,0,0-.8-.28,1,1,0,0,0-.76.27,1,1,0,0,0-.26.75l-.12-1.2a2,2,0,0,1,.66-.82,1.65,1.65,0,0,1,.94-.28,1.77,1.77,0,0,1,1.44.62,2.65,2.65,0,0,1,.51,1.74v3.52H32.41Z"/><path class="cls-5" d="M40.37,285.58l-.65-.37a2.48,2.48,0,0,1-1-1,3.51,3.51,0,0,1-.35-1.61v-2.23a3.51,3.51,0,0,1,.35-1.61,2.48,2.48,0,0,1,1-1,3.05,3.05,0,0,1,1.54-.37,2.76,2.76,0,0,1,1.32.31,2.67,2.67,0,0,1,1,.9,3.79,3.79,0,0,1,.54,1.4H42.74a2.19,2.19,0,0,0-.32-.69,1.71,1.71,0,0,0-.52-.45,1.4,1.4,0,0,0-.64-.15,1.53,1.53,0,0,0-.81.21,1.36,1.36,0,0,0-.52.59,2.14,2.14,0,0,0-.18.91v2.23a2.14,2.14,0,0,0,.18.91,1.36,1.36,0,0,0,.52.59,1.53,1.53,0,0,0,.81.21,1.44,1.44,0,0,0,.65-.15,1.43,1.43,0,0,0,.51-.44,2,2,0,0,0,.32-.7h1.37a3.59,3.59,0,0,1-.55,1.39,2.72,2.72,0,0,1-1,.9,2.8,2.8,0,0,1-1.32.32Z"/><path class="cls-5" d="M46.84,283.79a.44.44,0,0,0,.11.33.41.41,0,0,0,.3.11h.39v1.28h-.72a1.36,1.36,0,0,1-1-.4,1.61,1.61,0,0,1-.37-1.14v-6.6h1.33Z"/><path class="cls-5" d="M50.09,283.22a1,1,0,0,0,.28.79,1,1,0,0,0,1.8-.74l.08,1.24a1.74,1.74,0,0,1-.56.76,1.52,1.52,0,0,1-.95.31,1.82,1.82,0,0,1-1.46-.61,2.56,2.56,0,0,1-.52-1.72V279.7h1.33Zm2.08-3.52H53.5v5.79H52.17Z"/><path class="cls-5" d="M55.12,277.37h1.33v8.12H55.12Zm1.82,7.95a1.56,1.56,0,0,1-.56-.74l.07-1.27a1.19,1.19,0,0,0,.12.56.79.79,0,0,0,.34.36,1.13,1.13,0,0,0,.54.12,1,1,0,0,0,.77-.31,1.27,1.27,0,0,0,.28-.89v-1.09a1.29,1.29,0,0,0-.28-.9.94.94,0,0,0-.77-.33,1,1,0,0,0-.54.13.77.77,0,0,0-.34.35,1.22,1.22,0,0,0-.12.56l-.11-1.2a1.87,1.87,0,0,1,.65-.78,1.49,1.49,0,0,1,.89-.28,1.88,1.88,0,0,1,1,.29,1.74,1.74,0,0,1,.67.83,3.33,3.33,0,0,1,.23,1.33v1.09a3.41,3.41,0,0,1-.23,1.31,1.76,1.76,0,0,1-.68.83,1.94,1.94,0,0,1-1.07.29A1.64,1.64,0,0,1,56.94,285.32Z"/><path class="cls-5" d="M64.41,279.7h1.33v5.79H64.41Zm3.42,2.36a1.29,1.29,0,0,0-.27-.87,1.2,1.2,0,0,0-1.55,0,1,1,0,0,0-.27.75l-.11-1.2a2.05,2.05,0,0,1,.67-.82,1.65,1.65,0,0,1,.93-.28,1.84,1.84,0,0,1,1,.29,1.86,1.86,0,0,1,.67.83,3.53,3.53,0,0,1,.22,1.33v3.43H67.83Zm3.42,0a1.25,1.25,0,0,0-.28-.87,1,1,0,0,0-.79-.3,1,1,0,0,0-.75.29,1.21,1.21,0,0,0-.27.84l-.26-1.23a2.25,2.25,0,0,1,.72-.87,1.68,1.68,0,0,1,1-.31,2,2,0,0,1,1.07.29,1.8,1.8,0,0,1,.67.83,3.33,3.33,0,0,1,.23,1.33v3.43H71.25Z"/><path class="cls-5" d="M74.42,285.13a1.72,1.72,0,0,1-.5-1.35,1.6,1.6,0,0,1,.51-1.29,2.27,2.27,0,0,1,1.5-.43h1.56l.07,1H75.94a1,1,0,0,0-.6.17.63.63,0,0,0-.19.51.61.61,0,0,0,.25.54,1.36,1.36,0,0,0,.78.18,2.53,2.53,0,0,0,.95-.14.48.48,0,0,0,.31-.44l.11.83a1,1,0,0,1-.33.46,1.67,1.67,0,0,1-.57.27,2.8,2.8,0,0,1-.73.1A2.17,2.17,0,0,1,74.42,285.13Zm3-3.31a1,1,0,0,0-.29-.76,1.13,1.13,0,0,0-.81-.26,2.07,2.07,0,0,0-.66.1,1.88,1.88,0,0,0-.58.3l-.89-.75a2.33,2.33,0,0,1,.89-.62,3.45,3.45,0,0,1,1.23-.22,2.86,2.86,0,0,1,1.26.26,1.78,1.78,0,0,1,.8.73,2.25,2.25,0,0,1,.28,1.17v3.72H77.44Z"/><path class="cls-5" d="M80.29,279.7h1.33v5.79H80.29ZM83.72,282a1.11,1.11,0,0,0-.28-.81,1.09,1.09,0,0,0-.79-.28,1,1,0,0,0-.76.27,1,1,0,0,0-.27.75l-.11-1.2a2,2,0,0,1,.66-.82,1.63,1.63,0,0,1,.94-.28,1.77,1.77,0,0,1,1.44.62,2.65,2.65,0,0,1,.51,1.74v3.52H83.72Z"/><path class="cls-5" d="M86.89,285.13a1.72,1.72,0,0,1-.49-1.35,1.6,1.6,0,0,1,.5-1.29,2.3,2.3,0,0,1,1.51-.43H90l.08,1H88.41a.9.9,0,0,0-.59.17.63.63,0,0,0-.2.51.62.62,0,0,0,.26.54,1.35,1.35,0,0,0,.77.18,2.5,2.5,0,0,0,.95-.14.46.46,0,0,0,.31-.44l.12.83a1.09,1.09,0,0,1-.34.46,1.51,1.51,0,0,1-.57.27,2.8,2.8,0,0,1-.73.1A2.19,2.19,0,0,1,86.89,285.13Zm3-3.31a1,1,0,0,0-.29-.76,1.13,1.13,0,0,0-.81-.26,2.16,2.16,0,0,0-.66.1,1.88,1.88,0,0,0-.58.3l-.89-.75a2.37,2.37,0,0,1,.9-.62,3.36,3.36,0,0,1,1.22-.22,2.87,2.87,0,0,1,1.27.26,1.83,1.83,0,0,1,.8.73,2.35,2.35,0,0,1,.27,1.17v3.72H89.91Z"/><path class="cls-5" d="M93.5,285.3a1.8,1.8,0,0,1-.67-.83,3.28,3.28,0,0,1-.24-1.32v-1.1a3.43,3.43,0,0,1,.23-1.32,1.84,1.84,0,0,1,.67-.84,1.88,1.88,0,0,1,1.05-.29,1.59,1.59,0,0,1,.9.27,2,2,0,0,1,.65.77L96,281.88a1.41,1.41,0,0,0-.11-.57.81.81,0,0,0-.35-.36,1.08,1.08,0,0,0-.54-.12,1,1,0,0,0-.77.32,1.39,1.39,0,0,0-.27.91v1.09a1.32,1.32,0,0,0,.27.89,1.12,1.12,0,0,0,1.31.19.81.81,0,0,0,.35-.36,1.33,1.33,0,0,0,.11-.56l.08,1.27a1.55,1.55,0,0,1-.55.73,1.6,1.6,0,0,1-.93.28A1.94,1.94,0,0,1,93.5,285.3Zm.59,2.55-.53-.25a2,2,0,0,1-.83-.68l.9-.82a1.42,1.42,0,0,0,1.11.54,1.25,1.25,0,0,0,.9-.31,1.15,1.15,0,0,0,.33-.87V279.7h1.34v5.62a2.92,2.92,0,0,1-.3,1.37,2,2,0,0,1-.87.86,2.93,2.93,0,0,1-1.38.3Z"/><path class="cls-5" d="M100.53,285.58l-.58-.31a2,2,0,0,1-.88-.88,2.94,2.94,0,0,1-.31-1.41v-.65a3.41,3.41,0,0,1,.29-1.47,2,2,0,0,1,.86-.93,2.7,2.7,0,0,1,1.35-.32,2.18,2.18,0,0,1,1.26.37,2.31,2.31,0,0,1,.81,1.08,4.71,4.71,0,0,1,.28,1.69v.38H99.67v-1h2.7v-.06a1.71,1.71,0,0,0-.34-1,1,1,0,0,0-.76-.33,1.18,1.18,0,0,0-.94.37,1.59,1.59,0,0,0-.33,1.07V283a1.34,1.34,0,0,0,.36,1,1.36,1.36,0,0,0,1,.36,1.68,1.68,0,0,0,.65-.13,1.87,1.87,0,0,0,.57-.35l.87.82a3.06,3.06,0,0,1-1,.64,2.86,2.86,0,0,1-1.1.23Z"/><path class="cls-5" d="M105.06,279.7h1.33v5.79h-1.33Zm3.42,2.36a1.25,1.25,0,0,0-.28-.87,1,1,0,0,0-.78-.3,1,1,0,0,0-.76.27,1,1,0,0,0-.27.75l-.12-1.2a2.14,2.14,0,0,1,.67-.82,1.7,1.7,0,0,1,.94-.28,1.87,1.87,0,0,1,1,.29,1.78,1.78,0,0,1,.66.83,3.52,3.52,0,0,1,.23,1.33v3.43h-1.33Zm3.42,0a1.3,1.3,0,0,0-.28-.87,1,1,0,0,0-.79-.3,1,1,0,0,0-.76.29,1.26,1.26,0,0,0-.26.84l-.26-1.23a2.09,2.09,0,0,1,.72-.87,1.66,1.66,0,0,1,1-.31,1.91,1.91,0,0,1,1.06.29,1.82,1.82,0,0,1,.68.83,3.52,3.52,0,0,1,.23,1.33v3.43H111.9Z"/><path class="cls-5" d="M116.46,285.58l-.58-.31a2,2,0,0,1-.89-.88,3.06,3.06,0,0,1-.31-1.41v-.65a3.26,3.26,0,0,1,.3-1.47,2,2,0,0,1,.85-.93,2.7,2.7,0,0,1,1.35-.32,2.21,2.21,0,0,1,1.27.37,2.3,2.3,0,0,1,.8,1.08,4.5,4.5,0,0,1,.28,1.69v.38h-3.94v-1h2.7v-.06a1.63,1.63,0,0,0-.34-1,1,1,0,0,0-.76-.33,1.17,1.17,0,0,0-.93.37,1.59,1.59,0,0,0-.33,1.07V283a1.24,1.24,0,0,0,1.36,1.37,1.64,1.64,0,0,0,.65-.13,1.91,1.91,0,0,0,.58-.35l.87.82a3.29,3.29,0,0,1-1,.64,2.94,2.94,0,0,1-1.11.23Z"/><path class="cls-5" d="M121,279.7h1.34v5.79H121Zm3.44,2.28a1.15,1.15,0,0,0-.28-.81,1.11,1.11,0,0,0-.8-.28,1,1,0,0,0-.76.27,1,1,0,0,0-.26.75l-.12-1.2a2,2,0,0,1,.66-.82,1.65,1.65,0,0,1,.94-.28,1.77,1.77,0,0,1,1.44.62,2.65,2.65,0,0,1,.51,1.74v3.52h-1.33Z"/><path class="cls-5" d="M126.92,279.7h2.73v1.16h-2.73Zm.94,5.43a1.68,1.68,0,0,1-.34-1.15v-6h1.33v5.79a.54.54,0,0,0,.09.33.28.28,0,0,0,.24.11h.47v1.28h-.72A1.35,1.35,0,0,1,127.86,285.13Z"/><path class="cls-5" d="M16.86,293.08a7,7,0,0,1-.51,1.79l-.3-.14a5.75,5.75,0,0,0,.48-1.76Zm0-1.18-.32.12a8.34,8.34,0,0,0-.41-1.22l.31-.12A6.71,6.71,0,0,1,16.83,291.9Zm1.47.73h-.89v3.16h-.32v-3.16h-1v-.32h1v-2.06h.32v2.06h.89Zm.17,1.83-.31.12a7.87,7.87,0,0,0-.55-1.5l.29-.12A7.78,7.78,0,0,1,18.47,294.46Zm-.08-3.67A5.74,5.74,0,0,1,18,292l-.31-.12a6,6,0,0,0,.44-1.2Zm2.77,1.79c0,.89,0,1.57,0,2a2.31,2.31,0,0,1-.15.86.82.82,0,0,1-.25.24,2.11,2.11,0,0,1-.83.09l-.14-.35.51,0a.46.46,0,0,0,.36-.12,1.54,1.54,0,0,0,.16-.72c0-.4,0-1,0-1.73h-1a3.35,3.35,0,0,1-1.44,3l-.22-.3a2.81,2.81,0,0,0,1.31-2.65H18.7v-.32Zm-1.49-2.25a5.75,5.75,0,0,1-1,2.06l-.28-.23a4.79,4.79,0,0,0,1-1.89Zm2,1.77-.23.25a3.79,3.79,0,0,1-1.05-1.68h-.44v-.33h.7A3.6,3.6,0,0,0,21.66,292.1Z"/><path class="cls-5" d="M23.16,294.36a5.38,5.38,0,0,1-.44,1.42l-.29-.12a6.33,6.33,0,0,0,.43-1.41Zm1.71-.45-.28.11a2.54,2.54,0,0,0-.1-.32c-.73.14-1.38.26-1.95.35l-.09-.3a5,5,0,0,0,1.36-1.41c-.43.06-.83.1-1.21.13l-.08-.28a4.84,4.84,0,0,0,1.14-1.95l.3.16a5.75,5.75,0,0,1-.95,1.72q.42,0,1-.12a8.23,8.23,0,0,0,.43-.76l.31.15A7.71,7.71,0,0,1,23,293.66c.27,0,.71-.12,1.33-.25a2.41,2.41,0,0,0-.2-.45l.29-.12A4.36,4.36,0,0,1,24.87,293.91Zm-1,1.73-.32,0c0-.12,0-.24,0-.36a7,7,0,0,0-.08-1l.31,0a6.72,6.72,0,0,1,.09,1.07C23.92,295.44,23.91,295.54,23.91,295.64Zm.81-.51-.28.1a5,5,0,0,0-.28-1l.3-.09A4.24,4.24,0,0,1,24.72,295.13ZM25.86,294a5,5,0,0,1-.73,1.47l-.27-.17a5.06,5.06,0,0,0,.72-1.42Zm2.12-.45-.29.12-.18-.43-.88.15v2a.39.39,0,0,1-.17.35,1,1,0,0,1-.49.11h-.22l-.1-.33H26a.64.64,0,0,0,.31-.05.16.16,0,0,0,.06-.15v-1.84l-1.17.16-.09-.28a4,4,0,0,0,1.39-1.17l-1.27.14-.09-.28a4.58,4.58,0,0,0,1.14-1.8l.29.14a5.81,5.81,0,0,1-.94,1.57,10.09,10.09,0,0,0,1.14-.14,8.14,8.14,0,0,0,.5-.78l.29.14a6.34,6.34,0,0,1-1.73,2.06c.57-.08,1.09-.17,1.58-.27a3.46,3.46,0,0,0-.23-.41l.3-.12A4.94,4.94,0,0,1,28,293.55Zm0,1.66-.27.15a6,6,0,0,0-.66-1.35l.26-.17A6.83,6.83,0,0,1,28,295.21Z"/><path class="cls-5" d="M30.59,291.66a8,8,0,0,1-.61.94v3.2h-.34v-2.75a8.69,8.69,0,0,1-.68.68l-.23-.27a7.29,7.29,0,0,0,1.57-1.92Zm-.19-1.29a5.85,5.85,0,0,1-1.4,1.39l-.21-.25a4.65,4.65,0,0,0,1.3-1.29Zm4,5.13-.13.33a7.45,7.45,0,0,1-1.89-.7,7.28,7.28,0,0,1-2,.69l-.17-.3a6.7,6.7,0,0,0,1.85-.6,5.51,5.51,0,0,1-.81-.77,5,5,0,0,1-.66.44l-.23-.24a3.69,3.69,0,0,0,.67-.44,3.44,3.44,0,0,1-.26-.34l.25-.2a3.35,3.35,0,0,0,.26.32,2.18,2.18,0,0,0,.51-.69l-1.07.05-.08-.34a6.51,6.51,0,0,0,1.64-.86l-1.41.08-.06-.33a4.53,4.53,0,0,0,1.64-1.38l.32.12a5,5,0,0,1-1.31,1.24c.31,0,.75,0,1.3-.09.29-.23.56-.47.81-.71l.33.15a10.38,10.38,0,0,1-2.43,1.77c.52,0,1.23-.06,2.13-.17a4.91,4.91,0,0,0-.4-.53l.28-.17a7.11,7.11,0,0,1,.91,1.35l-.28.16a3,3,0,0,0-.3-.52c-.5.06-1.05.11-1.66.15a4.14,4.14,0,0,1-.32.59h2v.32a6.06,6.06,0,0,1-1.11,1.05A6.47,6.47,0,0,0,34.36,295.5Zm-1-1.62h-1.8l-.05.06a4,4,0,0,0,.87.79A4.6,4.6,0,0,0,33.31,293.88Z"/><path class="cls-5" d="M37,291.71H36.3V293l.55-.27.06.33a5.73,5.73,0,0,1-.61.3v1.94a.56.56,0,0,1-.11.35q-.11.15-.57.15H35.3l-.1-.33h.63c.1,0,.14-.06.14-.16v-1.81l-.75.28-.08-.3.83-.33v-1.46h-.83v-.32H36v-1.11h.33v1.11H37Zm3.77,3.79-.16.3a6,6,0,0,1-1.41-.54,6.47,6.47,0,0,1-1.42.56l-.21-.29a5,5,0,0,0,1.31-.46,3.35,3.35,0,0,1-.86-.94,6,6,0,0,1-1.26,1.6l-.22-.24A4.49,4.49,0,0,0,38,293.27h-.88V293h1a5.53,5.53,0,0,0,.1-.55h-1v-.33h3.43v.33H38.48a3.51,3.51,0,0,1-.11.55h2.32v.31H38.3a3,3,0,0,1-.15.45h2.27V294a3,3,0,0,1-.94,1A5.08,5.08,0,0,0,40.74,295.5Zm-.12-4.94a19,19,0,0,1-3.41.4l-.15-.31a16.31,16.31,0,0,0,3.4-.4ZM38,291.79l-.27.14a3.74,3.74,0,0,0-.52-.68l.29-.16A2.87,2.87,0,0,1,38,291.79ZM40,294H38.29a2.47,2.47,0,0,0,.88.84A2.51,2.51,0,0,0,40,294Zm-.75-2.24-.3.11a3.12,3.12,0,0,0-.32-.74l.29-.11A3.43,3.43,0,0,1,39.27,291.79Zm1.32-.75a2.72,2.72,0,0,1-.5.91l-.28-.15a3.49,3.49,0,0,0,.49-.88Z"/><path class="cls-5" d="M47.08,291.5l-.14.31a8,8,0,0,1-1.65-.57v.25H43.23v-.24a9.07,9.07,0,0,1-1.6.62l-.17-.29a6.48,6.48,0,0,0,2.74-1.37l.37.11-.1.1A6.39,6.39,0,0,0,47.08,291.5Zm-.63,1.93H42v-1.56h4.41Zm-.27,2.38h-.32v-.27H42.67v.27h-.34v-2h3.85Zm-2.09-2.68v-1H42.37v1Zm1.77,1.39v-.41H42.67v.41Zm0,.72v-.43H42.67v.43Zm-2.3-2.44-.24.18a4,4,0,0,0-.48-.54l.25-.16A2.63,2.63,0,0,1,43.56,292.8Zm1.57-1.62a6.54,6.54,0,0,1-.91-.56,6.56,6.56,0,0,1-.85.56Zm1,1.95v-1H44.42v1Zm-.48-.71a3.81,3.81,0,0,1-.48.56l-.25-.18a2.39,2.39,0,0,0,.46-.49Z"/><path class="cls-5" d="M48.55,294.3a6.05,6.05,0,0,1-.41,1.45l-.3-.14a7.2,7.2,0,0,0,.41-1.38Zm1.49-.46-.29.11c0-.12,0-.21-.06-.29-.63.17-1.2.31-1.71.4l-.11-.27a7.49,7.49,0,0,0,1.27-1.52l-1.14.18-.07-.29a6.12,6.12,0,0,0,1.1-1.91l.32.09a7.52,7.52,0,0,1-1,1.74c.26,0,.57-.07.93-.14a6,6,0,0,0,.41-.74l.31.13a11.21,11.21,0,0,1-1.6,2.32c.37-.07.75-.16,1.13-.27a1.91,1.91,0,0,0-.18-.45l.29-.11A4.11,4.11,0,0,1,50,293.84Zm-.71,1.74-.31.06a6.53,6.53,0,0,0-.12-1.34l.28-.05A4.94,4.94,0,0,1,49.33,295.58Zm.86-.52-.28.11a5.3,5.3,0,0,0-.27-.9l.26-.11A4.11,4.11,0,0,1,50.19,295.06Zm.91-1.7-.27.14a7.55,7.55,0,0,0-.8-1.24,8.93,8.93,0,0,0,.71-1.17l.29.11a6.42,6.42,0,0,1-.62,1.06A6.4,6.4,0,0,1,51.1,293.36Zm2.28,2.31H50.1v-.31h1.47v-1.3h-1.3v-.32h2.95v.32H51.9v1.3h1.48Zm-.08-4.92H50.11v-.32H53.3Zm-1.07,2.58-.28.15a8.36,8.36,0,0,0-.77-1.2,7,7,0,0,0,.67-1.13l.33.1a10.57,10.57,0,0,1-.63,1A8.53,8.53,0,0,1,52.23,293.33Zm1.13,0-.28.15a7.58,7.58,0,0,0-.78-1.19,7.63,7.63,0,0,0,.68-1.17l.31.11a9.87,9.87,0,0,1-.6,1A10.6,10.6,0,0,1,53.36,293.34Z"/><path class="cls-5" d="M59.55,293.18h-.34v-.58H54.72v.57h-.31v-.87h5.14Zm-4.34-2-.28.15a3.71,3.71,0,0,0-.49-.7l.27-.19A4.58,4.58,0,0,1,55.21,291.22Zm1.65-.53a5.13,5.13,0,0,1-1,.52l0,.13c.44.21.78.39,1,.54l-.19.27a9.84,9.84,0,0,0-1-.55,1.91,1.91,0,0,1-1,.58l-.19-.26a2,2,0,0,0,.72-.33.92.92,0,0,0,.34-.55,4.26,4.26,0,0,0,.06-.78h.31c0,.27,0,.46,0,.59a3.91,3.91,0,0,0,.79-.4Zm2.42,5.12H59v-.23H55v.23h-.32v-1.4h1.88a2.86,2.86,0,0,0,.19-.43H55.19v-1h3.57v1H57.11c-.08.17-.14.31-.19.43h2.36Zm-.33-.54v-.55H55v.55Zm-.52-1.59v-.39H55.52v.39Zm1.11-1.77-.18.28a6.78,6.78,0,0,0-1.15-.57,2.38,2.38,0,0,1-1.09.55l-.18-.27a2.14,2.14,0,0,0,1-.49,1.7,1.7,0,0,0,.24-1.15h.32q0,.23,0,.6a4.2,4.2,0,0,0,.82-.46l.19.24a5.83,5.83,0,0,1-1.07.56,1.15,1.15,0,0,1-.06.17A9.56,9.56,0,0,1,59.54,291.91Zm-1.73-.75-.29.14a3.77,3.77,0,0,0-.43-.69l.26-.16A2.87,2.87,0,0,1,57.81,291.16Z"/><path class="cls-5" d="M66.09,295.57l-.19.29a8.29,8.29,0,0,1-1.65-1,6.65,6.65,0,0,1-2.1,1l-.21-.3a5.87,5.87,0,0,0,2.05-.91,7.23,7.23,0,0,1-1.33-2.13h-.12a6,6,0,0,1-1.79,3.27l-.24-.26a6.59,6.59,0,0,0,1.37-1.91,9.55,9.55,0,0,0,.53-2.86H61v-.34h4.16c-.15.48-.36,1.06-.62,1.76h1.17a5.14,5.14,0,0,1-1.19,2.48A7.74,7.74,0,0,0,66.09,295.57Zm-1.41-4.82H62.75c-.06.63-.1,1.11-.14,1.42h1.58C64.39,291.62,64.56,291.14,64.68,290.75Zm.6,1.76H63a6.24,6.24,0,0,0,1.24,1.92A4.17,4.17,0,0,0,65.28,292.51Z"/><path class="cls-5" d="M69.45,293.28l-.26.22a5.89,5.89,0,0,0-.69-1.05v3.36h-.33v-3.22a6.49,6.49,0,0,1-1.08,1.53l-.22-.29a6.13,6.13,0,0,0,1.3-1.91H67v-.32h1.14v-1.32h.33v1.32h.94v.32H68.5v0A8.84,8.84,0,0,1,69.45,293.28Zm2.75,2.53h-.33v-.54H70v.54h-.34v-5.33H72.2ZM71.87,292V290.8H70V292Zm0,1.48v-1.16H70v1.16Zm0,1.51v-1.19H70V295Z"/><path class="cls-5" d="M75.74,292.08H73.87v3.73h-.33v-5.39h2.2Zm-.32-1v-.38H73.87v.38Zm0,.69v-.4H73.87v.4Zm.51,2-.25.13-.09-.18-1.31.17-.09-.26a4.92,4.92,0,0,0,.8-.59l-.72.1-.09-.26a3.41,3.41,0,0,0,.84-.75l.3.14a6,6,0,0,1-.59.55l.57-.09a1.71,1.71,0,0,0,.31-.3l.29.13a13.91,13.91,0,0,1-1.14,1l.7-.1a2.36,2.36,0,0,0-.13-.2l.26-.11A3.21,3.21,0,0,1,75.93,293.8Zm-.2.58a1.39,1.39,0,0,1-.25.92,1.58,1.58,0,0,1-.83.42l-.21-.27c.56-.12.88-.33,1-.64h-1v-.76h.3v.47h.7a1.35,1.35,0,0,0,0-.22V294h.31Zm2.25-.6-.25.16c-.07-.1-.11-.17-.14-.2l-1.49.13-.06-.25a3.62,3.62,0,0,0,.74-.54l-.73.07-.07-.24a2.41,2.41,0,0,0,.81-.74l.3.13a4.58,4.58,0,0,1-.54.54l.55,0,.27-.26.27.12a8.6,8.6,0,0,1-1,.91l.77-.07a.63.63,0,0,0-.17-.21l.26-.15A5,5,0,0,1,78,293.78Zm-.44,1h-1v.87H76.2V294h.31v.51h.73v-.47h.3Zm1,.63a.34.34,0,0,1-.11.28.33.33,0,0,1-.25.1h-.6l-.14-.33.41,0a1,1,0,0,0,.33,0,.13.13,0,0,0,0-.11v-3.28H76.31v-1.66h2.2Zm-.31-4.34v-.38H76.65v.38Zm0,.69v-.4H76.65v.4Z"/><path class="cls-5" d="M85.07,291H80.38v1.83a8.13,8.13,0,0,1-.5,3l-.27-.23a7.83,7.83,0,0,0,.46-2.76v-2.13h2.37l-.25-.41.33-.08a2.52,2.52,0,0,1,.28.49h2.27Zm-3.61,3.42a4.39,4.39,0,0,1-.75,1.22l-.24-.21a3.77,3.77,0,0,0,.69-1.14Zm.36-3.19a4,4,0,0,1-.4.85v2h-.31v-1.53a4.34,4.34,0,0,1-.4.45l-.21-.25a4.32,4.32,0,0,0,1-1.63ZM85,294H82.18v-1.59c-.1.13-.25.3-.43.51l-.19-.27a5.73,5.73,0,0,0,1-1.55l.28.11a3.71,3.71,0,0,1-.22.45h1a3.17,3.17,0,0,0-.24-.43l.31-.09a2.25,2.25,0,0,1,.28.52h1v.3H83.81v.36h1.08v.3H83.81v.4h1.08v.29H83.81v.4H85Zm-.82,1a1.29,1.29,0,0,1-.12.49.42.42,0,0,1-.27.22,8.24,8.24,0,0,1-1.61,0,.4.4,0,0,1-.22-.16.58.58,0,0,1-.09-.35v-.91h.32v.93c0,.1,0,.17.09.19a3.6,3.6,0,0,0,.65,0,4.3,4.3,0,0,0,.7,0,.25.25,0,0,0,.17-.13,1,1,0,0,0,.06-.42Zm-.68-2.64V292h-1v.36Zm0,.7v-.4h-1v.4Zm0,.69v-.4h-1v.4Zm-.07,1.13-.28.18a3.4,3.4,0,0,0-.55-.65l.28-.19A4.58,4.58,0,0,1,83.44,294.88Zm1.73.56-.28.17a6,6,0,0,0-.77-1.13l.28-.17A6.84,6.84,0,0,1,85.17,295.44Z"/><path class="cls-5" d="M87.8,291.71h-.68V293l.56-.27,0,.33a4.92,4.92,0,0,1-.61.3v1.94a.51.51,0,0,1-.11.35q-.11.15-.57.15h-.32l-.1-.33h.63a.14.14,0,0,0,.15-.16v-1.81l-.76.28-.08-.3.84-.33v-1.46H86v-.32h.84v-1.11h.32v1.11h.68Zm3.77,3.79-.17.3a5.8,5.8,0,0,1-1.4-.54,6.77,6.77,0,0,1-1.43.56l-.21-.29a5.06,5.06,0,0,0,1.32-.46,3.25,3.25,0,0,1-.87-.94,6,6,0,0,1-1.26,1.6l-.22-.24a4.49,4.49,0,0,0,1.45-2.22H87.9V293h1a5.53,5.53,0,0,0,.1-.55H88v-.33h3.43v.33H89.3c0,.23-.07.42-.1.55h2.31v.31H89.12a3,3,0,0,1-.15.45h2.28V294a3.14,3.14,0,0,1-1,1A5,5,0,0,0,91.57,295.5Zm-.13-4.94A19,19,0,0,1,88,291l-.15-.31a16.22,16.22,0,0,0,3.4-.4Zm-2.61,1.23-.27.14a3.74,3.74,0,0,0-.51-.68l.29-.16A3.09,3.09,0,0,1,88.83,291.79Zm2,2.24H89.11a2.49,2.49,0,0,0,.89.84A2.7,2.7,0,0,0,90.85,294Zm-.76-2.24-.3.11a3.12,3.12,0,0,0-.32-.74l.3-.11A3.94,3.94,0,0,1,90.09,291.79Zm1.32-.75a2.84,2.84,0,0,1-.49.91l-.29-.15a3.84,3.84,0,0,0,.5-.88Z"/><path class="cls-5" d="M95,291.17H93.32a3.74,3.74,0,0,1-.76.7l-.26-.23a3.76,3.76,0,0,0,1.25-1.4l.32.11c0,.08-.14.25-.3.5H95Zm2.84,4.16-.19.28a6.69,6.69,0,0,1-2.44-1.49v1.7h-.32v-1.71a6.73,6.73,0,0,1-2.41,1.5l-.2-.28a6.47,6.47,0,0,0,2.61-1.68v-.38H93.32v1.1H93V293h1.94v-.49H92.42v-.31h2.51v-.34h.32v.34h2.54v.31H95.25V293h2v1a.51.51,0,0,1-.1.34.66.66,0,0,1-.48.12h-.19L96.3,294h.46a.12.12,0,0,0,.13-.13v-.65H95.25v.37A6.34,6.34,0,0,0,97.88,295.33Zm-3.45-3.46-.34.12a2.12,2.12,0,0,0-.47-.54l.33-.13A2.55,2.55,0,0,1,94.43,291.87Zm3.33-.7h-2a2.18,2.18,0,0,1-.42.47l-.25-.22a3,3,0,0,0,.82-1.18l.31.12a3.65,3.65,0,0,1-.24.49h1.78Zm-.8.68-.31.13a3,3,0,0,0-.44-.51l.3-.13A1.84,1.84,0,0,1,97,291.85Z"/><path class="cls-5" d="M100.56,291.43h-.34l.21.15c-.11.51-.21.92-.3,1.21h.43v.33h-.71a7.86,7.86,0,0,1,0,.92h.62v.31h-.66a3.8,3.8,0,0,1-.69,1.45l-.25-.18a3.4,3.4,0,0,0,.62-1.27h-.66V294h.72a6.56,6.56,0,0,0,0-.92h-.88v-.33h.47c-.06-.38-.14-.79-.25-1.21l.22-.15h-.37v-.32h.82c-.07-.25-.15-.51-.25-.78l.3-.1a7.11,7.11,0,0,1,.27.88h.68Zm-.43,0h-.94c.1.44.18.9.24,1.36h.37A12.19,12.19,0,0,0,100.13,291.43Zm1.91.19c0,.66,0,1.42,0,2.27a10.67,10.67,0,0,1-.1,1.47.53.53,0,0,1-.19.31.84.84,0,0,1-.53.12H101l-.11-.31h.3a.86.86,0,0,0,.31,0,.35.35,0,0,0,.1-.11,1.87,1.87,0,0,0,.07-.52c0-.3,0-.72.06-1.24s0-1.08,0-1.65h-.44a7.18,7.18,0,0,1-.94,3.87l-.27-.17a4,4,0,0,0,.61-1.35,10.37,10.37,0,0,0,.27-2.35h-.34v-.3H101c0-.51,0-1,0-1.37h.31c0,.53,0,1,0,1.37Zm2.15,1.51h-.88v.92h.76v.32h-.76v1.44H103v-1.44h-.71v-.32H103v-.92h-.72v-.33h.4c-.09-.42-.19-.81-.31-1.2l.21-.15h-.34v-.32h.85c-.14-.45-.22-.72-.26-.82l.3-.08a8.74,8.74,0,0,1,.29.9h.7v.32h-.35l.25.16a11.7,11.7,0,0,1-.36,1.19h.53Zm-.47-1.68h-1.07a12.32,12.32,0,0,1,.36,1.35h.33A12.81,12.81,0,0,0,103.72,291.45Z"/></g></g></svg>