<svg xmlns="http://www.w3.org/2000/svg" viewBox="0 0 191.11 509.87"><defs><style>.cls-1{fill:#282828;}.cls-2{fill:none;stroke:#5fc1c7;stroke-miterlimit:10;}.cls-3{font-size:10.68px;font-family:MicrosoftJhengHeiBold, Microsoft JhengHei;font-weight:700;}.cls-3,.cls-4{fill:#fff;}.cls-5{fill:#5fc1c7;}</style></defs><title>Graphic Design0</title><g id="圖層_2" data-name="圖層 2"><g id="圖層_3" data-name="圖層 3"><path class="cls-1" d="M95.23,0a57.74,57.74,0,0,1,26,5.91,54.38,54.38,0,0,1,19.9,16.75,62.85,62.85,0,0,1,10.83,25.09H123.41a28.2,28.2,0,0,0-16.19-18.62,31.44,31.44,0,0,0-27.86,1.65A27.88,27.88,0,0,0,68.81,42.5,38.88,38.88,0,0,0,65.05,60v47.42a31.66,31.66,0,0,0,3.81,15.75A26.07,26.07,0,0,0,79.69,133.7a34.2,34.2,0,0,0,16.2,3.7,31.45,31.45,0,0,0,15.92-3.93,26.17,26.17,0,0,0,10.55-11.38,39.51,39.51,0,0,0,3.71-17.74V99.48H97.55V74.17h55.71v29.74q0,17.9-7.13,31.55A51,51,0,0,1,126,156.58Q113,164,95.89,164t-30.4-7A49.84,49.84,0,0,1,45.1,137.18q-7.24-12.83-7.24-29.74V60q0-17.91,7.13-31.5A51.06,51.06,0,0,1,65.1,7.46Q78.09,0,95.23,0H0V509.87H191.11V0Z"/><line class="cls-2" x1="125.17" y1="464.68" x2="176.17" y2="464.68"/><text class="cls-3" transform="translate(58.63 468.04)">平面設計</text><path class="cls-4" d="M27.55,287.61H23.67a8.71,8.71,0,0,1-4.11-.93,6.71,6.71,0,0,1-2.76-2.62,7.74,7.74,0,0,1-1-3.93,8.22,8.22,0,0,1,.92-4,6.54,6.54,0,0,1,2.58-2.66,7.77,7.77,0,0,1,3.88-.94h6.18a8.71,8.71,0,0,1,4.11.93,6.68,6.68,0,0,1,2.75,2.62,7.74,7.74,0,0,1,1,3.93,7.6,7.6,0,0,1-.77,3.39A7,7,0,0,1,34.26,286,8.19,8.19,0,0,1,31,287.44v-3.72a3.83,3.83,0,0,0,1.49-.8,3.68,3.68,0,0,0,.94-1.31,4.09,4.09,0,0,0-.21-3.64,3.64,3.64,0,0,0-1.53-1.37,5,5,0,0,0-2.29-.49H23.21a4.12,4.12,0,0,0-2.05.49A3.41,3.41,0,0,0,19.79,278a4.35,4.35,0,0,0-.49,2.11,4,4,0,0,0,.52,2.07,3.36,3.36,0,0,0,1.48,1.38,5.18,5.18,0,0,0,2.31.48h.64v-3.72h3.3Z"/><path class="cls-4" d="M31,291.79v3.59h-15v-3.59Zm-3.28,7.48a3.26,3.26,0,0,0,.19-1.17,2.59,2.59,0,0,0-.77-2,3.05,3.05,0,0,0-2.14-.71l3.39-.31a5.37,5.37,0,0,1,2.08,1.7,3.83,3.83,0,0,1,.74,2.3,5.21,5.21,0,0,1-.29,1.77,4,4,0,0,1-.87,1.38l-2.9-2.1A2.28,2.28,0,0,0,27.73,299.27Z"/><path class="cls-4" d="M17,305a4.41,4.41,0,0,1,3.48-1.29,4.16,4.16,0,0,1,3.33,1.3,5.86,5.86,0,0,1,1.11,3.89v4l-2.69.2v-4.19a2.34,2.34,0,0,0-.43-1.54,1.64,1.64,0,0,0-1.32-.51,1.56,1.56,0,0,0-1.39.66,3.54,3.54,0,0,0-.46,2,6.26,6.26,0,0,0,.36,2.44,1.19,1.19,0,0,0,1.13.8L18,313a2.55,2.55,0,0,1-1.18-.85,4.16,4.16,0,0,1-.71-1.48,7.09,7.09,0,0,1-.24-1.89A5.6,5.6,0,0,1,17,305Zm8.55,7.78a2.56,2.56,0,0,0,1.95-.74,3,3,0,0,0,.69-2.1,5.27,5.27,0,0,0-.28-1.7,5,5,0,0,0-.76-1.5l1.93-2.29a5.82,5.82,0,0,1,1.59,2.31,8.44,8.44,0,0,1,.57,3.17,7.47,7.47,0,0,1-.65,3.25,4.61,4.61,0,0,1-1.9,2.07,6,6,0,0,1-3,.72H16.05v-3.19Z"/><path class="cls-4" d="M31,320.1v3.44H10V320.1ZM16.5,324.81a4,4,0,0,1,1.9-1.47l3.27.2a3.2,3.2,0,0,0-1.45.3,2.17,2.17,0,0,0-.92.88,2.9,2.9,0,0,0-.31,1.4,2.52,2.52,0,0,0,.8,2,3.4,3.4,0,0,0,2.3.71H24.9a3.52,3.52,0,0,0,2.34-.71,2.47,2.47,0,0,0,.83-2,3,3,0,0,0-.31-1.4,2.12,2.12,0,0,0-.92-.88,3.23,3.23,0,0,0-1.45-.3l3.09-.3a5,5,0,0,1,2,1.68,4,4,0,0,1,.71,2.31,4.89,4.89,0,0,1-.73,2.72,4.57,4.57,0,0,1-2.16,1.72,8.92,8.92,0,0,1-3.42.59H22.09a8.55,8.55,0,0,1-3.38-.6,4.51,4.51,0,0,1-2.14-1.75,4.92,4.92,0,0,1-.74-2.75A4.08,4.08,0,0,1,16.5,324.81Z"/><path class="cls-4" d="M37,336.15v3.45H16.05v-3.45ZM25.11,345a2.84,2.84,0,0,0,2.08-.72,2.75,2.75,0,0,0,.73-2.05,2.68,2.68,0,0,0-.67-2,2.6,2.6,0,0,0-1.92-.69l3.1-.31A5.57,5.57,0,0,1,30.5,341a4.15,4.15,0,0,1,.72,2.43,4.55,4.55,0,0,1-1.59,3.71,6.86,6.86,0,0,1-4.5,1.32H16.05V345Z"/><path class="cls-4" d="M31,352.54V356h-15v-3.43Zm6,0V356H33.56v-3.43Z"/><path class="cls-4" d="M15.83,364.14l.79-1.48a5.16,5.16,0,0,1,2.29-2.26,7.8,7.8,0,0,1,3.64-.78h2a7.64,7.64,0,0,1,3.59.78,5.12,5.12,0,0,1,2.27,2.26,7.59,7.59,0,0,1,.78,3.57,8.69,8.69,0,0,1-.28,2.26,6.64,6.64,0,0,1-.81,1.9,5.32,5.32,0,0,1-1.3,1.41l-2.19-2.34a4,4,0,0,0,.95-1.38,4.28,4.28,0,0,0,.33-1.66,3.38,3.38,0,0,0-.87-2.48,3.34,3.34,0,0,0-2.47-.88h-2a3.42,3.42,0,0,0-2.53.88,3.31,3.31,0,0,0-.89,2.48,4,4,0,0,0,.36,1.67,3.94,3.94,0,0,0,1,1.37l-2.33,2.34a5.45,5.45,0,0,1-1.28-1.42,7.05,7.05,0,0,1-.8-1.9,9.13,9.13,0,0,1-.27-2.25Z"/><path class="cls-4" d="M37,383v3.44H16.05V383Zm-17.65,2v4.88a4.75,4.75,0,0,0,1.06,3.31,3.89,3.89,0,0,0,3,1.17h6.17a3.9,3.9,0,0,0,3-1.17,4.75,4.75,0,0,0,1.06-3.31V385H37v4.8a10,10,0,0,1-.88,4.39,6.15,6.15,0,0,1-2.56,2.77,8.22,8.22,0,0,1-4.07.95H23.56a8.06,8.06,0,0,1-4-.94,6.21,6.21,0,0,1-2.6-2.76,9.91,9.91,0,0,1-.9-4.43V385Z"/><path class="cls-4" d="M15.83,406.2l.78-1.5a5.31,5.31,0,0,1,2.28-2.29,7.73,7.73,0,0,1,3.64-.79h1.69a8.6,8.6,0,0,1,3.79.76,5.32,5.32,0,0,1,2.39,2.2,6.94,6.94,0,0,1,.82,3.48,5.55,5.55,0,0,1-1,3.28,5.9,5.9,0,0,1-2.77,2.08,12.11,12.11,0,0,1-4.38.71h-1V404h2.52v7h.16a4.33,4.33,0,0,0,2.44-.88,2.48,2.48,0,0,0,.86-2,3,3,0,0,0-1-2.4,4.05,4.05,0,0,0-2.76-.86H22.47a3.21,3.21,0,0,0-3.53,3.52,4.49,4.49,0,0,0,.33,1.68,4.83,4.83,0,0,0,.9,1.49l-2.11,2.25a8.38,8.38,0,0,1-1.65-2.56,7.42,7.42,0,0,1-.58-2.86Z"/><path class="cls-4" d="M15.83,422s.08-.4.25-1.21a11,11,0,0,1,.74-2.27,9.07,9.07,0,0,1,1.2-1.91l2.59,2.09a9.83,9.83,0,0,0-1.22,2.33,6.89,6.89,0,0,0-.42,2.31,5.2,5.2,0,0,0,.43,2.39,1.33,1.33,0,0,0,1.23.81,1.1,1.1,0,0,0,.93-.4,2.25,2.25,0,0,0,.42-1c.08-.41.15-1,.22-1.72l0-.39c0-.13,0-.26,0-.39s0-.08,0-.11,0-.08,0-.12a13.57,13.57,0,0,1,.48-2.58A3.34,3.34,0,0,1,24,418.16a4,4,0,0,1,2.52-.69,4.64,4.64,0,0,1,2.6.69,4.11,4.11,0,0,1,1.6,2,8.65,8.65,0,0,1,.54,3.26,11.12,11.12,0,0,1-.22,2.24,11.38,11.38,0,0,1-.65,2.1,10.12,10.12,0,0,1-1.06,1.9l-2.51-2.06a9.38,9.38,0,0,0,1-2.13,7.09,7.09,0,0,0,.33-2.08,4.33,4.33,0,0,0-.39-2.06,1.25,1.25,0,0,0-1.15-.71.84.84,0,0,0-.75.39,2.42,2.42,0,0,0-.35,1c-.07.39-.13,1-.2,1.7a1.64,1.64,0,0,0,0,.22,1.64,1.64,0,0,1,0,.22v.1a.5.5,0,0,1,0,.12,15.09,15.09,0,0,1-.47,2.75A3.66,3.66,0,0,1,23.45,429a4.29,4.29,0,0,1-2.75.76A4.71,4.71,0,0,1,18,429a4.35,4.35,0,0,1-1.65-2.14,9.55,9.55,0,0,1-.55-3.48Z"/><path class="cls-4" d="M31,433.08v3.43h-15v-3.43Zm6,0v3.43H33.56v-3.43Z"/><path class="cls-4" d="M10,444l.63-1.37a5,5,0,0,1,1.77-2.13l2.11,2.32a3.67,3.67,0,0,0-1.39,2.87,3.23,3.23,0,0,0,.8,2.32,2.92,2.92,0,0,0,2.25.85H31v3.44H16.49a7.45,7.45,0,0,1-3.53-.77,5.13,5.13,0,0,1-2.23-2.24,7.67,7.67,0,0,1-.77-3.56Zm6.58-1.52a4.68,4.68,0,0,1,2.15-1.74,8.65,8.65,0,0,1,3.4-.6h2.85a8.93,8.93,0,0,1,3.41.59,4.74,4.74,0,0,1,2.16,1.72,4.9,4.9,0,0,1,.74,2.72,4,4,0,0,1-.7,2.31,5.08,5.08,0,0,1-2,1.68l-3.19-.3a3.26,3.26,0,0,0,1.47-.3,2.06,2.06,0,0,0,.92-.88,2.79,2.79,0,0,0,.32-1.4,2.49,2.49,0,0,0-.83-2,3.53,3.53,0,0,0-2.34-.7H22.09a3.4,3.4,0,0,0-2.3.7,2.48,2.48,0,0,0-.82,2,2.79,2.79,0,0,0,.33,1.4,2.09,2.09,0,0,0,.93.88,3.2,3.2,0,0,0,1.45.3l-3.28.2a4.09,4.09,0,0,1-1.89-1.43,4,4,0,0,1-.71-2.39A5,5,0,0,1,16.54,442.5Z"/><path class="cls-4" d="M31,456.5V460h-15V456.5Zm-5.9,8.87a2.84,2.84,0,0,0,2.08-.72,2.73,2.73,0,0,0,.73-2,2.7,2.7,0,0,0-.68-2A2.61,2.61,0,0,0,25.3,460l3.1-.3a5.41,5.41,0,0,1,2.1,1.7,4.15,4.15,0,0,1,.72,2.43,4.53,4.53,0,0,1-1.59,3.71,6.86,6.86,0,0,1-4.5,1.32H16.05v-3.44Z"/><path class="cls-5" d="M59.58,272.2h1.34v8.12H59.58Zm.63,6.84h4.7v1.28h-4.7Z"/><path class="cls-5" d="M66.24,280a1.73,1.73,0,0,1-.49-1.35,1.63,1.63,0,0,1,.5-1.29,2.27,2.27,0,0,1,1.51-.43h1.55l.08,1H67.76a.9.9,0,0,0-.59.17.63.63,0,0,0-.2.51.62.62,0,0,0,.26.54,1.35,1.35,0,0,0,.77.17,2.53,2.53,0,0,0,1-.13.46.46,0,0,0,.31-.44l.12.83a1.06,1.06,0,0,1-.33.45,1.49,1.49,0,0,1-.58.28,2.75,2.75,0,0,1-.73.09A2.24,2.24,0,0,1,66.24,280Zm3-3.31a1,1,0,0,0-.29-.76,1.13,1.13,0,0,0-.81-.27,2.17,2.17,0,0,0-.66.11,2,2,0,0,0-.58.3l-.89-.75a2.26,2.26,0,0,1,.9-.62,3.16,3.16,0,0,1,1.22-.22,2.88,2.88,0,0,1,1.27.25,1.85,1.85,0,0,1,.8.74,2.34,2.34,0,0,1,.27,1.16v3.73H69.26Z"/><path class="cls-5" d="M71.33,274.52h1.3l1.87,5-.8,1.23Zm5.24,0-2.52,7.16a1.74,1.74,0,0,1-.35.62,1.22,1.22,0,0,1-.54.34,2.85,2.85,0,0,1-.78.1H72.1v-1.29h.28a.81.81,0,0,0,.46-.12.85.85,0,0,0,.29-.4l2.14-6.41Z"/><path class="cls-5" d="M78.31,280.11a2,2,0,0,1-.83-.87,2.85,2.85,0,0,1-.29-1.36v-.94a2.81,2.81,0,0,1,.29-1.35,2,2,0,0,1,.83-.86,2.86,2.86,0,0,1,1.32-.29,2.8,2.8,0,0,1,1.32.29,1.94,1.94,0,0,1,.84.86,2.93,2.93,0,0,1,.29,1.35v1a3,3,0,0,1-.29,1.35,2,2,0,0,1-.84.86,2.8,2.8,0,0,1-1.32.29A2.86,2.86,0,0,1,78.31,280.11Zm2.15-1.31a1.3,1.3,0,0,0,.29-.9v-1a1.3,1.3,0,0,0-.29-.9,1.22,1.22,0,0,0-1.65,0,1.3,1.3,0,0,0-.29.9v1a1.3,1.3,0,0,0,.29.9,1,1,0,0,0,.82.32A1,1,0,0,0,80.46,278.8Z"/><path class="cls-5" d="M84.78,278.05a1.06,1.06,0,0,0,.28.79,1,1,0,0,0,.77.28.93.93,0,0,0,1-1l.08,1.24a1.74,1.74,0,0,1-.56.76,1.53,1.53,0,0,1-1,.3,1.82,1.82,0,0,1-1.46-.61,2.58,2.58,0,0,1-.51-1.72v-3.55h1.33Zm2.08-3.53h1.33v5.8H86.86Z"/><path class="cls-5" d="M89.36,274.52h2.73v1.17H89.36ZM90.3,280a1.68,1.68,0,0,1-.34-1.15v-6h1.33v5.79a.49.49,0,0,0,.09.32.26.26,0,0,0,.24.12h.47v1.28h-.72A1.35,1.35,0,0,1,90.3,280Z"/><path class="cls-5" d="M96.72,272.2h1.33v8.12H96.72Zm.77,6.84h1.89a1.86,1.86,0,0,0,1.28-.41,1.5,1.5,0,0,0,.46-1.18v-2.38a1.5,1.5,0,0,0-.46-1.18,1.86,1.86,0,0,0-1.28-.41H97.49V272.2h1.86a3.85,3.85,0,0,1,1.7.34,2.39,2.39,0,0,1,1.07,1,3.16,3.16,0,0,1,.37,1.58v2.3a3.14,3.14,0,0,1-.36,1.55,2.44,2.44,0,0,1-1.07,1,3.88,3.88,0,0,1-1.72.35H97.49Z"/><path class="cls-5" d="M105.72,280.4l-.58-.3a2,2,0,0,1-.89-.88,3.06,3.06,0,0,1-.31-1.41v-.66a3.25,3.25,0,0,1,.3-1.46,2,2,0,0,1,.85-.93,2.75,2.75,0,0,1,1.35-.32,2.14,2.14,0,0,1,1.27.37,2.3,2.3,0,0,1,.8,1.08,4.5,4.5,0,0,1,.28,1.69V278h-3.94v-1h2.7v-.07a1.68,1.68,0,0,0-.35-.94,1,1,0,0,0-.76-.33,1.17,1.17,0,0,0-.93.37,1.57,1.57,0,0,0-.33,1.07v.74a1.25,1.25,0,0,0,1.36,1.37,1.64,1.64,0,0,0,.65-.13,1.91,1.91,0,0,0,.58-.35l.87.82a3.24,3.24,0,0,1-1,.64,2.93,2.93,0,0,1-1.11.22Z"/><path class="cls-5" d="M111.86,280.4l-.47-.09a4.54,4.54,0,0,1-.88-.29,3.11,3.11,0,0,1-.74-.47l.81-1a3.24,3.24,0,0,0,.9.47,2.7,2.7,0,0,0,.9.17,2,2,0,0,0,.92-.17.51.51,0,0,0,.31-.48.43.43,0,0,0-.15-.36,1,1,0,0,0-.39-.16,6.18,6.18,0,0,0-.67-.08l-.15,0H112a5.09,5.09,0,0,1-1-.19,1.31,1.31,0,0,1-.66-.46,1.52,1.52,0,0,1-.26-1,1.79,1.79,0,0,1,.26-1,1.62,1.62,0,0,1,.78-.62,3.32,3.32,0,0,1,1.26-.21,4.14,4.14,0,0,1,.87.09,3.72,3.72,0,0,1,.82.25,3.77,3.77,0,0,1,.73.41l-.8,1a4.3,4.3,0,0,0-.82-.38,2.94,2.94,0,0,0-.81-.12,1.7,1.7,0,0,0-.8.15.48.48,0,0,0-.27.44.32.32,0,0,0,.15.29.86.86,0,0,0,.38.14c.15,0,.37.05.65.08h.26a6.22,6.22,0,0,1,1.07.18,1.53,1.53,0,0,1,.72.49,1.73,1.73,0,0,1,.29,1.07,1.78,1.78,0,0,1-.28,1,1.71,1.71,0,0,1-.83.64,3.73,3.73,0,0,1-1.34.21Z"/><path class="cls-5" d="M116.13,272.2h1.33v1.33h-1.33Zm0,2.32h1.33v5.8h-1.33Z"/><path class="cls-5" d="M119.78,280.13a1.82,1.82,0,0,1-.67-.84,3.23,3.23,0,0,1-.24-1.31v-1.11a3.5,3.5,0,0,1,.23-1.32,1.86,1.86,0,0,1,.67-.83,1.8,1.8,0,0,1,1-.29,1.59,1.59,0,0,1,.9.27,1.9,1.9,0,0,1,.65.77l-.12,1.24a1.2,1.2,0,0,0-.12-.57.74.74,0,0,0-.34-.36,1.11,1.11,0,0,0-.54-.12,1,1,0,0,0-.77.32,1.39,1.39,0,0,0-.27.91V278a1.33,1.33,0,0,0,.27.89,1,1,0,0,0,.77.32,1.11,1.11,0,0,0,.54-.13.74.74,0,0,0,.34-.36,1.22,1.22,0,0,0,.12-.56l.08,1.27a1.67,1.67,0,0,1-.55.73,1.59,1.59,0,0,1-.93.27A1.94,1.94,0,0,1,119.78,280.13Zm.59,2.55-.53-.25a2,2,0,0,1-.83-.68l.9-.82a1.42,1.42,0,0,0,1.11.54,1.25,1.25,0,0,0,.9-.31,1.15,1.15,0,0,0,.33-.87v-5.77h1.34v5.63a2.87,2.87,0,0,1-.3,1.36,2,2,0,0,1-.87.87,2.93,2.93,0,0,1-1.38.3Z"/><path class="cls-5" d="M125.21,274.52h1.33v5.8h-1.33Zm3.43,2.29a1.09,1.09,0,0,0-.28-.81,1.25,1.25,0,0,0-1.55,0,1,1,0,0,0-.27.75l-.12-1.2a2.26,2.26,0,0,1,.66-.81,1.59,1.59,0,0,1,1-.28,1.76,1.76,0,0,1,1.43.62,2.65,2.65,0,0,1,.51,1.74v3.52h-1.33Z"/><path class="cls-5" d="M60.76,287.89a4.94,4.94,0,0,1-.61.3v1.88c0,.39-.17.59-.5.59l-.34,0-.14-.31h.53a.12.12,0,0,0,.09-.06.21.21,0,0,0,0-.1v-1.84a6.39,6.39,0,0,1-.67.24l-.11-.29a6.9,6.9,0,0,0,.78-.3v-1.45h-.76v-.31h.76v-1.15h.32v1.15h.5v.31h-.5v1.3c.15-.07.32-.15.5-.25Zm1.58,0a4.19,4.19,0,0,1-.27,1.69,3.74,3.74,0,0,1-.85,1.11l-.26-.24a2.62,2.62,0,0,0,1-1.58,12.8,12.8,0,0,1-1.25.45l-.13-.28a13.29,13.29,0,0,0,1.43-.54,7.2,7.2,0,0,0,0-.81H60.86v-.33H62v-1H60.86V286H62v-.95h.31Zm2.24,1.31H63.37v1.5H63v-5.58h.33V286h1.15v.32H63.37v1h1v.33h-1v1.2h1.21Z"/><path class="cls-5" d="M67.53,287H66.35v.43a5.15,5.15,0,0,1,0,.59h1.11v2.62H67.1v-2.3h-.79a5.82,5.82,0,0,1-.68,2.36l-.29-.22a5.88,5.88,0,0,0,.68-3.11v-2.2h.33v1.5h.86v-1.54h.32ZM71,290.41l-.26.25a6.13,6.13,0,0,1-1-1,5.09,5.09,0,0,1-1.24,1l-.22-.28a4.54,4.54,0,0,0,1.26-1,5.64,5.64,0,0,1-.76-2.16h-.21a7.43,7.43,0,0,1-.68,3.38l-.27-.25a6.76,6.76,0,0,0,.64-3.11v-2h2.58v.33H68.58v1.33h2.06a4.76,4.76,0,0,1-.7,2.5A4.45,4.45,0,0,0,71,290.41Zm-.69-3.17H69.08a5.74,5.74,0,0,0,.67,1.88A4.41,4.41,0,0,0,70.29,287.24Z"/><path class="cls-5" d="M74,286.06H71.77v-.33h1a2.3,2.3,0,0,0-.25-.56l.29-.14a3,3,0,0,1,.31.7H74Zm-.18,1.85h-2v-.32h2Zm0-.93H71.9v-.32h1.95Zm-.1,3.53h-.33v-.35H72.27v.47H72v-2.12h1.8Zm-.33-.68v-1H72.27v1Zm3.88.56-.19.27a4.8,4.8,0,0,1-1.49-.73,5.1,5.1,0,0,1-1.52.7l-.2-.27a4.65,4.65,0,0,0,1.44-.65,3.49,3.49,0,0,1-1-1.62h-.21v-.32h2.66v.32a4.32,4.32,0,0,1-1,1.62A5.08,5.08,0,0,0,77.3,290.39Zm0-3h-.61c-.31,0-.46-.15-.46-.44v-1.36H75.08a3.18,3.18,0,0,1-.23,1.3,1.72,1.72,0,0,1-.61.67l-.24-.23a1.66,1.66,0,0,0,.58-.65,3.34,3.34,0,0,0,.18-1.41h1.76v1.59a.19.19,0,0,0,.21.21h.54Zm-.8.7H74.72a3.26,3.26,0,0,0,.89,1.41A3.21,3.21,0,0,0,76.47,288.09Z"/><path class="cls-5" d="M80.76,286.18H78.13v-.33h1.2a3.94,3.94,0,0,0-.38-.68l.32-.13a4.19,4.19,0,0,1,.43.81h1.06Zm-.32.91h-2v-.32h2Zm0,.89h-2v-.31h2Zm0,2.61h-.33v-.31H78.75v.36h-.33v-2.05h2Zm-.33-.65v-1H78.75v1Zm3.56-2.7H82.4v3.41h-.34v-3.41H80.79v-.33h1.27V285.1h.34v1.81h1.27Z"/><path class="cls-5" d="M62.58,312.89h1.34V321H62.58Zm.65,3.69h2.59a1.05,1.05,0,0,0,.57-.15,1,1,0,0,0,.38-.42,1.46,1.46,0,0,0,.14-.63,1.41,1.41,0,0,0-.14-.64.92.92,0,0,0-.38-.42,1,1,0,0,0-.57-.16H63.23v-1.27h2.55a2.64,2.64,0,0,1,1.31.31,2.11,2.11,0,0,1,.88.87,2.76,2.76,0,0,1,.31,1.31,2.71,2.71,0,0,1-.31,1.3,2.23,2.23,0,0,1-.88.87,2.75,2.75,0,0,1-1.31.3H63.23Z"/><path class="cls-5" d="M69.31,315.21H70.7V321H69.31Zm2.9,1.27a1.25,1.25,0,0,0-.45-.08,1,1,0,0,0-.78.3,1.16,1.16,0,0,0-.28.83l-.11-1.31a2,2,0,0,1,.65-.81,1.53,1.53,0,0,1,.89-.29,1.92,1.92,0,0,1,.69.12,1.55,1.55,0,0,1,.53.34l-.81,1.12A.83.83,0,0,0,72.21,316.48Z"/><path class="cls-5" d="M75,320.79a1.94,1.94,0,0,1-.84-.86,3,3,0,0,1-.29-1.37v-.94a3,3,0,0,1,.29-1.35,1.92,1.92,0,0,1,.84-.85,2.68,2.68,0,0,1,1.32-.3,2.74,2.74,0,0,1,1.32.3,2,2,0,0,1,.84.85,3,3,0,0,1,.28,1.35v1a2.93,2.93,0,0,1-.28,1.35,2,2,0,0,1-.84.86,2.74,2.74,0,0,1-1.32.3A2.68,2.68,0,0,1,75,320.79Zm2.14-1.3a1.34,1.34,0,0,0,.29-.91v-1a1.3,1.3,0,0,0-.29-.9,1.06,1.06,0,0,0-.82-.32,1,1,0,0,0-.82.32,1.25,1.25,0,0,0-.29.9v1a1.34,1.34,0,0,0,.28.91,1.08,1.08,0,0,0,.83.32A1.06,1.06,0,0,0,77.18,319.49Z"/><path class="cls-5" d="M81.05,320.81a1.8,1.8,0,0,1-.67-.83,3.24,3.24,0,0,1-.24-1.32v-1.1a3.47,3.47,0,0,1,.23-1.32,1.84,1.84,0,0,1,.67-.84,1.88,1.88,0,0,1,1-.29,1.52,1.52,0,0,1,.9.28,1.9,1.9,0,0,1,.65.77l-.12,1.23a1.26,1.26,0,0,0-.12-.57.84.84,0,0,0-.34-.36,1.11,1.11,0,0,0-.54-.12.94.94,0,0,0-.77.33,1.34,1.34,0,0,0-.27.9v1.09a1.32,1.32,0,0,0,.27.89.94.94,0,0,0,.77.32,1,1,0,0,0,.54-.13.74.74,0,0,0,.34-.36,1.19,1.19,0,0,0,.12-.56l.08,1.27a1.52,1.52,0,0,1-.56.73,1.48,1.48,0,0,1-.92.28A1.94,1.94,0,0,1,81.05,320.81Zm2.47-7.92h1.34V321H83.52Z"/><path class="cls-5" d="M87.81,318.73a1.12,1.12,0,0,0,.27.8,1.07,1.07,0,0,0,.77.28,1,1,0,0,0,.77-.27,1,1,0,0,0,.27-.76L90,320a1.66,1.66,0,0,1-.55.76,1.48,1.48,0,0,1-1,.31,1.84,1.84,0,0,1-1.46-.61,2.61,2.61,0,0,1-.51-1.72v-3.55h1.33Zm2.08-3.52h1.33V321H89.89Z"/><path class="cls-5" d="M94.42,321.09l-.57-.31a2,2,0,0,1-.88-.88,3.06,3.06,0,0,1-.3-1.41v-.79a3,3,0,0,1,.3-1.39,2,2,0,0,1,.88-.88,2.81,2.81,0,0,1,1.38-.31,3.45,3.45,0,0,1,.87.11,2.76,2.76,0,0,1,.74.32,2,2,0,0,1,.55.5l-.91.85a1.58,1.58,0,0,0-.54-.37,1.7,1.7,0,0,0-.64-.13,1.34,1.34,0,0,0-1,.34,1.32,1.32,0,0,0-.34,1v.79a1.19,1.19,0,0,0,1.3,1.32,1.58,1.58,0,0,0,.65-.14,1.49,1.49,0,0,0,.53-.4l.91.91a2.15,2.15,0,0,1-.55.49,2.57,2.57,0,0,1-.74.31,3.45,3.45,0,0,1-.87.11Z"/><path class="cls-5" d="M98.08,315.21h2.73v1.16H98.08Zm.94,5.43a1.67,1.67,0,0,1-.34-1.14v-6H100v5.79a.54.54,0,0,0,.08.33.29.29,0,0,0,.24.11h.47V321h-.72A1.36,1.36,0,0,1,99,320.64Z"/><path class="cls-5" d="M105.33,315.21h1.34v8.15h-1.34Zm1.83,5.62a1.47,1.47,0,0,1-.57-.74l.08-1.26a1.22,1.22,0,0,0,.11.56.82.82,0,0,0,.34.35,1.13,1.13,0,0,0,.54.13,1,1,0,0,0,.78-.32,1.32,1.32,0,0,0,.27-.89v-1.08a1.35,1.35,0,0,0-.27-.91,1,1,0,0,0-.78-.32,1.13,1.13,0,0,0-.54.12.82.82,0,0,0-.34.35,1.26,1.26,0,0,0-.11.57l-.12-1.2a1.9,1.9,0,0,1,.65-.79,1.59,1.59,0,0,1,.89-.28,1.93,1.93,0,0,1,1.06.29,1.78,1.78,0,0,1,.66.83,3.33,3.33,0,0,1,.23,1.33v1.09a3.23,3.23,0,0,1-.23,1.31,1.71,1.71,0,0,1-.68.83,1.91,1.91,0,0,1-1.06.29A1.6,1.6,0,0,1,107.16,320.83Z"/><path class="cls-5" d="M111.55,312.89h1.33V321h-1.33Zm3.43,4.6a1.12,1.12,0,0,0-.27-.8,1.09,1.09,0,0,0-.8-.29,1,1,0,0,0-.76.27,1,1,0,0,0-.27.74l-.11-1.2a2.07,2.07,0,0,1,.66-.81,1.65,1.65,0,0,1,.94-.28,1.77,1.77,0,0,1,1.44.62,2.67,2.67,0,0,1,.51,1.75V321H115Z"/><path class="cls-5" d="M118.9,320.79a1.94,1.94,0,0,1-.84-.86,3,3,0,0,1-.29-1.37v-.94a3,3,0,0,1,.29-1.35,1.92,1.92,0,0,1,.84-.85,2.68,2.68,0,0,1,1.32-.3,2.74,2.74,0,0,1,1.32.3,2,2,0,0,1,.83.85,2.86,2.86,0,0,1,.29,1.35v1a2.81,2.81,0,0,1-.29,1.35,2,2,0,0,1-.83.86,2.74,2.74,0,0,1-1.32.3A2.68,2.68,0,0,1,118.9,320.79Zm2.14-1.3a1.34,1.34,0,0,0,.29-.91v-1a1.3,1.3,0,0,0-.29-.9,1.08,1.08,0,0,0-.82-.32,1,1,0,0,0-.82.32,1.25,1.25,0,0,0-.3.9v1a1.34,1.34,0,0,0,.29.91,1.22,1.22,0,0,0,1.65,0Z"/><path class="cls-5" d="M123.72,315.21h2.73v1.16h-2.73Zm.94,5.43a1.67,1.67,0,0,1-.34-1.14v-6h1.33v5.79a.54.54,0,0,0,.09.33.29.29,0,0,0,.24.11h.47V321h-.72A1.35,1.35,0,0,1,124.66,320.64Z"/><path class="cls-5" d="M128.86,320.79a1.94,1.94,0,0,1-.84-.86,3,3,0,0,1-.29-1.37v-.94a3,3,0,0,1,.29-1.35,1.92,1.92,0,0,1,.84-.85,2.68,2.68,0,0,1,1.32-.3,2.74,2.74,0,0,1,1.32.3,2,2,0,0,1,.83.85,2.86,2.86,0,0,1,.29,1.35v1a2.81,2.81,0,0,1-.29,1.35,2,2,0,0,1-.83.86,2.74,2.74,0,0,1-1.32.3A2.68,2.68,0,0,1,128.86,320.79Zm2.14-1.3a1.34,1.34,0,0,0,.29-.91v-1a1.3,1.3,0,0,0-.29-.9,1.08,1.08,0,0,0-.82-.32,1,1,0,0,0-.82.32,1.25,1.25,0,0,0-.29.9v1a1.34,1.34,0,0,0,.28.91,1.22,1.22,0,0,0,1.65,0Z"/><path class="cls-5" d="M134.87,320.81a1.82,1.82,0,0,1-.68-.83,3.43,3.43,0,0,1-.23-1.32v-1.1a3.47,3.47,0,0,1,.23-1.32,1.78,1.78,0,0,1,.67-.84,1.88,1.88,0,0,1,1-.29,1.52,1.52,0,0,1,.9.28,2,2,0,0,1,.65.77l-.12,1.23a1.26,1.26,0,0,0-.12-.57.9.9,0,0,0-.34-.36,1.13,1.13,0,0,0-.54-.12.94.94,0,0,0-.77.33,1.34,1.34,0,0,0-.27.9v1.09a1.32,1.32,0,0,0,.27.89.94.94,0,0,0,.77.32,1,1,0,0,0,.54-.13.79.79,0,0,0,.34-.36,1.19,1.19,0,0,0,.12-.56l.08,1.27a1.52,1.52,0,0,1-.56.73,1.48,1.48,0,0,1-.92.28A1.94,1.94,0,0,1,134.87,320.81Zm.59,2.55-.53-.24a2,2,0,0,1-.83-.69l.9-.82a1.29,1.29,0,0,0,.5.4,1.33,1.33,0,0,0,.61.14,1.25,1.25,0,0,0,.9-.31,1.12,1.12,0,0,0,.33-.87v-5.76h1.33v5.62a3,3,0,0,1-.29,1.37,2,2,0,0,1-.87.86,3,3,0,0,1-1.38.3Z"/><path class="cls-5" d="M140.29,315.21h1.39V321h-1.39Zm2.9,1.27a1.25,1.25,0,0,0-.45-.08,1,1,0,0,0-.78.3,1.21,1.21,0,0,0-.28.83l-.11-1.31a2,2,0,0,1,.65-.81,1.53,1.53,0,0,1,.89-.29,1.85,1.85,0,0,1,.69.12,1.7,1.7,0,0,1,.54.34l-.82,1.12A.83.83,0,0,0,143.19,316.48Z"/><path class="cls-5" d="M145.39,320.64a1.71,1.71,0,0,1-.5-1.35,1.57,1.57,0,0,1,.51-1.28,2.22,2.22,0,0,1,1.5-.43h1.56l.07,1h-1.62a.9.9,0,0,0-.59.17.6.6,0,0,0-.2.51.59.59,0,0,0,.25.54,1.38,1.38,0,0,0,.78.18,2.53,2.53,0,0,0,.95-.14.47.47,0,0,0,.31-.44l.11.83a.94.94,0,0,1-.33.46,1.67,1.67,0,0,1-.57.27,2.43,2.43,0,0,1-.73.1A2.17,2.17,0,0,1,145.39,320.64Zm3-3.31a1,1,0,0,0-.29-.75,1.13,1.13,0,0,0-.81-.27,2.07,2.07,0,0,0-.66.1,2.12,2.12,0,0,0-.58.3l-.89-.75a2.33,2.33,0,0,1,.89-.62,3.45,3.45,0,0,1,1.23-.22,2.86,2.86,0,0,1,1.26.26,1.74,1.74,0,0,1,.8.74,2.24,2.24,0,0,1,.28,1.16V321h-1.23Z"/><path class="cls-5" d="M151.26,315.21h1.33v8.15h-1.33Zm1.83,5.62a1.47,1.47,0,0,1-.57-.74l.07-1.26a1.22,1.22,0,0,0,.12.56.82.82,0,0,0,.34.35,1.13,1.13,0,0,0,.54.13,1,1,0,0,0,.77-.32,1.27,1.27,0,0,0,.28-.89v-1.08a1.31,1.31,0,0,0-.28-.91.94.94,0,0,0-.77-.32,1.13,1.13,0,0,0-.54.12.82.82,0,0,0-.34.35,1.26,1.26,0,0,0-.12.57l-.11-1.2a1.9,1.9,0,0,1,.65-.79,1.59,1.59,0,0,1,.89-.28,1.93,1.93,0,0,1,1.06.29,1.78,1.78,0,0,1,.66.83,3.33,3.33,0,0,1,.23,1.33v1.09a3.41,3.41,0,0,1-.23,1.31,1.71,1.71,0,0,1-.68.83,1.93,1.93,0,0,1-1.06.29A1.6,1.6,0,0,1,153.09,320.83Z"/><path class="cls-5" d="M157.48,312.89h1.33V321h-1.33Zm3.43,4.6a1.08,1.08,0,0,0-.28-.8,1,1,0,0,0-.79-.29,1,1,0,0,0-.76.27,1,1,0,0,0-.27.74l-.11-1.2a2.07,2.07,0,0,1,.66-.81,1.63,1.63,0,0,1,.94-.28,1.77,1.77,0,0,1,1.44.62,2.67,2.67,0,0,1,.51,1.75V321h-1.34Z"/><path class="cls-5" d="M163.09,315.21h1.3l1.86,5-.8,1.24Zm5.24,0-2.53,7.15a1.89,1.89,0,0,1-.35.63,1.26,1.26,0,0,1-.53.33,2.62,2.62,0,0,1-.79.1h-.28v-1.29h.28a.84.84,0,0,0,.47-.12.81.81,0,0,0,.28-.39l2.15-6.41Z"/><path class="cls-5" d="M67.6,328.39H62.93V329a3.48,3.48,0,0,1-.65,2.34l-.23-.23a2.32,2.32,0,0,0,.41-.8,3.11,3.11,0,0,0,.15-.93v-1.33h5Zm-.16-1.76h-1a2.93,2.93,0,0,1-.68.61,12.16,12.16,0,0,1,1.35.43l-.18.26a11.13,11.13,0,0,0-1.57-.48,6,6,0,0,1-2.25.44L63,327.6a8.85,8.85,0,0,0,1.85-.28c-.49-.12-1-.21-1.49-.29l.15-.26c.66.11,1.26.23,1.81.37a2.69,2.69,0,0,0,.68-.51H62.4v-.31h2.38a2.18,2.18,0,0,0-.27-.44l.29-.13a2.51,2.51,0,0,1,.34.57h2.3Zm.1,4.54H63v-.3h2.19v-.6H63.62V330h1.55v-.56H63.81a2.8,2.8,0,0,1-.5.53l-.2-.27a3.37,3.37,0,0,0,.84-1.09l.3.1c-.08.17-.16.31-.23.43h1.15v-.52h.31v.52h1.75v.3H65.48V330H67.1v.31H65.48v.6h2.06Z"/><path class="cls-5" d="M70.81,331.32h-.33v-.45h-1.4v.45h-.34v-2.78h2.07Zm-.33-.77v-1.68h-1.4v1.68Zm2.67-2.73H69.4v-1.89h3.75Zm-.34-.32v-1.25H69.74v1.25Zm.84,3.82h-.33v-.45H71.9v.45h-.34v-2.78h2.09Zm-.33-.77v-1.68H71.9v1.68Z"/><path class="cls-5" d="M76.38,327.21H75.8v1.39a4.52,4.52,0,0,0,.5-.23l.06.31c-.3.15-.49.23-.56.26v2a.36.36,0,0,1-.13.3,1,1,0,0,1-.52.08h-.26l-.08-.29h.53c.1,0,.14,0,.14-.14v-1.79a5.86,5.86,0,0,1-.67.27l-.09-.29.76-.3v-1.54h-.71v-.3h.71v-1.14h.32v1.14h.58Zm1.87,1.56h-.2v2.56h-.3v-.63q-.63.14-1.44.27l-.06-.3.54-.08v-1.82h-.28v-.29h1.74Zm2-.71h-.68v.26h-.26l-.05-.26H76.51v-.29h.61V326.2H76.6v-.29h3.53v.29h-.58v1.57h.68Zm-2.48,1.1v-.39H77.1v.39Zm0,.67v-.38H77.1v.38Zm0,.57v-.28H77.1v.41C77.37,330.49,77.58,330.44,77.75,330.4Zm1.49-3.88v-.32h-1.8v.32Zm0,.62v-.35h-1.8v.35Zm0,.63v-.36h-1.8v.36Zm1.06,3.05H80v.51h-.31v-.51H78.34v-.28h.29v-1.78h-.2v-.28h1.8v.28H80v1.78h.33Zm-.64-1.66v-.4h-.72v.4Zm0,.67v-.38h-.72v.38Zm0,.71v-.42h-.72v.42Z"/><path class="cls-5" d="M82.26,330.11a4.42,4.42,0,0,1-.92.91l-.23-.25a4.13,4.13,0,0,0,.9-.84Zm2.37-1.88h-3.5v-.31h1.62a2.48,2.48,0,0,0-.18-.39H81.51v-1.62h2.72v1.62H82.94c0,.1.1.23.17.39h1.52Zm-.44,1.49H83.06v1.16a.37.37,0,0,1-.14.33.75.75,0,0,1-.45.1h-.24l-.11-.3h.47c.1,0,.15-.07.15-.19v-1.1H81.58v-1.1h2.61Zm-.29-3.18v-.33H81.84v.33Zm0,.68v-.36H81.84v.36Zm0,2.19v-.5h-2v.5Zm.43,1.38L84,331a5,5,0,0,0-.55-.86l.26-.18A3.89,3.89,0,0,1,84.29,330.79Zm2.43-1.27a6.56,6.56,0,0,1-2.11,1.81l-.2-.28a5.42,5.42,0,0,0,2.06-1.78ZM86.55,326a5.55,5.55,0,0,1-1.84,1.42l-.2-.27a4.75,4.75,0,0,0,1.81-1.38Zm.06,1.72a5.79,5.79,0,0,1-1.9,1.5l-.19-.28a5.78,5.78,0,0,0,1.86-1.45Z"/><path class="cls-5" d="M93,329.87H87.47v-.32H88l0-3.31a5,5,0,0,0,1.27-.46l.15.29a7.73,7.73,0,0,1-1.09.42c0,.28,0,.52,0,.73h1v.32h-1c0,.28,0,.56,0,.83h.92v.32h-.91v.86h3.93c0-.5,0-.78,0-.87h-.87v-.31h.88v-.83h-.88v-.32h.88c0-.18,0-.36,0-.55a2.71,2.71,0,0,0,0-.29h-.86v-.31h1.2q0,2.51-.06,3.48H93Zm-3.4.5a6.48,6.48,0,0,1-1.8,1l-.24-.28a5.59,5.59,0,0,0,1.78-.88Zm.35-2.49a3.36,3.36,0,0,1-.54,1.52l-.28-.21a2.72,2.72,0,0,0,.52-1.38Zm1.13-1.37H90c0,.25-.07.47-.1.67H91a6.86,6.86,0,0,1-.19,1.95.55.55,0,0,1-.52.26h-.27l-.11-.32h.35a.3.3,0,0,0,.32-.2,9.67,9.67,0,0,0,.1-1.38H89.48c.07-.36.17-.95.28-1.75l.3,0c0,.13,0,.28,0,.43h1.06Zm1.84,4.54-.23.23a9.9,9.9,0,0,0-1.75-.89l.23-.24A10.23,10.23,0,0,1,92.91,331.05Z"/><path class="cls-5" d="M99.34,326.55h-1.7l.25.2a5.65,5.65,0,0,1-.35.77H99v3.34a.48.48,0,0,1-.14.34.89.89,0,0,1-.59.13H98l-.11-.33h.63a.13.13,0,0,0,.15-.15v-3H97.36v.56c0,.1,0,.15.17.15h.82v.3h-.94a.39.39,0,0,1-.26-.1.29.29,0,0,1-.13-.22v-.69h-.85a1.28,1.28,0,0,1-.36.82,1.53,1.53,0,0,1-.84.48l-.15-.3c.63-.16,1-.49,1-1H94.57v3.5h-.33v-3.81h1.38a4.29,4.29,0,0,0-.35-.77l.21-.2H93.84v-.31h2.59a2.49,2.49,0,0,0-.21-.44l.34-.1a3.07,3.07,0,0,1,.22.54h2.56Zm-1.46,4.05H95.33v-1.33h2.55Zm-.29-4.05h-2c.17.39.3.71.39,1h1.22A6.74,6.74,0,0,0,97.59,326.55Zm-.06,3.74v-.72H95.66v.72Z"/><path class="cls-5" d="M105.72,329.73h-2.58v1.62h-.34v-1.62h-2.61v-.31h2.61v-.53h-2.33v-.29h2.33v-.5h-2.47v-.31H102a3,3,0,0,0-.35-.5l.24-.15h-1.69v-.32h2.1v-1h.32v1h.72v-1h.31v1h2.06v.32h-1.65l.23.16a2.15,2.15,0,0,1-.32.49h1.61v.31h-2.43v.5h2.28v.29h-2.28v.53h2.58Zm-3.48.49a7.17,7.17,0,0,1-1.82,1l-.21-.28A6.18,6.18,0,0,0,102,330Zm-.6-3.7-.28.16a5.33,5.33,0,0,0-.63-.64l.29-.19A4.21,4.21,0,0,1,101.64,326.52Zm2.33.62h-2a6.6,6.6,0,0,1,.42.65h1.19A2.65,2.65,0,0,0,104,327.14Zm1.75,3.85-.19.26a11.45,11.45,0,0,0-1.85-1l.19-.25A11,11,0,0,1,105.72,331Zm-.51-5a3.08,3.08,0,0,1-.64.66l-.3-.16a4.24,4.24,0,0,0,.64-.64Z"/><path class="cls-5" d="M108.49,327.23a7,7,0,0,1-.62.87v3.25h-.33v-2.86a8,8,0,0,1-.83.76l-.17-.26a7.31,7.31,0,0,0,1.67-1.94Zm-.15-1.26a6,6,0,0,1-1.59,1.32l-.2-.26a5.52,5.52,0,0,0,1.52-1.27Zm3.74,2h-1v2.82a.49.49,0,0,1-.11.33.38.38,0,0,1-.24.14,3.2,3.2,0,0,1-.55,0h-.57l-.13-.34H110a5.23,5.23,0,0,0,.62,0,.11.11,0,0,0,.06-.11V328h-2.23v-.34h3.59Zm-.31-1.61h-3v-.33h3Z"/><path class="cls-5" d="M115.15,326.93l-.26.22a5.05,5.05,0,0,0-.83-.86,7.63,7.63,0,0,1-.73,1h1.51v.3h-.64v.69H115v.29h-.82v2q.1,0,.72-.21v.32a18.85,18.85,0,0,1-2,.53l-.11-.31q.41-.07,1-.24V328.6H113v-.29h.87v-.69h-.6v-.24a2.3,2.3,0,0,1-.22.2l-.22-.24a6.26,6.26,0,0,0,1.16-1.61l.27.16a.56.56,0,0,1-.07.14A6.76,6.76,0,0,1,115.15,326.93Zm-1.56,3.38-.31.09a5.52,5.52,0,0,0-.26-1.26l.29-.11A9.13,9.13,0,0,1,113.59,330.31Zm1.41-1.2a7,7,0,0,1-.26,1.09l-.31-.09a4.47,4.47,0,0,0,.28-1.08Zm3.12,1.79a.36.36,0,0,1-.14.32,1.1,1.1,0,0,1-.58.1H117l-.11-.33h.56a.76.76,0,0,0,.27,0,.09.09,0,0,0,.05-.09V329.5c-.59.3-1.25.61-2,.93l-.17-.23a3.63,3.63,0,0,1-.47,1.13l-.27-.21a3.76,3.76,0,0,0,.52-2.14v-1.31h1.18v-1.9h.32v1.9h1.22Zm-2.05-3.71-.29.15a5.55,5.55,0,0,0-.59-1.25l.29-.17A6,6,0,0,1,116.07,327.19Zm1.72,2V328h-2.06v.52a7.63,7.63,0,0,1,1.73.23l-.11.31a7.83,7.83,0,0,0-1.62-.22,8.53,8.53,0,0,1-.1,1.31A17.38,17.38,0,0,0,117.79,329.16Zm.58-3.09a6.58,6.58,0,0,1-.72,1.25l-.29-.17a6.25,6.25,0,0,0,.73-1.25Z"/></g></g></svg>