<svg xmlns="http://www.w3.org/2000/svg" viewBox="0 0 191.11 509.87"><defs><style>.cls-1{fill:#282828;}.cls-2{fill:none;stroke:#5fc1c7;stroke-miterlimit:10;}.cls-3{font-size:10.68px;font-family:MicrosoftJhengHeiBold, Microsoft JhengHei;font-weight:700;}.cls-3,.cls-4{fill:#fff;}.cls-5{fill:#5fc1c7;}</style></defs><title>Illustrate0</title><g id="圖層_2" data-name="圖層 2"><g id="圖層_3" data-name="圖層 3"><polygon class="cls-1" points="109.04 0 109.04 160.72 82.07 160.72 82.07 0 0 0 0 509.87 191.11 509.87 191.11 0 109.04 0"/><line class="cls-2" x1="125.17" y1="464.68" x2="176.17" y2="464.68"/><text class="cls-3" transform="translate(58.63 468.04)">插畫</text><path class="cls-4" d="M15.65,356.46v-3.52h21v3.52Z"/><path class="cls-4" d="M20.05,364.37a1.22,1.22,0,0,0-.85.28,1,1,0,0,0-.29.78v1h-3.3v-1.87a3.45,3.45,0,0,1,1-2.69,4.13,4.13,0,0,1,2.92-1h17v3.44Z"/><path class="cls-4" d="M20.05,372.92a1.18,1.18,0,0,0-.85.28,1,1,0,0,0-.29.77v1h-3.3v-1.88a3.44,3.44,0,0,1,1-2.68,4.13,4.13,0,0,1,2.92-1h17v3.44Z"/><path class="cls-4" d="M21.52,381.32a2.85,2.85,0,0,0-2.06.71,3.15,3.15,0,0,0,0,4,2.62,2.62,0,0,0,2,.7l-3.2.2a4.43,4.43,0,0,1-2-1.44,3.89,3.89,0,0,1-.79-2.47A4.67,4.67,0,0,1,17,379.21a6.63,6.63,0,0,1,4.44-1.33h9.16v3.44Zm9.09,5.37v3.43h-15v-3.43Z"/><path class="cls-4" d="M15.44,398.46l.25-1.21a10.41,10.41,0,0,1,.74-2.27,9.07,9.07,0,0,1,1.2-1.91l2.59,2.09A9.15,9.15,0,0,0,19,397.49a6.89,6.89,0,0,0-.42,2.31,5.36,5.36,0,0,0,.42,2.39,1.35,1.35,0,0,0,1.24.81,1.07,1.07,0,0,0,.92-.4,2.37,2.37,0,0,0,.43-1c.08-.41.15-1,.22-1.72l0-.39a2.58,2.58,0,0,1,0-.39.37.37,0,0,1,0-.11v-.12a14.31,14.31,0,0,1,.49-2.58,3.28,3.28,0,0,1,1.19-1.69,4,4,0,0,1,2.52-.69,4.67,4.67,0,0,1,2.6.69,4.11,4.11,0,0,1,1.6,2,8.65,8.65,0,0,1,.54,3.26,11.9,11.9,0,0,1-.22,2.24,11.38,11.38,0,0,1-.65,2.1,10.72,10.72,0,0,1-1.06,1.9L26.39,404a10.34,10.34,0,0,0,1-2.13,7.09,7.09,0,0,0,.33-2.08,4.33,4.33,0,0,0-.39-2.06,1.26,1.26,0,0,0-1.15-.71.84.84,0,0,0-.75.39,2.42,2.42,0,0,0-.36,1c-.06.39-.13,1-.19,1.7a1.64,1.64,0,0,0,0,.22l0,.22v.1a.49.49,0,0,1,0,.12,15,15,0,0,1-.48,2.75,3.66,3.66,0,0,1-1.26,1.86,4.26,4.26,0,0,1-2.74.76,4.76,4.76,0,0,1-2.68-.72A4.4,4.4,0,0,1,16,403.28a9.55,9.55,0,0,1-.55-3.48Z"/><path class="cls-4" d="M16.58,410.87a4.41,4.41,0,0,1,3-.88H35v3.45H20a1.41,1.41,0,0,0-.84.21.75.75,0,0,0-.3.64v1.2h-3.3v-1.85A3.5,3.5,0,0,1,16.58,410.87Zm14-2.42v7h-3v-7Z"/><path class="cls-4" d="M30.61,419.23v3.59h-15v-3.59Zm-3.28,7.48a3.16,3.16,0,0,0,.2-1.16,2.6,2.6,0,0,0-.77-2,3,3,0,0,0-2.14-.72l3.38-.3a5.38,5.38,0,0,1,2.09,1.69,3.92,3.92,0,0,1,.74,2.3,4.94,4.94,0,0,1-.3,1.77,3.8,3.8,0,0,1-.87,1.39l-2.9-2.11A2.2,2.2,0,0,0,27.33,426.71Z"/><path class="cls-4" d="M16.58,432.39a4.46,4.46,0,0,1,3.48-1.28,4.13,4.13,0,0,1,3.33,1.3,5.84,5.84,0,0,1,1.11,3.89v4l-2.68.21v-4.2a2.31,2.31,0,0,0-.43-1.53,1.65,1.65,0,0,0-1.33-.51,1.57,1.57,0,0,0-1.39.66,3.59,3.59,0,0,0-.45,2,6.22,6.22,0,0,0,.36,2.44,1.18,1.18,0,0,0,1.12.81l-2.13.3a2.52,2.52,0,0,1-1.18-.86,4.17,4.17,0,0,1-.72-1.48,7.41,7.41,0,0,1-.23-1.89A5.69,5.69,0,0,1,16.58,432.39Zm8.56,7.79a2.51,2.51,0,0,0,1.94-.75,2.94,2.94,0,0,0,.69-2.09,5.56,5.56,0,0,0-.27-1.71,5.37,5.37,0,0,0-.76-1.49l1.93-2.3a5.89,5.89,0,0,1,1.59,2.31,8.48,8.48,0,0,1,.57,3.17,7.37,7.37,0,0,1-.66,3.26,4.66,4.66,0,0,1-1.9,2.07,6,6,0,0,1-3,.71H15.65v-3.18Z"/><path class="cls-4" d="M16.58,448.81a4.36,4.36,0,0,1,3-.88H35v3.44H20a1.4,1.4,0,0,0-.84.22.73.73,0,0,0-.3.63v1.2h-3.3v-1.84A3.49,3.49,0,0,1,16.58,448.81Zm14-2.42v7h-3v-7Z"/><path class="cls-4" d="M15.44,461.32l.77-1.5a5.28,5.28,0,0,1,2.29-2.29,7.71,7.71,0,0,1,3.64-.79h1.69a8.77,8.77,0,0,1,3.79.75A5.39,5.39,0,0,1,30,459.7a6.89,6.89,0,0,1,.82,3.48,5.55,5.55,0,0,1-1,3.28,5.87,5.87,0,0,1-2.77,2.07,11.94,11.94,0,0,1-4.39.72h-1V459.09h2.53v7l.16,0a4.22,4.22,0,0,0,2.43-.88,2.44,2.44,0,0,0,.87-2,3,3,0,0,0-1-2.41,4.1,4.1,0,0,0-2.76-.85h-1.9a3.57,3.57,0,0,0-2.62.92,3.54,3.54,0,0,0-.91,2.6,4.68,4.68,0,0,0,.32,1.68,5.25,5.25,0,0,0,.9,1.49l-2.1,2.25A8.38,8.38,0,0,1,16,466.3a7.46,7.46,0,0,1-.58-2.86Z"/><path class="cls-5" d="M60.89,360.41H59.53V352.3h1.36Z"/><path class="cls-5" d="M64,358.71a.48.48,0,0,0,.1.33.41.41,0,0,0,.3.11h.4v1.28H64a1.35,1.35,0,0,1-1-.4,1.6,1.6,0,0,1-.37-1.13v-6.6H64Z"/><path class="cls-5" d="M67.27,358.71a.48.48,0,0,0,.1.33.41.41,0,0,0,.3.11h.4v1.28h-.73a1.35,1.35,0,0,1-1-.4,1.65,1.65,0,0,1-.37-1.13v-6.6h1.34Z"/><path class="cls-5" d="M70.52,358.14a1.12,1.12,0,0,0,.27.8,1.08,1.08,0,0,0,.78.28,1,1,0,0,0,.76-.27,1,1,0,0,0,.27-.76l.08,1.24a1.68,1.68,0,0,1-.56.76,1.48,1.48,0,0,1-1,.31,1.84,1.84,0,0,1-1.46-.61,2.61,2.61,0,0,1-.51-1.72v-3.55h1.33Zm2.08-3.52h1.33v5.79H72.6Z"/><path class="cls-5" d="M77.16,360.5l-.47-.1a4.13,4.13,0,0,1-.88-.29,3.29,3.29,0,0,1-.74-.46l.81-1a3.94,3.94,0,0,0,.9.48,2.67,2.67,0,0,0,.9.16,2.05,2.05,0,0,0,.92-.16.52.52,0,0,0,.32-.48.41.41,0,0,0-.16-.36.87.87,0,0,0-.39-.17c-.16,0-.38-.05-.67-.08h-.15l-.15,0h-.09a6.16,6.16,0,0,1-1-.19,1.24,1.24,0,0,1-.65-.46,1.55,1.55,0,0,1-.27-1,1.81,1.81,0,0,1,.27-1,1.6,1.6,0,0,1,.77-.62,3.42,3.42,0,0,1,1.27-.2,4.27,4.27,0,0,1,.87.08,4.47,4.47,0,0,1,.81.25,4,4,0,0,1,.73.41l-.79,1a4.32,4.32,0,0,0-.83-.37,2.59,2.59,0,0,0-.81-.13,1.65,1.65,0,0,0-.79.15.48.48,0,0,0-.28.45.33.33,0,0,0,.15.29,1,1,0,0,0,.38.14c.15,0,.37.05.66.07h.25a7,7,0,0,1,1.07.19,1.4,1.4,0,0,1,.72.49,1.63,1.63,0,0,1,.3,1.06,1.9,1.9,0,0,1-.28,1,1.73,1.73,0,0,1-.83.63,3.6,3.6,0,0,1-1.35.22Z"/><path class="cls-5" d="M81,354.62h2.72v1.17H81Zm.94,5.43a1.67,1.67,0,0,1-.34-1.14v-6H83v5.79a.62.62,0,0,0,.08.33.31.31,0,0,0,.25.11h.46v1.28H83A1.33,1.33,0,0,1,82,360.05Z"/><path class="cls-5" d="M85.21,354.62H86.6v5.79H85.21Zm2.89,1.27a1.25,1.25,0,0,0-.45-.08,1,1,0,0,0-.78.3,1.2,1.2,0,0,0-.27.83l-.12-1.31a2.07,2.07,0,0,1,.66-.81,1.49,1.49,0,0,1,.89-.28,1.83,1.83,0,0,1,.68.11,1.5,1.5,0,0,1,.54.34l-.82,1.12A.83.83,0,0,0,88.1,355.89Z"/><path class="cls-5" d="M90.3,360.05a1.69,1.69,0,0,1-.49-1.34,1.57,1.57,0,0,1,.5-1.29,2.25,2.25,0,0,1,1.51-.43h1.55l.08,1H91.82a.9.9,0,0,0-.59.17.64.64,0,0,0-.2.52.59.59,0,0,0,.26.53,1.35,1.35,0,0,0,.77.18,2.5,2.5,0,0,0,1-.14.45.45,0,0,0,.31-.44l.12.83a1,1,0,0,1-.34.46,1.69,1.69,0,0,1-.57.28,2.81,2.81,0,0,1-.73.09A2.19,2.19,0,0,1,90.3,360.05Zm3-3.31A1,1,0,0,0,93,356a1.13,1.13,0,0,0-.81-.27,2.16,2.16,0,0,0-.66.1,2.12,2.12,0,0,0-.58.3l-.89-.75a2.37,2.37,0,0,1,.9-.62,3.36,3.36,0,0,1,1.22-.21,2.91,2.91,0,0,1,1.27.25,1.79,1.79,0,0,1,.8.74,2.34,2.34,0,0,1,.27,1.16v3.72H93.32Z"/><path class="cls-5" d="M95.72,354.62h2.73v1.17H95.72Zm.94,5.43a1.72,1.72,0,0,1-.34-1.14v-6h1.34v5.79a.54.54,0,0,0,.08.33.31.31,0,0,0,.25.11h.46v1.28h-.72A1.36,1.36,0,0,1,96.66,360.05Z"/><path class="cls-5" d="M101.51,360.5l-.58-.3a2.07,2.07,0,0,1-.89-.89,3.06,3.06,0,0,1-.31-1.41v-.65a3.29,3.29,0,0,1,.3-1.47,2.08,2.08,0,0,1,.85-.93,2.72,2.72,0,0,1,1.35-.31,2.12,2.12,0,0,1,1.27.37,2.22,2.22,0,0,1,.8,1.07,4.55,4.55,0,0,1,.28,1.7v.38h-3.94v-1h2.7V357a1.65,1.65,0,0,0-.35-.94.91.91,0,0,0-.76-.34,1.18,1.18,0,0,0-.93.38,1.57,1.57,0,0,0-.33,1.07v.73a1.24,1.24,0,0,0,1.36,1.37,1.82,1.82,0,0,0,.65-.12,2,2,0,0,0,.58-.35l.87.81a3.06,3.06,0,0,1-1,.64,2.94,2.94,0,0,1-1.11.23Z"/><path class="cls-5" d="M60.81,368a4.18,4.18,0,0,1-.6.3v2a.41.41,0,0,1-.12.31.71.71,0,0,1-.49.12h-.33l-.08-.34a4.5,4.5,0,0,0,.53,0c.1,0,.15,0,.15-.13v-1.81l-.73.29-.1-.32a8.66,8.66,0,0,0,.83-.32v-1.48h-.79v-.33h.79v-1.12h.34v1.12h.52v.33h-.52V368c.25-.12.44-.2.55-.27Zm3.79-1.17H62.91v3.23h1.14v-1H63.2v-.32h.85v-.91h-.86v-.32h1.18v3.17h-.32v-.34H61.44v.34h-.33v-2.86a6.31,6.31,0,0,0,1-.52l.18.27a4.44,4.44,0,0,1-.83.45v.72h.84v.32h-.84v1h1.15v-3.23H61v-.3h1.59v-.88H61.17v-.33h3.29v.33H62.91v.88H64.6Z"/><path class="cls-5" d="M70.93,368.2H65.41V368H68v-.36H65.86v-.25H68V367H66v-.24h2v-.36H65.44v-.24H68v-.35H66v-.24h2v-.35h.31v.35h2v.59h.62v.24h-.62v.6h-2v.36h2.15v.25H68.33V368h2.6Zm0,2.47H65.41v-.25h5.52Zm-.68-.65H66.07v-1.47h4.18ZM68,369.17v-.38H66.39v.38Zm0,.61v-.38H66.39v.38ZM70,366.14v-.35H68.33v.35Zm0,.6v-.36H68.33v.36Zm0,2.43v-.38h-1.6v.38Zm0,.61v-.38h-1.6v.38Z"/></g></g></svg>