<svg xmlns="http://www.w3.org/2000/svg" viewBox="0 0 191.11 509.87"><defs><style>.cls-1{fill:#282828;}.cls-2{fill:none;stroke:#5fc1c7;stroke-miterlimit:10;}.cls-3{font-size:10.68px;font-family:MicrosoftJhengHeiBold, Microsoft JhengHei;font-weight:700;}.cls-3,.cls-4{fill:#fff;}.cls-5{fill:#5fc1c7;}</style></defs><title>Package Design0</title><g id="圖層_2" data-name="圖層 2"><g id="圖層_3" data-name="圖層 3"><path class="cls-1" d="M114.51,70.14A20,20,0,0,0,122,61.79a27.5,27.5,0,0,0,2.71-12.49,28.43,28.43,0,0,0-2.65-12.6,19.88,19.88,0,0,0-7.52-8.4,21.12,21.12,0,0,0-11.28-3H65.6V73.07h37.69A21.14,21.14,0,0,0,114.51,70.14Z"/><path class="cls-1" d="M102.52,0q14.7,0,25.87,6.14a43.29,43.29,0,0,1,17.35,17.29q6.19,11.17,6.19,25.87t-6.19,25.81A43,43,0,0,1,128.39,92.3q-11.17,6.08-25.87,6.08H65.6v62.34H39.18V0H0V509.87H191.11V0Z"/><line class="cls-2" x1="125.17" y1="464.68" x2="176.17" y2="464.68"/><text class="cls-3" transform="translate(58.63 468.04)">包裝設計</text><path class="cls-4" d="M36.61,263.91v3.45h-21v-3.45Zm-9.53,1.66v6.7a2.74,2.74,0,0,0,.39,1.47,2.55,2.55,0,0,0,1.08,1,3.56,3.56,0,0,0,1.63.36,3.74,3.74,0,0,0,1.65-.35,2.59,2.59,0,0,0,1.09-1,2.74,2.74,0,0,0,.39-1.47v-6.7h3.3v6.6a6.91,6.91,0,0,1-.8,3.37,5.65,5.65,0,0,1-2.25,2.27,7,7,0,0,1-3.38.8,6.84,6.84,0,0,1-3.36-.8,5.56,5.56,0,0,1-2.24-2.27,6.91,6.91,0,0,1-.8-3.37v-6.6Z"/><path class="cls-4" d="M16.58,281.84a4.46,4.46,0,0,1,3.48-1.28,4.13,4.13,0,0,1,3.33,1.3,5.84,5.84,0,0,1,1.11,3.89v4l-2.68.2v-4.2a2.31,2.31,0,0,0-.43-1.53,1.65,1.65,0,0,0-1.33-.51,1.58,1.58,0,0,0-1.39.66,3.59,3.59,0,0,0-.45,2,6.31,6.31,0,0,0,.36,2.45,1.18,1.18,0,0,0,1.12.8l-2.13.3a2.57,2.57,0,0,1-1.18-.86,4,4,0,0,1-.71-1.48,7,7,0,0,1-.24-1.89A5.69,5.69,0,0,1,16.58,281.84Zm8.56,7.79a2.51,2.51,0,0,0,1.94-.75,3,3,0,0,0,.7-2.09,5.46,5.46,0,0,0-.28-1.7,5.29,5.29,0,0,0-.76-1.5l1.93-2.3a5.89,5.89,0,0,1,1.59,2.31,8.48,8.48,0,0,1,.57,3.17,7.52,7.52,0,0,1-.65,3.26,4.73,4.73,0,0,1-1.91,2.07,6,6,0,0,1-3,.71H15.65v-3.18Z"/><path class="cls-4" d="M15.44,301.08l.78-1.48a5.29,5.29,0,0,1,2.3-2.26,7.79,7.79,0,0,1,3.63-.78h2a7.64,7.64,0,0,1,3.59.78,5.22,5.22,0,0,1,2.27,2.26,7.59,7.59,0,0,1,.78,3.57,8.69,8.69,0,0,1-.28,2.26,6.94,6.94,0,0,1-.81,1.9,5.17,5.17,0,0,1-1.3,1.41l-2.19-2.34A4,4,0,0,0,27.2,305a4.28,4.28,0,0,0,.33-1.66,3.39,3.39,0,0,0-.87-2.48,3.36,3.36,0,0,0-2.47-.88h-2a3.45,3.45,0,0,0-2.53.88,3.32,3.32,0,0,0-.88,2.48,4,4,0,0,0,1.38,3l-2.33,2.34a5.45,5.45,0,0,1-1.28-1.42,6.75,6.75,0,0,1-.8-1.9,9.13,9.13,0,0,1-.27-2.25Z"/><path class="cls-4" d="M36.61,311.69v3.45h-21v-3.45Zm-12.77,5.06,2,2.58-10.15,5.81v-3.88Zm-2.65-3.5,9.42,7.34v3.82l-13.34-11Z"/><path class="cls-4" d="M16.58,327.87a4.43,4.43,0,0,1,3.48-1.29,4.13,4.13,0,0,1,3.33,1.3,5.84,5.84,0,0,1,1.11,3.89v4l-2.68.2v-4.2a2.31,2.31,0,0,0-.43-1.53,1.65,1.65,0,0,0-1.33-.51,1.58,1.58,0,0,0-1.39.66,3.6,3.6,0,0,0-.45,2,6.26,6.26,0,0,0,.36,2.44,1.18,1.18,0,0,0,1.12.8l-2.13.3a2.5,2.5,0,0,1-1.18-.86,4,4,0,0,1-.71-1.47,7.09,7.09,0,0,1-.24-1.89A5.65,5.65,0,0,1,16.58,327.87Zm8.56,7.78a2.54,2.54,0,0,0,1.94-.74,3,3,0,0,0,.7-2.1,5.46,5.46,0,0,0-.28-1.7,5.29,5.29,0,0,0-.76-1.5l1.93-2.29a5.78,5.78,0,0,1,1.59,2.3,8.48,8.48,0,0,1,.57,3.17,7.52,7.52,0,0,1-.65,3.26,4.73,4.73,0,0,1-1.91,2.07,5.89,5.89,0,0,1-3,.71H15.65v-3.18Z"/><path class="cls-4" d="M9.57,346.44l.63-1.37A5,5,0,0,1,12,342.94l2.12,2.32a3.67,3.67,0,0,0-1.39,2.87,3.26,3.26,0,0,0,.79,2.32,3,3,0,0,0,2.26.85H30.61v3.45H16.1a7.45,7.45,0,0,1-3.53-.78,5.08,5.08,0,0,1-2.23-2.24,7.67,7.67,0,0,1-.77-3.56Zm6.58-1.52a4.68,4.68,0,0,1,2.15-1.74,8.64,8.64,0,0,1,3.39-.6h2.86a9,9,0,0,1,3.41.59,4.74,4.74,0,0,1,2.16,1.72,4.9,4.9,0,0,1,.74,2.72,4,4,0,0,1-.71,2.31,4.94,4.94,0,0,1-2,1.68L25,351.3a3.26,3.26,0,0,0,1.47-.3,2.12,2.12,0,0,0,.92-.88,2.9,2.9,0,0,0,.32-1.4,2.46,2.46,0,0,0-.84-2,3.49,3.49,0,0,0-2.33-.7H21.69a3.42,3.42,0,0,0-2.3.7,2.51,2.51,0,0,0-.81,2,2.9,2.9,0,0,0,.32,1.4,2.2,2.2,0,0,0,.93.88,3.28,3.28,0,0,0,1.46.3l-3.29.2a4.11,4.11,0,0,1-1.88-1.43,4,4,0,0,1-.71-2.39A5,5,0,0,1,16.15,344.92Z"/><path class="cls-4" d="M15.44,363.08l.78-1.5a5.2,5.2,0,0,1,2.28-2.29,7.71,7.71,0,0,1,3.64-.8h1.69a8.74,8.74,0,0,1,3.79.76,5.37,5.37,0,0,1,2.39,2.2,7,7,0,0,1,.82,3.49,5.57,5.57,0,0,1-1,3.28,5.93,5.93,0,0,1-2.77,2.07,11.9,11.9,0,0,1-4.38.71h-1V360.84h2.52v7h.16a4.29,4.29,0,0,0,2.43-.88,2.45,2.45,0,0,0,.87-2,3,3,0,0,0-1-2.41,4,4,0,0,0-2.76-.85h-1.9a3.53,3.53,0,0,0-2.61.92,3.54,3.54,0,0,0-.92,2.6,4.48,4.48,0,0,0,.33,1.67,4.87,4.87,0,0,0,.9,1.5l-2.11,2.25A8.51,8.51,0,0,1,16,368.06a7.46,7.46,0,0,1-.58-2.86Z"/><path class="cls-4" d="M36.61,383v3.44h-21V383ZM19,385v4.88A4.76,4.76,0,0,0,20,393.15a3.89,3.89,0,0,0,3,1.17h6.17a3.88,3.88,0,0,0,3-1.17,4.76,4.76,0,0,0,1.07-3.31V385h3.3v4.8a10,10,0,0,1-.88,4.39,6.2,6.2,0,0,1-2.56,2.77,8.22,8.22,0,0,1-4.07.95H23.16a8,8,0,0,1-4-.94,6.21,6.21,0,0,1-2.6-2.76,9.91,9.91,0,0,1-.91-4.43V385Z"/><path class="cls-4" d="M15.44,406.2l.78-1.5a5.25,5.25,0,0,1,2.28-2.29,7.71,7.71,0,0,1,3.64-.79h1.69a8.74,8.74,0,0,1,3.79.75A5.45,5.45,0,0,1,30,404.58a6.94,6.94,0,0,1,.82,3.48,5.55,5.55,0,0,1-1,3.28,6,6,0,0,1-2.77,2.08,12.11,12.11,0,0,1-4.38.71h-1V404h2.52v7l.16,0a4.22,4.22,0,0,0,2.43-.87,2.46,2.46,0,0,0,.87-2,3,3,0,0,0-1-2.41A4.07,4.07,0,0,0,24,404.8h-1.9a3.21,3.21,0,0,0-3.53,3.52,4.49,4.49,0,0,0,.33,1.68,4.83,4.83,0,0,0,.9,1.49l-2.11,2.25A8.38,8.38,0,0,1,16,411.18a7.42,7.42,0,0,1-.58-2.86Z"/><path class="cls-4" d="M15.44,422s.08-.4.25-1.21a10.41,10.41,0,0,1,.74-2.27,9.07,9.07,0,0,1,1.2-1.91l2.59,2.09A9.83,9.83,0,0,0,19,421.07a6.89,6.89,0,0,0-.42,2.31,5.23,5.23,0,0,0,.43,2.39,1.33,1.33,0,0,0,1.23.81,1.1,1.1,0,0,0,.93-.4,2.36,2.36,0,0,0,.42-1c.08-.41.15-1,.22-1.72l0-.39c0-.13,0-.26,0-.39a.37.37,0,0,1,0-.11s0-.08,0-.12a13.57,13.57,0,0,1,.48-2.58,3.28,3.28,0,0,1,1.19-1.69,4,4,0,0,1,2.52-.69,4.67,4.67,0,0,1,2.6.69,4.11,4.11,0,0,1,1.6,2,8.65,8.65,0,0,1,.54,3.26,11.12,11.12,0,0,1-.22,2.24,11.38,11.38,0,0,1-.65,2.1,10.12,10.12,0,0,1-1.06,1.9l-2.51-2.06a9.84,9.84,0,0,0,1-2.13,7.09,7.09,0,0,0,.33-2.08,4.33,4.33,0,0,0-.39-2.06,1.25,1.25,0,0,0-1.15-.71.84.84,0,0,0-.75.39,2.42,2.42,0,0,0-.36,1c-.06.39-.12,1-.19,1.7a1.64,1.64,0,0,0,0,.22c0,.07,0,.14,0,.22v.1a.5.5,0,0,1,0,.12,15.09,15.09,0,0,1-.47,2.75A3.79,3.79,0,0,1,23.06,429a4.29,4.29,0,0,1-2.75.76,4.71,4.71,0,0,1-2.67-.72A4.35,4.35,0,0,1,16,426.86a9.55,9.55,0,0,1-.55-3.48Z"/><path class="cls-4" d="M30.61,433.08v3.43h-15v-3.43Zm6,0v3.43H33.17v-3.43Z"/><path class="cls-4" d="M9.57,444l.63-1.37A5,5,0,0,1,12,440.52l2.12,2.32a3.67,3.67,0,0,0-1.39,2.87,3.26,3.26,0,0,0,.79,2.32,3,3,0,0,0,2.26.85H30.61v3.44H16.1a7.45,7.45,0,0,1-3.53-.77,5.08,5.08,0,0,1-2.23-2.24,7.67,7.67,0,0,1-.77-3.56Zm6.58-1.52a4.68,4.68,0,0,1,2.15-1.74,8.64,8.64,0,0,1,3.39-.6h2.86a9,9,0,0,1,3.41.59,4.67,4.67,0,0,1,2.16,1.72,4.9,4.9,0,0,1,.74,2.72,4,4,0,0,1-.71,2.31,4.94,4.94,0,0,1-2,1.68l-3.18-.3a3.26,3.26,0,0,0,1.47-.3,2.12,2.12,0,0,0,.92-.88,2.9,2.9,0,0,0,.32-1.4,2.45,2.45,0,0,0-.84-2,3.49,3.49,0,0,0-2.33-.71H21.69a3.42,3.42,0,0,0-2.3.71,2.49,2.49,0,0,0-.81,2,2.9,2.9,0,0,0,.32,1.4,2.2,2.2,0,0,0,.93.88,3.28,3.28,0,0,0,1.46.3l-3.29.2a4.11,4.11,0,0,1-1.88-1.43,4,4,0,0,1-.71-2.39A5,5,0,0,1,16.15,442.5Z"/><path class="cls-4" d="M30.61,456.5V460h-15V456.5Zm-5.89,8.87a2.86,2.86,0,0,0,2.08-.72,2.73,2.73,0,0,0,.73-2,2.7,2.7,0,0,0-.68-2,2.63,2.63,0,0,0-1.94-.69l3.1-.3a5.34,5.34,0,0,1,2.1,1.71,4.1,4.1,0,0,1,.72,2.42,4.53,4.53,0,0,1-1.59,3.71,6.87,6.87,0,0,1-4.51,1.32H15.65v-3.44Z"/><path class="cls-5" d="M59.58,263.12h1.34v8.12H59.58Zm.65,3.69h2.59a1.05,1.05,0,0,0,.57-.15,1,1,0,0,0,.38-.42,1.39,1.39,0,0,0,.13-.63,1.47,1.47,0,0,0-.13-.64,1,1,0,0,0-.38-.42,1.05,1.05,0,0,0-.57-.15H60.23v-1.28h2.55a2.64,2.64,0,0,1,1.31.31,2.23,2.23,0,0,1,.88.87,2.78,2.78,0,0,1,.31,1.31,2.69,2.69,0,0,1-.31,1.3,2.11,2.11,0,0,1-.88.87,2.64,2.64,0,0,1-1.31.31H60.23Z"/><path class="cls-5" d="M66.53,270.88a1.74,1.74,0,0,1-.5-1.35,1.6,1.6,0,0,1,.51-1.29,2.22,2.22,0,0,1,1.5-.43h1.55l.08,1H68.05a.88.88,0,0,0-.6.17.63.63,0,0,0-.19.51.61.61,0,0,0,.25.54,1.37,1.37,0,0,0,.78.17,2.26,2.26,0,0,0,.94-.14.44.44,0,0,0,.31-.43l.12.83a.92.92,0,0,1-.33.45,1.52,1.52,0,0,1-.57.28,2.86,2.86,0,0,1-.73.09A2.22,2.22,0,0,1,66.53,270.88Zm3-3.32a1,1,0,0,0-.28-.75,1.18,1.18,0,0,0-.82-.27,2.06,2.06,0,0,0-.65.11,2.1,2.1,0,0,0-.58.29l-.89-.74a2.16,2.16,0,0,1,.89-.62,3.24,3.24,0,0,1,1.23-.22,2.86,2.86,0,0,1,1.26.25,1.8,1.8,0,0,1,.8.74,2.24,2.24,0,0,1,.28,1.16v3.73H69.54Z"/><path class="cls-5" d="M74,271.32l-.57-.3a2,2,0,0,1-.88-.89,3.06,3.06,0,0,1-.3-1.41v-.79a3,3,0,0,1,.3-1.39,2,2,0,0,1,.88-.88,2.93,2.93,0,0,1,1.38-.3,3.6,3.6,0,0,1,.88.11,2.68,2.68,0,0,1,.73.31,2.06,2.06,0,0,1,.55.51l-.91.84a1.47,1.47,0,0,0-.53-.36,1.59,1.59,0,0,0-.64-.13,1.2,1.2,0,0,0-1.31,1.29v.79a1.37,1.37,0,0,0,.34,1,1.3,1.3,0,0,0,1,.34,1.42,1.42,0,0,0,.64-.14,1.46,1.46,0,0,0,.53-.39l.91.9a2,2,0,0,1-.55.5,2.89,2.89,0,0,1-.74.31,3.46,3.46,0,0,1-.87.1Z"/><path class="cls-5" d="M78.09,263.12h1.34v8.12H78.09Zm.61,6,2.84-3.65H83l-4.26,5.17Zm1.35-1,1-.76,2.25,3.93H81.8Z"/><path class="cls-5" d="M84.36,270.88a1.74,1.74,0,0,1-.5-1.35,1.63,1.63,0,0,1,.5-1.29,2.27,2.27,0,0,1,1.51-.43h1.55l.08,1H85.88a.86.86,0,0,0-.6.17.63.63,0,0,0-.2.51.62.62,0,0,0,.26.54,1.37,1.37,0,0,0,.78.17,2.26,2.26,0,0,0,.94-.14.44.44,0,0,0,.31-.43l.12.83a.92.92,0,0,1-.33.45,1.49,1.49,0,0,1-.58.28,2.75,2.75,0,0,1-.73.09A2.21,2.21,0,0,1,84.36,270.88Zm3-3.32a1,1,0,0,0-.29-.75,1.13,1.13,0,0,0-.81-.27,2.17,2.17,0,0,0-.66.11,2.25,2.25,0,0,0-.58.29l-.88-.74a2.16,2.16,0,0,1,.89-.62,3.24,3.24,0,0,1,1.23-.22,2.86,2.86,0,0,1,1.26.25,1.8,1.8,0,0,1,.8.74,2.34,2.34,0,0,1,.28,1.16v3.73H87.37Z"/><path class="cls-5" d="M91,271.05a1.82,1.82,0,0,1-.67-.84,3.23,3.23,0,0,1-.23-1.31v-1.11a3.32,3.32,0,0,1,.23-1.32,1.78,1.78,0,0,1,.66-.83,1.85,1.85,0,0,1,1.06-.29,1.58,1.58,0,0,1,.89.27,1.9,1.9,0,0,1,.65.77l-.11,1.24a1.2,1.2,0,0,0-.12-.57.79.79,0,0,0-.34-.36,1.13,1.13,0,0,0-.54-.12.92.92,0,0,0-.77.32,1.33,1.33,0,0,0-.28.9v1.1a1.28,1.28,0,0,0,.28.89,1,1,0,0,0,.77.31A1.13,1.13,0,0,0,93,270a.79.79,0,0,0,.34-.36,1.26,1.26,0,0,0,.12-.57l.07,1.28a1.6,1.6,0,0,1-.55.73,1.57,1.57,0,0,1-.93.27A2,2,0,0,1,91,271.05Zm.59,2.54-.53-.24a1.91,1.91,0,0,1-.82-.68l.9-.82a1.31,1.31,0,0,0,.5.4,1.43,1.43,0,0,0,.61.14,1.29,1.29,0,0,0,.9-.31,1.15,1.15,0,0,0,.33-.88v-5.76h1.33v5.63a2.87,2.87,0,0,1-.3,1.36,2,2,0,0,1-.87.87,2.93,2.93,0,0,1-1.38.29Z"/><path class="cls-5" d="M98,271.32l-.58-.3a2,2,0,0,1-.89-.88,2.94,2.94,0,0,1-.31-1.41v-.66a3.32,3.32,0,0,1,.3-1.47,2.05,2.05,0,0,1,.85-.92,2.6,2.6,0,0,1,1.35-.32,2.14,2.14,0,0,1,1.27.37,2.32,2.32,0,0,1,.8,1.07,4.55,4.55,0,0,1,.28,1.7v.38H97.13v-1h2.7v-.07a1.6,1.6,0,0,0-.34-.94,1,1,0,0,0-.76-.33,1.16,1.16,0,0,0-.93.37,1.57,1.57,0,0,0-.33,1.07v.74a1.34,1.34,0,0,0,.35,1,1.37,1.37,0,0,0,1,.36,1.88,1.88,0,0,0,.65-.13,1.91,1.91,0,0,0,.58-.35l.87.82a3.5,3.5,0,0,1-1,.64,2.93,2.93,0,0,1-1.11.22Z"/><path class="cls-5" d="M105.7,263.12H107v8.12H105.7Zm.77,6.84h1.9a1.87,1.87,0,0,0,1.28-.41,1.53,1.53,0,0,0,.45-1.18V266a1.52,1.52,0,0,0-.45-1.17,1.87,1.87,0,0,0-1.28-.41h-1.9v-1.28h1.86a3.82,3.82,0,0,1,1.7.34,2.47,2.47,0,0,1,1.08,1,3.24,3.24,0,0,1,.37,1.58v2.3a3.14,3.14,0,0,1-.37,1.55,2.44,2.44,0,0,1-1.07,1,3.86,3.86,0,0,1-1.71.35h-1.86Z"/><path class="cls-5" d="M114.7,271.32l-.58-.3a2.1,2.1,0,0,1-.89-.88,3.06,3.06,0,0,1-.3-1.41v-.66a3.33,3.33,0,0,1,.29-1.47,2.11,2.11,0,0,1,.85-.92,2.65,2.65,0,0,1,1.35-.32,2.12,2.12,0,0,1,1.27.37,2.4,2.4,0,0,1,.81,1.07,4.77,4.77,0,0,1,.27,1.7v.38h-3.93v-1h2.69v-.07a1.67,1.67,0,0,0-.34-.94,1,1,0,0,0-.77-.33,1.17,1.17,0,0,0-.93.37,1.57,1.57,0,0,0-.33,1.07v.74a1.25,1.25,0,0,0,1.36,1.37,1.84,1.84,0,0,0,.65-.13,1.8,1.8,0,0,0,.58-.35l.87.82a3.24,3.24,0,0,1-1,.64,2.85,2.85,0,0,1-1.11.22Z"/><path class="cls-5" d="M120.84,271.32l-.47-.1a4.11,4.11,0,0,1-.88-.28,3.32,3.32,0,0,1-.74-.47l.81-1a3.53,3.53,0,0,0,.9.47,2.67,2.67,0,0,0,.9.16,2.05,2.05,0,0,0,.92-.16.52.52,0,0,0,.32-.48.41.41,0,0,0-.16-.36.87.87,0,0,0-.39-.16l-.67-.09H121a5.09,5.09,0,0,1-1-.19,1.31,1.31,0,0,1-.66-.46,1.58,1.58,0,0,1-.26-1,1.87,1.87,0,0,1,.26-1,1.62,1.62,0,0,1,.78-.62,3.41,3.41,0,0,1,1.27-.21,4.28,4.28,0,0,1,.87.09,3.8,3.8,0,0,1,.81.25,3.5,3.5,0,0,1,.73.41l-.8,1a3.56,3.56,0,0,0-.82-.38,2.94,2.94,0,0,0-.81-.12,1.65,1.65,0,0,0-.79.15.47.47,0,0,0-.28.44.32.32,0,0,0,.15.29.86.86,0,0,0,.38.14l.66.08h.25a6.05,6.05,0,0,1,1.07.18,1.46,1.46,0,0,1,.72.49,1.65,1.65,0,0,1,.29,1.06,1.89,1.89,0,0,1-.27,1,1.81,1.81,0,0,1-.83.64,3.83,3.83,0,0,1-1.35.21Z"/><path class="cls-5" d="M125.12,263.12h1.32v1.33h-1.32Zm0,2.32h1.32v5.8h-1.32Z"/><path class="cls-5" d="M128.76,271.05a1.82,1.82,0,0,1-.67-.84,3.23,3.23,0,0,1-.23-1.31v-1.11a3.32,3.32,0,0,1,.23-1.32,1.78,1.78,0,0,1,.66-.83,1.85,1.85,0,0,1,1.06-.29,1.58,1.58,0,0,1,.89.27,1.9,1.9,0,0,1,.65.77l-.11,1.24a1.2,1.2,0,0,0-.12-.57.79.79,0,0,0-.34-.36,1.13,1.13,0,0,0-.54-.12.92.92,0,0,0-.77.32,1.33,1.33,0,0,0-.28.9v1.1a1.28,1.28,0,0,0,.28.89,1,1,0,0,0,.77.31,1.13,1.13,0,0,0,.54-.12.79.79,0,0,0,.34-.36,1.26,1.26,0,0,0,.12-.57l.07,1.28a1.49,1.49,0,0,1-1.48,1A2,2,0,0,1,128.76,271.05Zm.59,2.54-.53-.24a1.91,1.91,0,0,1-.82-.68l.9-.82a1.31,1.31,0,0,0,.5.4,1.4,1.4,0,0,0,.61.14,1.29,1.29,0,0,0,.9-.31,1.15,1.15,0,0,0,.33-.88v-5.76h1.33v5.63a2.87,2.87,0,0,1-.3,1.36,2,2,0,0,1-.87.87,2.93,2.93,0,0,1-1.38.29Z"/><path class="cls-5" d="M134.19,265.44h1.33v5.8h-1.33Zm3.43,2.29a1.09,1.09,0,0,0-.28-.81,1,1,0,0,0-.79-.28,1.06,1.06,0,0,0-.76.26,1,1,0,0,0-.27.75l-.11-1.2a2,2,0,0,1,.66-.81,1.56,1.56,0,0,1,.94-.28,1.74,1.74,0,0,1,1.44.62,2.65,2.65,0,0,1,.51,1.74v3.52h-1.34Z"/><path class="cls-5" d="M64.33,276.7a18.89,18.89,0,0,1-.19,3.17c-.1.22-.33.33-.72.33a2.06,2.06,0,0,1-.33,0l-.1-.35.38,0a.74.74,0,0,0,.37-.06c.06,0,.1-.15.13-.35s.05-.53.07-1,0-.95,0-1.41H60.38a5.61,5.61,0,0,1-1.09,1.09l-.26-.24A5.68,5.68,0,0,0,60.65,276l.32.17c-.07.12-.19.3-.36.56Zm.27,3.73c-.07.62-.21,1-.43,1a21.52,21.52,0,0,1-2.49.07h-1a1.74,1.74,0,0,1-.53-.06.43.43,0,0,1-.2-.15.46.46,0,0,1-.07-.29v-3.13h2.77v1.84H60.25V281c0,.12,0,.19.15.2s.58,0,1.45,0a18.22,18.22,0,0,0,2.16-.06c.14,0,.23-.31.25-.82Zm-2.25-1.05v-1.16h-2.1v1.16Z"/><path class="cls-5" d="M71,279.4H68.09a3.9,3.9,0,0,1-.88.75v1a11.67,11.67,0,0,0,1.25-.35l.12.28a13.49,13.49,0,0,1-1.7.47l-.13-.29c.09,0,.14-.09.14-.16v-.81a5.8,5.8,0,0,1-1.3.53l-.19-.3a5,5,0,0,0,2.24-1.14h-2.2v-.32h2.7a1.5,1.5,0,0,0-.19-.38l.33-.1a5.33,5.33,0,0,1,.24.48H71Zm-3.34-.59h-.32v-1h-.76a1.73,1.73,0,0,1-.69,1.14l-.25-.24a1.29,1.29,0,0,0,.6-.9h-.75v-.3h1.85v-.47H65.9v-.89h.33v.58h1.06V276h.32ZM71,277.05H69.6v1h1.21v.31H68.05v-.31h1.21v-1H67.9v-.3h1.36V276h.33v.73H71Zm0,4.24-.19.31a3.87,3.87,0,0,1-2.27-1.72l.3-.13a2.91,2.91,0,0,0,.57.71,3.84,3.84,0,0,0,1-.7l.24.21a4.42,4.42,0,0,1-1,.7A4.14,4.14,0,0,0,71,281.29Z"/><path class="cls-5" d="M74,277H71.77v-.34h1a2.24,2.24,0,0,0-.25-.55l.29-.14a3.09,3.09,0,0,1,.31.69H74Zm-.18,1.85h-2v-.32h2Zm0-.93H71.9v-.32h1.95Zm-.1,3.53h-.33v-.35H72.27v.47h-.33v-2.12h1.81Zm-.33-.68v-1H72.27v1Zm3.88.56-.19.27a4.8,4.8,0,0,1-1.49-.73,5.1,5.1,0,0,1-1.52.7l-.2-.27a4.65,4.65,0,0,0,1.44-.65,3.54,3.54,0,0,1-1-1.62h-.21v-.32h2.66V279a4.32,4.32,0,0,1-1,1.62A5,5,0,0,0,77.3,281.31Zm0-3h-.61c-.31,0-.46-.15-.46-.44V276.5H75.08a3.24,3.24,0,0,1-.23,1.31,1.72,1.72,0,0,1-.61.67l-.24-.23a1.62,1.62,0,0,0,.58-.66,3.42,3.42,0,0,0,.18-1.4h1.76v1.59a.19.19,0,0,0,.21.21h.54Zm-.8.7H74.72a3.26,3.26,0,0,0,.89,1.41A3.21,3.21,0,0,0,76.47,279Z"/><path class="cls-5" d="M80.76,277.1H78.13v-.33h1.2a3.6,3.6,0,0,0-.38-.68l.32-.13a4.19,4.19,0,0,1,.43.81h1.06Zm-.32.91h-2v-.32h2Zm0,.89h-2v-.31h2Zm0,2.6h-.33v-.3H78.75v.35h-.33v-2h2Zm-.33-.64v-1H78.75v1Zm3.56-2.7H82.4v3.41h-.34v-3.41H80.79v-.33h1.27V276h.34v1.81h1.27Z"/></g></g></svg>