<svg xmlns="http://www.w3.org/2000/svg" viewBox="0 0 191.11 509.87"><defs><style>.cls-1{fill:#282828;}.cls-2{fill:none;stroke:#5fc1c7;stroke-miterlimit:10;}.cls-3{font-size:10.68px;font-family:MicrosoftJhengHeiBold, Microsoft JhengHei;font-weight:700;}.cls-3,.cls-4{fill:#fff;}.cls-5{fill:#5fc1c7;}</style></defs><title>Photography0</title><g id="圖層_2" data-name="圖層 2"><g id="圖層_3" data-name="圖層 3"><path class="cls-1" d="M114.51,70.14A20,20,0,0,0,122,61.79a27.5,27.5,0,0,0,2.71-12.49,28.43,28.43,0,0,0-2.65-12.6,19.88,19.88,0,0,0-7.52-8.4,21.12,21.12,0,0,0-11.28-3H65.6V73.07h37.69A21.14,21.14,0,0,0,114.51,70.14Z"/><path class="cls-1" d="M102.52,0q14.7,0,25.87,6.14a43.29,43.29,0,0,1,17.35,17.29q6.19,11.17,6.19,25.87t-6.19,25.81A43,43,0,0,1,128.39,92.3q-11.17,6.08-25.87,6.08H65.6v62.34H39.18V0H0V509.87H191.11V0Z"/><line class="cls-2" x1="125.17" y1="464.68" x2="176.17" y2="464.68"/><text class="cls-3" transform="translate(58.63 468.04)">攝影</text><path class="cls-4" d="M36.61,306v3.44h-21V306Zm-9.53,1.66v6.7a2.79,2.79,0,0,0,.38,1.46,2.59,2.59,0,0,0,1.09,1,3.55,3.55,0,0,0,1.63.35,3.7,3.7,0,0,0,1.64-.34,2.62,2.62,0,0,0,1.1-1,2.74,2.74,0,0,0,.39-1.47v-6.7h3.3v6.6a6.91,6.91,0,0,1-.8,3.37,5.65,5.65,0,0,1-2.26,2.26,7.42,7.42,0,0,1-6.74,0,5.66,5.66,0,0,1-2.24-2.26,6.91,6.91,0,0,1-.79-3.37v-6.6Z"/><path class="cls-4" d="M36.61,324.12v3.44h-21v-3.44ZM24.72,333a2.83,2.83,0,0,0,2.07-.72,2.74,2.74,0,0,0,.74-2.05,2.7,2.7,0,0,0-.68-2,2.56,2.56,0,0,0-1.92-.69l3.1-.3A5.34,5.34,0,0,1,30.11,329a4.1,4.1,0,0,1,.72,2.43,4.56,4.56,0,0,1-1.59,3.71,6.91,6.91,0,0,1-4.51,1.32H15.65V333Z"/><path class="cls-4" d="M16.2,343.08a5,5,0,0,1,2.23-2.16,7.62,7.62,0,0,1,3.52-.75h2.44a7.51,7.51,0,0,1,3.48.75,5,5,0,0,1,2.2,2.16,8,8,0,0,1,0,6.82,5.1,5.1,0,0,1-2.2,2.16,7.64,7.64,0,0,1-3.48.74H21.91a7.67,7.67,0,0,1-3.5-.74,5.18,5.18,0,0,1-2.21-2.16,8,8,0,0,1,0-6.82Zm3.36,5.53a3.4,3.4,0,0,0,2.35.75h2.48a3.34,3.34,0,0,0,2.32-.75,3.15,3.15,0,0,0,0-4.24,3.34,3.34,0,0,0-2.32-.75H21.91a3.45,3.45,0,0,0-2.35.74,3.16,3.16,0,0,0,0,4.25Z"/><path class="cls-4" d="M16.58,358a4.36,4.36,0,0,1,3-.88H35v3.45H20a1.41,1.41,0,0,0-.84.21.75.75,0,0,0-.3.64v1.19h-3.3v-1.84A3.5,3.5,0,0,1,16.58,358Zm14-2.42v7h-3v-7Z"/><path class="cls-4" d="M16.2,368.79a5.06,5.06,0,0,1,2.23-2.16,7.63,7.63,0,0,1,3.52-.74h2.44a7.51,7.51,0,0,1,3.48.74,5,5,0,0,1,2.2,2.16,8,8,0,0,1,0,6.82,5,5,0,0,1-2.2,2.16,7.51,7.51,0,0,1-3.48.74H21.91a7.54,7.54,0,0,1-3.5-.74,5.07,5.07,0,0,1-2.21-2.16,8,8,0,0,1,0-6.82Zm3.36,5.53a3.4,3.4,0,0,0,2.35.75h2.48a3.34,3.34,0,0,0,2.32-.75,3.15,3.15,0,0,0,0-4.24,3.34,3.34,0,0,0-2.32-.75H21.91a3.4,3.4,0,0,0-2.35.75,2.69,2.69,0,0,0-.82,2.12A2.72,2.72,0,0,0,19.56,374.32Z"/><path class="cls-4" d="M9.57,385.84l.63-1.37A4.92,4.92,0,0,1,12,382.33l2.12,2.32a3.69,3.69,0,0,0-1,1.29,3.65,3.65,0,0,0-.36,1.58,3.25,3.25,0,0,0,.8,2.32,3,3,0,0,0,2.26.85H30.61v3.45H16.1a7.54,7.54,0,0,1-3.53-.77,5.23,5.23,0,0,1-2.24-2.25,7.66,7.66,0,0,1-.76-3.55Zm6.58-1.52a4.59,4.59,0,0,1,2.15-1.75,8.57,8.57,0,0,1,3.39-.6h2.85a8.9,8.9,0,0,1,3.41.59,4.67,4.67,0,0,1,2.17,1.73,4.86,4.86,0,0,1,.74,2.71,4.07,4.07,0,0,1-.71,2.32,5.1,5.1,0,0,1-2,1.68L25,390.69a3.32,3.32,0,0,0,1.47-.3,2.06,2.06,0,0,0,.92-.88,2.87,2.87,0,0,0,.32-1.4,2.46,2.46,0,0,0-.84-2,3.52,3.52,0,0,0-2.33-.7H21.69a3.4,3.4,0,0,0-2.3.7,2.51,2.51,0,0,0-.81,2,2.87,2.87,0,0,0,.32,1.4,2.14,2.14,0,0,0,.93.88,3.25,3.25,0,0,0,1.46.3l-3.29.2a4,4,0,0,1-1.88-1.43,3.92,3.92,0,0,1-.71-2.38A4.91,4.91,0,0,1,16.15,384.32Z"/><path class="cls-4" d="M30.61,398.32v3.59h-15v-3.59Zm-3.28,7.48a3.26,3.26,0,0,0,.2-1.17,2.63,2.63,0,0,0-.77-2,3,3,0,0,0-2.14-.71L28,401.6a5.4,5.4,0,0,1,2.09,1.7,3.89,3.89,0,0,1,.74,2.3,5,5,0,0,1-.3,1.77,3.68,3.68,0,0,1-.87,1.38l-2.9-2.1A2.28,2.28,0,0,0,27.33,405.8Z"/><path class="cls-4" d="M16.58,411.48a4.41,4.41,0,0,1,3.48-1.29,4.16,4.16,0,0,1,3.33,1.3,5.86,5.86,0,0,1,1.11,3.89v4l-2.68.2V415.4a2.32,2.32,0,0,0-.43-1.54,1.65,1.65,0,0,0-1.33-.51,1.57,1.57,0,0,0-1.39.66,3.63,3.63,0,0,0-.45,2,6.26,6.26,0,0,0,.36,2.44,1.18,1.18,0,0,0,1.12.8l-2.13.3a2.5,2.5,0,0,1-1.18-.85,4.26,4.26,0,0,1-.72-1.48,7.1,7.1,0,0,1-.23-1.89A5.65,5.65,0,0,1,16.58,411.48Zm8.56,7.78a2.54,2.54,0,0,0,1.94-.74,3,3,0,0,0,.69-2.1,5.49,5.49,0,0,0-.27-1.7,5.29,5.29,0,0,0-.76-1.5l1.93-2.29a5.82,5.82,0,0,1,1.59,2.31,8.44,8.44,0,0,1,.57,3.17,7.36,7.36,0,0,1-.66,3.25,4.55,4.55,0,0,1-1.9,2.07,5.91,5.91,0,0,1-3,.72H15.65v-3.19Z"/><path class="cls-4" d="M30.61,426.63v3.44h-21v-3.44Zm-14.5,4.71A3.9,3.9,0,0,1,18,429.87l3.27.2a3.23,3.23,0,0,0-1.45.3,2.15,2.15,0,0,0-.91.88,2.9,2.9,0,0,0-.32,1.4,2.49,2.49,0,0,0,.81,2,3.37,3.37,0,0,0,2.29.71H24.5a3.5,3.5,0,0,0,2.34-.71,2.44,2.44,0,0,0,.83-2,2.9,2.9,0,0,0-.31-1.4,2.09,2.09,0,0,0-.91-.88,3.28,3.28,0,0,0-1.46-.3l3.1-.3a5.07,5.07,0,0,1,2,1.68,4,4,0,0,1,.71,2.31,4.9,4.9,0,0,1-.74,2.72,4.59,4.59,0,0,1-2.15,1.72,9,9,0,0,1-3.42.59H21.69a8.58,8.58,0,0,1-3.38-.6,4.56,4.56,0,0,1-2.14-1.75,5,5,0,0,1-.73-2.75A4.08,4.08,0,0,1,16.11,431.34Z"/><path class="cls-4" d="M36.61,442.68v3.45h-21v-3.45Zm-11.89,8.87a2.83,2.83,0,0,0,2.07-.72,2.75,2.75,0,0,0,.74-2.05,2.68,2.68,0,0,0-.68-2,2.56,2.56,0,0,0-1.92-.69l3.1-.31a5.52,5.52,0,0,1,2.08,1.71,4.15,4.15,0,0,1,.72,2.43,4.55,4.55,0,0,1-1.59,3.71A6.91,6.91,0,0,1,24.73,455H15.65v-3.44Z"/><path class="cls-4" d="M30.61,470.69l-18.46-6.52a4.62,4.62,0,0,1-1.62-.91,3.09,3.09,0,0,1-.86-1.38,6.89,6.89,0,0,1-.26-2v-.73h3.33v.73a2.12,2.12,0,0,0,.3,1.19,2.09,2.09,0,0,0,1,.74l16.54,5.54Zm0-13.54v3.36l-13,4.82-3.18-2.07Z"/><path class="cls-5" d="M59.58,305.24h1.34v8.11H59.58Zm.65,3.69h2.59a1.05,1.05,0,0,0,.57-.15,1,1,0,0,0,.38-.42,1.46,1.46,0,0,0,.14-.63,1.41,1.41,0,0,0-.14-.64,1,1,0,0,0-.38-.42,1.06,1.06,0,0,0-.57-.16H60.23v-1.27h2.55a2.64,2.64,0,0,1,1.31.31,2.11,2.11,0,0,1,.88.87,2.76,2.76,0,0,1,.31,1.31A2.71,2.71,0,0,1,65,309a2.23,2.23,0,0,1-.88.87,2.76,2.76,0,0,1-1.31.31H60.23Z"/><path class="cls-5" d="M66.59,305.24h1.34v8.11H66.59Zm3.44,4.6a1.13,1.13,0,0,0-.28-.8,1.07,1.07,0,0,0-.8-.29,1,1,0,0,0-.76.27,1,1,0,0,0-.26.74l-.12-1.2a2.07,2.07,0,0,1,.66-.81,1.65,1.65,0,0,1,.94-.27,1.76,1.76,0,0,1,1.44.61,2.67,2.67,0,0,1,.51,1.75v3.51H70Z"/><path class="cls-5" d="M73.94,313.14a1.89,1.89,0,0,1-.84-.86,3,3,0,0,1-.29-1.37V310a3,3,0,0,1,.29-1.35,1.92,1.92,0,0,1,.84-.85,2.68,2.68,0,0,1,1.32-.29,2.74,2.74,0,0,1,1.32.29,2,2,0,0,1,.83.85A2.86,2.86,0,0,1,77.7,310v1a2.87,2.87,0,0,1-.29,1.36,2,2,0,0,1-.83.85,2.74,2.74,0,0,1-1.32.3A2.68,2.68,0,0,1,73.94,313.14Zm2.14-1.3a1.34,1.34,0,0,0,.29-.91v-1a1.3,1.3,0,0,0-.29-.9,1.08,1.08,0,0,0-.82-.32,1,1,0,0,0-.82.32,1.25,1.25,0,0,0-.29.9v1a1.34,1.34,0,0,0,.28.91,1.22,1.22,0,0,0,1.65,0Z"/><path class="cls-5" d="M78.76,307.56h2.73v1.17H78.76ZM79.7,313a1.65,1.65,0,0,1-.34-1.14v-6h1.33v5.79a.54.54,0,0,0,.09.33.27.27,0,0,0,.24.11h.47v1.28h-.72A1.36,1.36,0,0,1,79.7,313Z"/><path class="cls-5" d="M83.9,313.14a1.89,1.89,0,0,1-.84-.86,3,3,0,0,1-.29-1.37V310a3,3,0,0,1,.29-1.35,1.92,1.92,0,0,1,.84-.85,2.68,2.68,0,0,1,1.32-.29,2.74,2.74,0,0,1,1.32.29,2,2,0,0,1,.84.85,3,3,0,0,1,.28,1.35v1a3,3,0,0,1-.28,1.36,2,2,0,0,1-.84.85,2.74,2.74,0,0,1-1.32.3A2.68,2.68,0,0,1,83.9,313.14Zm2.14-1.3a1.34,1.34,0,0,0,.29-.91v-1a1.3,1.3,0,0,0-.29-.9,1.08,1.08,0,0,0-.82-.32,1,1,0,0,0-.82.32,1.25,1.25,0,0,0-.29.9v1a1.34,1.34,0,0,0,.28.91,1.22,1.22,0,0,0,1.65,0Z"/><path class="cls-5" d="M89.91,313.16a1.82,1.82,0,0,1-.68-.83A3.43,3.43,0,0,1,89,311v-1.1a3.5,3.5,0,0,1,.23-1.32,1.78,1.78,0,0,1,.67-.84,1.88,1.88,0,0,1,1-.29,1.6,1.6,0,0,1,.9.28,2,2,0,0,1,.65.77l-.12,1.23a1.26,1.26,0,0,0-.12-.57.77.77,0,0,0-.34-.35,1,1,0,0,0-.54-.13.94.94,0,0,0-.77.33,1.34,1.34,0,0,0-.27.9V311a1.34,1.34,0,0,0,.27.9,1,1,0,0,0,.77.31,1.13,1.13,0,0,0,.54-.12.84.84,0,0,0,.34-.36,1.26,1.26,0,0,0,.12-.57l.08,1.27a1.52,1.52,0,0,1-.56.73,1.48,1.48,0,0,1-.92.28A1.94,1.94,0,0,1,89.91,313.16Zm.59,2.55-.53-.24a2,2,0,0,1-.83-.69L90,314a1.51,1.51,0,0,0,.5.41,1.46,1.46,0,0,0,.61.13,1.25,1.25,0,0,0,.9-.31,1.12,1.12,0,0,0,.33-.87v-5.76h1.34v5.62a2.92,2.92,0,0,1-.3,1.37,2,2,0,0,1-.87.87,3.09,3.09,0,0,1-1.38.29Z"/><path class="cls-5" d="M95.34,307.56h1.38v5.79H95.34Zm2.89,1.27a1.25,1.25,0,0,0-.45-.08,1,1,0,0,0-.78.3,1.21,1.21,0,0,0-.28.83l-.11-1.31a2,2,0,0,1,.65-.81,1.52,1.52,0,0,1,.89-.28,1.85,1.85,0,0,1,.69.11,1.6,1.6,0,0,1,.54.34l-.82,1.12A.83.83,0,0,0,98.23,308.83Z"/><path class="cls-5" d="M100.43,313a1.69,1.69,0,0,1-.49-1.34,1.57,1.57,0,0,1,.5-1.29,2.25,2.25,0,0,1,1.51-.43h1.55l.08,1H102a.9.9,0,0,0-.59.17.62.62,0,0,0-.2.52.57.57,0,0,0,.26.53,1.33,1.33,0,0,0,.77.18,2.5,2.5,0,0,0,1-.14.46.46,0,0,0,.31-.43l.11.82a.94.94,0,0,1-.33.46,1.69,1.69,0,0,1-.57.28,2.81,2.81,0,0,1-.73.09A2.17,2.17,0,0,1,100.43,313Zm3-3.31a1,1,0,0,0-.29-.75,1.13,1.13,0,0,0-.81-.27,2.07,2.07,0,0,0-.66.1,2.12,2.12,0,0,0-.58.3l-.89-.75a2.28,2.28,0,0,1,.89-.61,3.24,3.24,0,0,1,1.23-.22,2.86,2.86,0,0,1,1.26.25,1.82,1.82,0,0,1,.81.74,2.34,2.34,0,0,1,.27,1.16v3.72h-1.23Z"/><path class="cls-5" d="M106.3,307.56h1.33v8.15H106.3Zm1.83,5.62a1.47,1.47,0,0,1-.57-.74l.07-1.26a1.22,1.22,0,0,0,.12.56.82.82,0,0,0,.34.35,1.13,1.13,0,0,0,.54.13,1,1,0,0,0,.77-.32,1.27,1.27,0,0,0,.28-.89v-1.08a1.32,1.32,0,0,0-.28-.91.92.92,0,0,0-.77-.32,1.13,1.13,0,0,0-.54.12.82.82,0,0,0-.34.35,1.26,1.26,0,0,0-.12.57l-.11-1.2a2,2,0,0,1,.65-.79,1.58,1.58,0,0,1,.89-.27,1.93,1.93,0,0,1,1.06.28,1.78,1.78,0,0,1,.66.83,3.33,3.33,0,0,1,.23,1.33V311a3.2,3.2,0,0,1-.23,1.31,1.71,1.71,0,0,1-.68.83,1.93,1.93,0,0,1-1.06.29A1.6,1.6,0,0,1,108.13,313.18Z"/><path class="cls-5" d="M112.52,305.24h1.33v8.11h-1.33Zm3.43,4.6a1.08,1.08,0,0,0-.28-.8,1,1,0,0,0-.79-.29,1,1,0,0,0-.76.27,1,1,0,0,0-.27.74l-.11-1.2a2.07,2.07,0,0,1,.66-.81,1.65,1.65,0,0,1,.94-.27,1.76,1.76,0,0,1,1.44.61,2.67,2.67,0,0,1,.51,1.75v3.51H116Z"/><path class="cls-5" d="M118.13,307.56h1.3l1.86,5-.8,1.24Zm5.24,0-2.53,7.15a1.79,1.79,0,0,1-.35.63,1.26,1.26,0,0,1-.53.33,2.55,2.55,0,0,1-.78.1h-.29v-1.29h.29a.68.68,0,0,0,.74-.51l2.15-6.41Z"/><path class="cls-5" d="M60.68,319.56h-.59V321a2.84,2.84,0,0,0,.5-.23l.06.31a5.7,5.7,0,0,1-.56.26v2a.31.31,0,0,1-.13.3,1,1,0,0,1-.52.09h-.26l-.08-.29h.53c.1,0,.15,0,.15-.14v-1.79c-.26.12-.49.21-.68.28l-.09-.3.77-.3v-1.54h-.72v-.3h.72v-1.14h.31v1.14h.59Zm1.86,1.56h-.2v2.56H62v-.63q-.61.13-1.44.27l-.05-.29.54-.09v-1.82H60.8v-.29h1.74Zm2-.71h-.67v.26h-.27l0-.26H60.8v-.29h.62v-1.57H60.9v-.29h3.52v.29h-.57v1.57h.67ZM62,321.51v-.39h-.65v.39Zm0,.68v-.39h-.65v.39Zm0,.56v-.28h-.65v.41C61.66,322.84,61.88,322.79,62,322.75Zm1.5-3.88v-.32H61.73v.32Zm0,.62v-.35H61.73v.35Zm0,.63v-.36H61.73v.36Zm1.05,3.05h-.33v.51H64v-.51H62.63v-.28h.3v-1.78h-.21v-.28h1.8v.28h-.26v1.78h.33ZM64,321.51v-.4h-.71v.4Zm0,.68v-.39h-.71v.39Zm0,.7v-.42h-.71v.42Z"/><path class="cls-5" d="M66.55,322.46a4.36,4.36,0,0,1-.91.91l-.23-.25a4.09,4.09,0,0,0,.89-.84Zm2.37-1.88h-3.5v-.31h1.63a2.37,2.37,0,0,0-.19-.39H65.8v-1.62h2.73v1.62H67.24c0,.1.1.23.16.39h1.52Zm-.44,1.49H67.36v1.16a.39.39,0,0,1-.14.33.74.74,0,0,1-.45.11h-.25l-.11-.31h.47c.1,0,.15-.07.15-.19v-1.1H65.87V321h2.61Zm-.29-3.18v-.32H66.13v.32Zm0,.68v-.36H66.13v.36Zm0,2.19v-.5h-2v.5Zm.42,1.38-.28.18a4.46,4.46,0,0,0-.55-.86l.27-.18A3.88,3.88,0,0,1,68.58,323.14ZM71,321.87a6.42,6.42,0,0,1-2.1,1.81l-.21-.28a5.54,5.54,0,0,0,2.07-1.78Zm-.17-3.57A5.29,5.29,0,0,1,69,319.72l-.2-.26a5,5,0,0,0,1.81-1.38Zm.07,1.72a5.9,5.9,0,0,1-1.9,1.5l-.2-.28a5.45,5.45,0,0,0,1.86-1.45Z"/></g></g></svg>