<svg xmlns="http://www.w3.org/2000/svg" viewBox="0 0 191.11 509.87"><defs><style>.cls-1{fill:#282828;}.cls-2{fill:none;stroke:#5fc1c7;stroke-miterlimit:10;}.cls-3,.cls-5{fill:#fff;}.cls-4{fill:#5fc1c7;}.cls-5{font-size:10.68px;font-family:MicrosoftJhengHeiBold, Microsoft JhengHei;font-weight:700;}</style></defs><title>Product Design0</title><g id="圖層_2" data-name="圖層 2"><g id="圖層_3" data-name="圖層 3"><path class="cls-1" d="M102.52,0q14.7,0,25.87,6.14a43.29,43.29,0,0,1,17.35,17.29q6.19,11.17,6.19,25.87t-6.19,25.81A43,43,0,0,1,128.39,92.3q-11.17,6.08-25.87,6.08H65.6v62.34H39.18V0H0V509.87H191.11V0Z"/><path class="cls-1" d="M114.51,70.14A20,20,0,0,0,122,61.79a27.5,27.5,0,0,0,2.71-12.49,28.43,28.43,0,0,0-2.65-12.6,19.88,19.88,0,0,0-7.52-8.4,21.11,21.11,0,0,0-11.27-3H65.6V73.07h37.7A21.12,21.12,0,0,0,114.51,70.14Z"/><line class="cls-2" x1="125.17" y1="464.68" x2="176.17" y2="464.68"/><path class="cls-3" d="M42,272.33v3.45h-21v-3.45ZM32.51,274v6.7a2.67,2.67,0,0,0,.38,1.46,2.54,2.54,0,0,0,1.09,1,3.53,3.53,0,0,0,1.63.36,3.7,3.7,0,0,0,1.64-.35,2.62,2.62,0,0,0,1.1-1,2.73,2.73,0,0,0,.38-1.47V274H42v6.6a6.91,6.91,0,0,1-.79,3.37A5.65,5.65,0,0,1,39,286.22a7.42,7.42,0,0,1-6.74,0A5.6,5.6,0,0,1,30,284a6.91,6.91,0,0,1-.79-3.37V274Z"/><path class="cls-3" d="M36,289.7v3.59h-15V289.7Zm-3.28,7.48A3.26,3.26,0,0,0,33,296a2.59,2.59,0,0,0-.77-2,3,3,0,0,0-2.14-.71l3.39-.31a5.37,5.37,0,0,1,2.08,1.7,3.84,3.84,0,0,1,.75,2.3,5,5,0,0,1-.3,1.77,4,4,0,0,1-.87,1.38l-2.9-2.1A2.28,2.28,0,0,0,32.76,297.18Z"/><path class="cls-3" d="M21.63,304.48a5,5,0,0,1,2.22-2.16,7.67,7.67,0,0,1,3.53-.74h2.43a7.45,7.45,0,0,1,3.48.74,5,5,0,0,1,2.21,2.16,8,8,0,0,1,0,6.82,5.12,5.12,0,0,1-2.21,2.16,7.58,7.58,0,0,1-3.48.74H27.33a7.62,7.62,0,0,1-3.49-.74,5.07,5.07,0,0,1-2.21-2.16,7.94,7.94,0,0,1,0-6.82ZM25,310a3.36,3.36,0,0,0,2.34.75h2.48a3.3,3.3,0,0,0,2.32-.75,3.15,3.15,0,0,0,0-4.24,3.3,3.3,0,0,0-2.32-.75H27.33a3.4,3.4,0,0,0-2.34.74A3.14,3.14,0,0,0,25,310Z"/><path class="cls-3" d="M21.57,320a4.73,4.73,0,0,1,2.15-1.74,8.65,8.65,0,0,1,3.4-.6H30a8.93,8.93,0,0,1,3.41.59A4.63,4.63,0,0,1,35.54,320a4.82,4.82,0,0,1,.74,2.72,4,4,0,0,1-.7,2.31,5,5,0,0,1-2,1.68l-3.19-.3a3.26,3.26,0,0,0,1.47-.3,2.14,2.14,0,0,0,.93-.88,2.9,2.9,0,0,0,.31-1.4,2.49,2.49,0,0,0-.83-2,3.53,3.53,0,0,0-2.34-.7H27.12a3.4,3.4,0,0,0-2.3.7,2.51,2.51,0,0,0-.82,2,2.79,2.79,0,0,0,.33,1.4,2.09,2.09,0,0,0,.93.88,3.23,3.23,0,0,0,1.45.3l-3.28.2a4,4,0,0,1-1.88-1.43,4,4,0,0,1-.72-2.39A5,5,0,0,1,21.57,320ZM42,326.38v3.45h-21v-3.45Z"/><path class="cls-3" d="M26.94,337.45a2.82,2.82,0,0,0-2.05.71,2.62,2.62,0,0,0-.73,2,2.67,2.67,0,0,0,.69,2,2.63,2.63,0,0,0,2,.69l-3.2.2a4.33,4.33,0,0,1-2-1.44,3.9,3.9,0,0,1-.79-2.46,4.69,4.69,0,0,1,1.57-3.77A6.67,6.67,0,0,1,26.87,334H36v3.44Zm9.1,5.36v3.43h-15v-3.43Z"/><path class="cls-3" d="M20.86,354.52l.79-1.49a5.26,5.26,0,0,1,2.29-2.26,7.83,7.83,0,0,1,3.64-.78h2a7.72,7.72,0,0,1,3.6.78A5.27,5.27,0,0,1,35.48,353a7.6,7.6,0,0,1,.78,3.58,8.67,8.67,0,0,1-.29,2.25,6.38,6.38,0,0,1-.81,1.9,5.17,5.17,0,0,1-1.3,1.41l-2.19-2.34a4,4,0,0,0,.95-1.38,4.28,4.28,0,0,0,.33-1.66,3.39,3.39,0,0,0-.87-2.48,3.34,3.34,0,0,0-2.47-.88h-2a3.42,3.42,0,0,0-2.53.88,3.33,3.33,0,0,0-.89,2.48,4,4,0,0,0,.36,1.67,3.84,3.84,0,0,0,1,1.37l-2.34,2.34a5.42,5.42,0,0,1-1.27-1.42,6.47,6.47,0,0,1-.8-1.9,8.65,8.65,0,0,1-.28-2.24Z"/><path class="cls-3" d="M22,366.39a4.4,4.4,0,0,1,3-.88H40.39V369H25.45a1.46,1.46,0,0,0-.85.21.74.74,0,0,0-.29.64V371H21v-1.84A3.5,3.5,0,0,1,22,366.39ZM36,364v7H33v-7Z"/><path class="cls-3" d="M42,383v3.44h-21V383Zm-17.65,2v4.88a4.71,4.71,0,0,0,1.07,3.31,3.89,3.89,0,0,0,3,1.18h6.17a3.89,3.89,0,0,0,3-1.18,4.75,4.75,0,0,0,1.06-3.31V385H42v4.8a10.14,10.14,0,0,1-.87,4.39,6.22,6.22,0,0,1-2.57,2.77,8.18,8.18,0,0,1-4.06.95H28.59a8.06,8.06,0,0,1-4-.94A6.19,6.19,0,0,1,22,394.17a9.77,9.77,0,0,1-.91-4.43V385Z"/><path class="cls-3" d="M20.86,406.2l.78-1.5a5.31,5.31,0,0,1,2.28-2.29,7.73,7.73,0,0,1,3.64-.79h1.69a8.74,8.74,0,0,1,3.79.75,5.29,5.29,0,0,1,2.39,2.21,7,7,0,0,1,.83,3.48,5.55,5.55,0,0,1-1,3.28,6,6,0,0,1-2.78,2.08,12.11,12.11,0,0,1-4.38.71h-1V404h2.52v7h.16a4.33,4.33,0,0,0,2.44-.88,2.48,2.48,0,0,0,.86-2,3,3,0,0,0-1-2.41,4.1,4.1,0,0,0-2.76-.85h-1.9A3.22,3.22,0,0,0,24,408.32,4.49,4.49,0,0,0,24.3,410a5.25,5.25,0,0,0,.9,1.49l-2.1,2.25a8,8,0,0,1-1.65-2.56,7.43,7.43,0,0,1-.59-2.86Z"/><path class="cls-3" d="M20.86,422s.09-.4.25-1.21a10.43,10.43,0,0,1,.75-2.27,8.65,8.65,0,0,1,1.19-1.91l2.6,2.09a9.52,9.52,0,0,0-1.23,2.33,6.89,6.89,0,0,0-.42,2.31,5.34,5.34,0,0,0,.43,2.39,1.33,1.33,0,0,0,1.23.81,1.1,1.1,0,0,0,.93-.4,2.37,2.37,0,0,0,.43-1c.07-.41.15-1,.21-1.72l0-.39c0-.13,0-.26,0-.39s0-.08,0-.11a.49.49,0,0,0,0-.12,14.41,14.41,0,0,1,.48-2.58A3.34,3.34,0,0,1,29,418.16a4,4,0,0,1,2.52-.69,4.64,4.64,0,0,1,2.6.69,4.11,4.11,0,0,1,1.6,2,8.64,8.64,0,0,1,.55,3.26,11.13,11.13,0,0,1-.23,2.24,10.66,10.66,0,0,1-.65,2.1,9.59,9.59,0,0,1-1.06,1.9l-2.5-2.06a9.79,9.79,0,0,0,1-2.13,7.09,7.09,0,0,0,.33-2.08,4.33,4.33,0,0,0-.39-2.06,1.25,1.25,0,0,0-1.15-.71.84.84,0,0,0-.75.39,2.42,2.42,0,0,0-.35,1c-.06.39-.13,1-.2,1.7,0,.07,0,.15,0,.22a1.64,1.64,0,0,1,0,.22v.1a.49.49,0,0,1,0,.12,15.91,15.91,0,0,1-.48,2.75A3.66,3.66,0,0,1,28.48,429a4.29,4.29,0,0,1-2.75.76,4.73,4.73,0,0,1-2.67-.72,4.34,4.34,0,0,1-1.64-2.14,9.54,9.54,0,0,1-.56-3.48Z"/><path class="cls-3" d="M36,433.08v3.43h-15v-3.43Zm6,0v3.43H38.59v-3.43Z"/><path class="cls-3" d="M15,444l.62-1.37a5,5,0,0,1,1.77-2.13l2.12,2.32a3.69,3.69,0,0,0-1,1.29,3.65,3.65,0,0,0-.36,1.58,3.23,3.23,0,0,0,.8,2.32,2.92,2.92,0,0,0,2.25.85H36v3.45H21.53a7.46,7.46,0,0,1-3.54-.78,5.13,5.13,0,0,1-2.23-2.24,7.67,7.67,0,0,1-.76-3.56Zm6.57-1.52a4.73,4.73,0,0,1,2.15-1.74,8.65,8.65,0,0,1,3.4-.6H30a8.93,8.93,0,0,1,3.41.59,4.63,4.63,0,0,1,2.16,1.72,4.82,4.82,0,0,1,.74,2.72,4,4,0,0,1-.7,2.31,5,5,0,0,1-2,1.68l-3.19-.3a3.26,3.26,0,0,0,1.47-.3,2.14,2.14,0,0,0,.93-.88,2.9,2.9,0,0,0,.31-1.4,2.49,2.49,0,0,0-.83-2,3.53,3.53,0,0,0-2.34-.7H27.12a3.4,3.4,0,0,0-2.3.7,2.51,2.51,0,0,0-.82,2,2.79,2.79,0,0,0,.33,1.4,2.09,2.09,0,0,0,.93.88,3.23,3.23,0,0,0,1.45.3l-3.28.2a4,4,0,0,1-1.88-1.43,4,4,0,0,1-.72-2.39A5,5,0,0,1,21.57,442.5Z"/><path class="cls-3" d="M36,456.5V460h-15V456.5Zm-5.9,8.87a2.84,2.84,0,0,0,2.08-.72,2.73,2.73,0,0,0,.73-2,2.66,2.66,0,0,0-.68-2,2.61,2.61,0,0,0-1.94-.69l3.1-.3a5.41,5.41,0,0,1,2.1,1.7,4.08,4.08,0,0,1,.73,2.43,4.57,4.57,0,0,1-1.6,3.72,6.92,6.92,0,0,1-4.5,1.31H21.08v-3.44Z"/><path class="cls-4" d="M59.58,271.54h1.34v8.12H59.58Zm.65,3.69h2.59a1.05,1.05,0,0,0,.57-.15,1,1,0,0,0,.38-.42,1.39,1.39,0,0,0,.13-.63,1.44,1.44,0,0,0-.13-.64,1,1,0,0,0-.38-.42,1.05,1.05,0,0,0-.57-.15H60.23v-1.28h2.55a2.64,2.64,0,0,1,1.31.31,2.17,2.17,0,0,1,.88.87,2.76,2.76,0,0,1,.31,1.31,2.71,2.71,0,0,1-.31,1.3,2.11,2.11,0,0,1-.88.87,2.64,2.64,0,0,1-1.31.31H60.23Z"/><path class="cls-4" d="M66.31,273.86H67.7v5.8H66.31Zm2.9,1.27a1.25,1.25,0,0,0-.45-.07,1,1,0,0,0-.78.29,1.16,1.16,0,0,0-.28.83l-.12-1.31a2.22,2.22,0,0,1,.66-.81,1.52,1.52,0,0,1,.89-.28,2.17,2.17,0,0,1,.69.11,1.55,1.55,0,0,1,.53.34l-.81,1.12A.83.83,0,0,0,69.21,275.13Z"/><path class="cls-4" d="M72,279.44a1.89,1.89,0,0,1-.84-.86,3,3,0,0,1-.29-1.36v-1a3,3,0,0,1,.29-1.35,2,2,0,0,1,.84-.85,2.68,2.68,0,0,1,1.32-.29,2.74,2.74,0,0,1,1.32.29,2,2,0,0,1,.84.85,3,3,0,0,1,.28,1.35v1a3,3,0,0,1-.28,1.36,2,2,0,0,1-.84.85,2.74,2.74,0,0,1-1.32.3A2.68,2.68,0,0,1,72,279.44Zm2.14-1.3a1.32,1.32,0,0,0,.29-.91v-1a1.33,1.33,0,0,0-.29-.9,1.06,1.06,0,0,0-.82-.31,1,1,0,0,0-.82.31,1.28,1.28,0,0,0-.29.9v1a1.32,1.32,0,0,0,.28.91,1.08,1.08,0,0,0,.83.32A1.06,1.06,0,0,0,74.18,278.14Z"/><path class="cls-4" d="M78.05,279.46a1.82,1.82,0,0,1-.68-.83,3.41,3.41,0,0,1-.23-1.31v-1.11a3.5,3.5,0,0,1,.23-1.32,1.73,1.73,0,0,1,1.72-1.12,1.59,1.59,0,0,1,.9.27,2,2,0,0,1,.65.77L80.52,276a1.26,1.26,0,0,0-.12-.57.77.77,0,0,0-.34-.35,1.13,1.13,0,0,0-.54-.13.94.94,0,0,0-.77.33,1.34,1.34,0,0,0-.27.9v1.1a1.33,1.33,0,0,0,.27.89,1,1,0,0,0,.77.31,1.13,1.13,0,0,0,.54-.12.84.84,0,0,0,.34-.36,1.26,1.26,0,0,0,.12-.57l.08,1.28a1.54,1.54,0,0,1-.56.72,1.48,1.48,0,0,1-.92.28A1.86,1.86,0,0,1,78.05,279.46Zm2.47-7.92h1.34v8.12H80.52Z"/><path class="cls-4" d="M84.81,277.38a1.11,1.11,0,0,0,.27.8,1,1,0,0,0,.77.28,1.09,1.09,0,0,0,.77-.26,1,1,0,0,0,.27-.77l.07,1.24a1.66,1.66,0,0,1-.55.76,1.48,1.48,0,0,1-1,.31,1.8,1.8,0,0,1-1.46-.61,2.6,2.6,0,0,1-.51-1.72v-3.55h1.33Zm2.08-3.52h1.33v5.8H86.89Z"/><path class="cls-4" d="M91.42,279.74l-.58-.3a2.08,2.08,0,0,1-.87-.89,3.06,3.06,0,0,1-.3-1.41v-.79A3,3,0,0,1,90,275a2,2,0,0,1,.87-.88,3,3,0,0,1,1.39-.3,3.05,3.05,0,0,1,.87.11,2.46,2.46,0,0,1,.74.31,2,2,0,0,1,.54.5l-.9.85a1.58,1.58,0,0,0-.54-.37,1.69,1.69,0,0,0-.64-.12,1.33,1.33,0,0,0-1,.33,1.3,1.3,0,0,0-.34,1v.79a1.33,1.33,0,0,0,.34,1,1.28,1.28,0,0,0,1,.34,1.46,1.46,0,0,0,.65-.14,1.55,1.55,0,0,0,.53-.39l.9.9a1.86,1.86,0,0,1-.55.49,2.4,2.4,0,0,1-.73.31,3.58,3.58,0,0,1-.87.11Z"/><path class="cls-4" d="M95.08,273.86h2.73V275H95.08ZM96,279.3a1.68,1.68,0,0,1-.34-1.15v-6H97V278a.52.52,0,0,0,.09.33.27.27,0,0,0,.24.12h.47v1.27h-.72A1.39,1.39,0,0,1,96,279.3Z"/><path class="cls-4" d="M102.44,271.54h1.34v8.12h-1.34Zm.77,6.84h1.9a1.83,1.83,0,0,0,1.28-.42,1.49,1.49,0,0,0,.45-1.17V274.4a1.51,1.51,0,0,0-.45-1.17,1.82,1.82,0,0,0-1.28-.41h-1.9v-1.28h1.86a3.85,3.85,0,0,1,1.7.34,2.47,2.47,0,0,1,1.08,1,3.24,3.24,0,0,1,.37,1.58v2.3a3.17,3.17,0,0,1-.37,1.55,2.36,2.36,0,0,1-1.07,1,3.72,3.72,0,0,1-1.71.36h-1.86Z"/><path class="cls-4" d="M111.44,279.74l-.58-.3a2.07,2.07,0,0,1-.89-.89,3,3,0,0,1-.3-1.41v-.65A3.33,3.33,0,0,1,110,275a2.13,2.13,0,0,1,.85-.93,2.75,2.75,0,0,1,1.35-.31,2.12,2.12,0,0,1,1.27.37,2.35,2.35,0,0,1,.81,1.07,4.77,4.77,0,0,1,.27,1.7v.38h-3.93v-1h2.69v-.06a1.67,1.67,0,0,0-.34-.94,1,1,0,0,0-.77-.34,1.18,1.18,0,0,0-.93.38,1.57,1.57,0,0,0-.33,1.07v.74a1.24,1.24,0,0,0,1.36,1.36,1.82,1.82,0,0,0,.65-.12,2,2,0,0,0,.58-.35l.87.81a3.06,3.06,0,0,1-1,.64,2.73,2.73,0,0,1-1.11.23Z"/><path class="cls-4" d="M117.58,279.74l-.47-.1a3.64,3.64,0,0,1-.88-.29,3.29,3.29,0,0,1-.74-.46l.81-1a4.08,4.08,0,0,0,.9.47,2.67,2.67,0,0,0,.9.16,2.05,2.05,0,0,0,.92-.16.52.52,0,0,0,.32-.48.41.41,0,0,0-.16-.36.87.87,0,0,0-.39-.16l-.67-.09H118l-.15,0h-.09a6,6,0,0,1-1-.19,1.31,1.31,0,0,1-.66-.46,1.61,1.61,0,0,1-.26-1,1.86,1.86,0,0,1,.26-1,1.62,1.62,0,0,1,.78-.62,3.39,3.39,0,0,1,1.26-.21,5.14,5.14,0,0,1,.88.08,4.47,4.47,0,0,1,.81.25,3.54,3.54,0,0,1,.73.42l-.8,1a3.56,3.56,0,0,0-.82-.38,3,3,0,0,0-.81-.13,1.65,1.65,0,0,0-.79.15.49.49,0,0,0-.28.45.33.33,0,0,0,.15.29,1,1,0,0,0,.38.14c.15,0,.37.05.66.07h.25a6.05,6.05,0,0,1,1.07.18,1.46,1.46,0,0,1,.72.49,1.63,1.63,0,0,1,.29,1.06,1.89,1.89,0,0,1-.27,1,1.81,1.81,0,0,1-.83.64,3.83,3.83,0,0,1-1.35.21Z"/><path class="cls-4" d="M121.86,271.54h1.32v1.33h-1.32Zm0,2.32h1.32v5.8h-1.32Z"/><path class="cls-4" d="M125.5,279.46a1.8,1.8,0,0,1-.67-.83,3.23,3.23,0,0,1-.23-1.31v-1.11a3.32,3.32,0,0,1,.23-1.32,1.81,1.81,0,0,1,.66-.84,1.89,1.89,0,0,1,1.05-.28,1.59,1.59,0,0,1,.9.27,1.9,1.9,0,0,1,.65.77L128,276a1.26,1.26,0,0,0-.11-.57.82.82,0,0,0-.34-.35A1.13,1.13,0,0,0,127,275a1,1,0,0,0-.78.33,1.34,1.34,0,0,0-.27.9v1.1a1.33,1.33,0,0,0,.27.89,1,1,0,0,0,.78.31,1.13,1.13,0,0,0,.54-.12.9.9,0,0,0,.34-.36,1.26,1.26,0,0,0,.11-.57l.08,1.28a1.52,1.52,0,0,1-1.48,1A1.89,1.89,0,0,1,125.5,279.46Zm.59,2.55-.53-.24a1.91,1.91,0,0,1-.82-.68l.9-.83a1.38,1.38,0,0,0,.49.41,1.48,1.48,0,0,0,.62.14,1.29,1.29,0,0,0,.9-.31,1.19,1.19,0,0,0,.32-.88v-5.76h1.34v5.62a2.89,2.89,0,0,1-.3,1.37,2,2,0,0,1-.87.87,3.06,3.06,0,0,1-1.38.29Z"/><path class="cls-4" d="M130.93,273.86h1.33v5.8h-1.33Zm3.43,2.28a1.08,1.08,0,0,0-.28-.8,1,1,0,0,0-.79-.28.92.92,0,0,0-1,1l-.11-1.2a1.93,1.93,0,0,1,.66-.81,1.56,1.56,0,0,1,.94-.28,1.78,1.78,0,0,1,1.44.61,2.7,2.7,0,0,1,.51,1.75v3.52h-1.34Z"/><path class="cls-4" d="M64.6,287H59.93v.63a3.46,3.46,0,0,1-.65,2.34l-.23-.23a2.24,2.24,0,0,0,.41-.8,3.1,3.1,0,0,0,.15-.92v-1.34h5Zm-.16-1.75h-1a3.47,3.47,0,0,1-.68.61,12.37,12.37,0,0,1,1.35.42l-.18.26a11.13,11.13,0,0,0-1.57-.48,6,6,0,0,1-2.25.44l-.11-.29a8.85,8.85,0,0,0,1.85-.28c-.49-.11-1-.21-1.49-.28l.15-.27c.66.11,1.26.23,1.81.37a2.92,2.92,0,0,0,.68-.5H59.4V285h2.38a1.94,1.94,0,0,0-.27-.44l.29-.14a2.56,2.56,0,0,1,.34.58h2.3Zm.1,4.54H60v-.31h2.19v-.6H60.62v-.31h1.55v-.55H60.81a3.08,3.08,0,0,1-.5.52l-.2-.26a3.41,3.41,0,0,0,.84-1.1l.3.1a4,4,0,0,1-.23.43h1.15v-.52h.31v.52h1.75v.31H62.48v.55H64.1v.31H62.48v.6h2.06Z"/><path class="cls-4" d="M67.81,290h-.33v-.45h-1.4V290h-.34v-2.78h2.07Zm-.33-.77v-1.68h-1.4v1.68Zm2.67-2.73H66.4v-1.89h3.75Zm-.34-.32V284.9H66.74v1.25Zm.84,3.82h-.33v-.45H68.9V290h-.34v-2.78h2.09Zm-.33-.77v-1.68H68.9v1.68Z"/><path class="cls-4" d="M74,285.39H71.77v-.33h1a2.48,2.48,0,0,0-.25-.56l.29-.13a3.09,3.09,0,0,1,.31.69H74Zm-.18,1.86h-2v-.32h2Zm0-.93H71.9V286h1.95Zm-.1,3.53h-.33v-.35H72.27V290h-.33v-2.12h1.81Zm-.33-.68v-1H72.27v1Zm3.88.56-.19.27a5,5,0,0,1-1.49-.73,5.22,5.22,0,0,1-1.52.7l-.2-.28a4.43,4.43,0,0,0,1.44-.65,3.46,3.46,0,0,1-1-1.61h-.21v-.33h2.66v.33a4.2,4.2,0,0,1-1,1.62A5.15,5.15,0,0,0,77.3,289.73Zm0-3h-.61c-.31,0-.46-.15-.46-.44v-1.37H75.08a3.24,3.24,0,0,1-.23,1.31,1.72,1.72,0,0,1-.61.67l-.25-.23a1.57,1.57,0,0,0,.59-.66,3.42,3.42,0,0,0,.18-1.4h1.76v1.58c0,.15.07.22.21.22h.54Zm-.8.7H74.72a3.26,3.26,0,0,0,.89,1.41A3.21,3.21,0,0,0,76.47,287.43Z"/><path class="cls-4" d="M80.76,285.52H78.13v-.34h1.2a4.35,4.35,0,0,0-.38-.68l.32-.12a4.38,4.38,0,0,1,.43.8h1.06Zm-.32.9h-2v-.32h2Zm0,.9h-2V287h2Zm0,2.6h-.33v-.31H78.75V290h-.33v-2h2Zm-.33-.65v-1H78.75v1Zm3.56-2.69H82.4V290h-.34v-3.41H80.79v-.34h1.27v-1.8h.34v1.8h1.27Z"/><text class="cls-5" transform="translate(58.63 468.04)">產品設計</text></g></g></svg>