<svg xmlns="http://www.w3.org/2000/svg" viewBox="0 0 191.11 509.87"><defs><style>.cls-1{opacity:0.28;}.cls-2{fill:#282828;}.cls-3,.cls-4{fill:#fff;}.cls-4{font-size:10.68px;font-family:MicrosoftJhengHeiBold, Microsoft JhengHei;font-weight:700;}.cls-5{fill:#5fc1c7;}.cls-6{fill:none;stroke:#5fc1c7;stroke-miterlimit:10;}</style></defs><title>website0_1</title><g id="圖層_2" data-name="圖層 2"><g id="圖層_3" data-name="圖層 3"><polygon class="cls-2" points="85.4 0 27.87 0 52.91 119.02 85.4 0"/><polygon class="cls-2" points="163.25 0 105.71 0 138.2 119.02 163.25 0"/><polygon class="cls-2" points="152.19 164.04 125.91 164.04 96.23 49.41 65.21 164.04 38.92 164.04 0 0 0 509.87 191.11 509.87 191.11 0 152.19 164.04"/><path class="cls-3" d="M40.52,288.21v2.6L25.32,295l15.2,3.2v3.56l-21-5v-3.36l14.65-3.79-14.65-4v-3.35l21-5v3.56l-15.2,3.2Z"/><path class="cls-3" d="M19.35,307l.78-1.5a5.31,5.31,0,0,1,2.28-2.29,7.73,7.73,0,0,1,3.64-.79h1.69a8.6,8.6,0,0,1,3.79.76,5.32,5.32,0,0,1,2.39,2.2,6.94,6.94,0,0,1,.82,3.48,5.55,5.55,0,0,1-1,3.28A6,6,0,0,1,31,314.24a12.11,12.11,0,0,1-4.38.71h-1V304.79h2.52v7h.16a4.26,4.26,0,0,0,2.43-.88,2.46,2.46,0,0,0,.87-2,3,3,0,0,0-1-2.4,4.05,4.05,0,0,0-2.76-.86H26a3.21,3.21,0,0,0-3.53,3.52,4.49,4.49,0,0,0,.33,1.68,4.83,4.83,0,0,0,.9,1.49l-2.11,2.25A8.38,8.38,0,0,1,19.93,312a7.42,7.42,0,0,1-.58-2.86Z"/><path class="cls-3" d="M20,323.41a4,4,0,0,1,1.89-1.47l3.28.2a3.2,3.2,0,0,0-1.45.3,2.17,2.17,0,0,0-.92.88,2.9,2.9,0,0,0-.31,1.4,2.49,2.49,0,0,0,.8,2,3.37,3.37,0,0,0,2.29.71h2.81a3.55,3.55,0,0,0,2.35-.71,2.47,2.47,0,0,0,.83-2,3,3,0,0,0-.31-1.4,2.17,2.17,0,0,0-.92-.88,3.25,3.25,0,0,0-1.46-.3l3.1-.3a5,5,0,0,1,2,1.68,4.06,4.06,0,0,1,.71,2.31,4.89,4.89,0,0,1-.73,2.72,4.57,4.57,0,0,1-2.16,1.72,8.77,8.77,0,0,1-3.42.59H25.6a8.62,8.62,0,0,1-3.38-.6,4.55,4.55,0,0,1-2.14-1.75,5,5,0,0,1-.73-2.75A4.08,4.08,0,0,1,20,323.41Zm20.5-4.71v3.44h-21V318.7Z"/><path class="cls-3" d="M19.35,338.92s.08-.4.25-1.21a11,11,0,0,1,.74-2.27,8.82,8.82,0,0,1,1.2-1.91l2.59,2.09A9.65,9.65,0,0,0,22.91,338a6.89,6.89,0,0,0-.42,2.31,5.23,5.23,0,0,0,.43,2.39,1.33,1.33,0,0,0,1.23.81,1.1,1.1,0,0,0,.93-.4,2.36,2.36,0,0,0,.42-1c.08-.41.15-1,.22-1.72l0-.39c0-.14,0-.27,0-.39a.49.49,0,0,1,0-.12s0-.07,0-.11a13.57,13.57,0,0,1,.48-2.58A3.34,3.34,0,0,1,27.48,335a4,4,0,0,1,2.52-.69,4.64,4.64,0,0,1,2.6.69,4.11,4.11,0,0,1,1.6,2,8.63,8.63,0,0,1,.54,3.25,11.15,11.15,0,0,1-.22,2.25,11.38,11.38,0,0,1-.65,2.1,9.74,9.74,0,0,1-1.06,1.89l-2.51-2.06a9.32,9.32,0,0,0,1-2.12,7.09,7.09,0,0,0,.33-2.08,4.37,4.37,0,0,0-.39-2.07,1.24,1.24,0,0,0-1.15-.7.84.84,0,0,0-.75.39,2.42,2.42,0,0,0-.35,1c-.07.39-.13.95-.2,1.69a1.79,1.79,0,0,0,0,.23c0,.07,0,.14,0,.22v.1a.5.5,0,0,1,0,.12,15.09,15.09,0,0,1-.47,2.75A3.66,3.66,0,0,1,27,345.84a4.29,4.29,0,0,1-2.75.76,4.71,4.71,0,0,1-2.67-.72,4.35,4.35,0,0,1-1.65-2.14,9.63,9.63,0,0,1-.55-3.48Z"/><path class="cls-3" d="M34.53,350v3.43h-15V350Zm6,0v3.43H37.08V350Z"/><path class="cls-3" d="M20.49,358.74a4.37,4.37,0,0,1,3-.88H38.88v3.44h-15a1.45,1.45,0,0,0-.84.22.73.73,0,0,0-.3.63v1.2h-3.3v-1.84A3.52,3.52,0,0,1,20.49,358.74Zm14-2.42v7h-3v-7Z"/><path class="cls-3" d="M19.35,371.25l.78-1.5a5.31,5.31,0,0,1,2.28-2.29,7.73,7.73,0,0,1,3.64-.79h1.69a8.74,8.74,0,0,1,3.79.75,5.34,5.34,0,0,1,2.39,2.21,6.89,6.89,0,0,1,.82,3.48,5.55,5.55,0,0,1-1,3.28A5.87,5.87,0,0,1,31,378.46a11.89,11.89,0,0,1-4.38.72h-1V369h2.52v7l.16,0a4.19,4.19,0,0,0,2.43-.88,2.44,2.44,0,0,0,.87-2,3.06,3.06,0,0,0-1-2.41,4.05,4.05,0,0,0-2.76-.85H26a3.2,3.2,0,0,0-3.53,3.52,4.53,4.53,0,0,0,.33,1.68,4.83,4.83,0,0,0,.9,1.49l-2.11,2.25a8.38,8.38,0,0,1-1.65-2.56,7.46,7.46,0,0,1-.58-2.86Z"/><path class="cls-3" d="M34.53,389.56V393l-10,2.65,10,3.44v2.19l-10,3.45,10,2.65v3.43l-15-4.61v-2.58l10.05-3.43-10-3.43v-2.58Z"/><path class="cls-3" d="M20.11,415.87a5.08,5.08,0,0,1,2.23-2.17,7.75,7.75,0,0,1,3.52-.74H28.3a7.64,7.64,0,0,1,3.48.74A5.09,5.09,0,0,1,34,415.87a8.1,8.1,0,0,1,0,6.81,5.09,5.09,0,0,1-2.21,2.17,7.64,7.64,0,0,1-3.48.74H25.82a7.62,7.62,0,0,1-3.49-.74,5.11,5.11,0,0,1-2.22-2.17,8,8,0,0,1,0-6.81Zm3.37,5.52a3.36,3.36,0,0,0,2.34.75H28.3a3.32,3.32,0,0,0,2.32-.75,3.14,3.14,0,0,0,0-4.23,3.32,3.32,0,0,0-2.32-.75H25.82a3.35,3.35,0,0,0-2.34.74,3.12,3.12,0,0,0,0,4.24Z"/><path class="cls-3" d="M34.53,429.48v3.59h-15v-3.59ZM31.25,437a3.23,3.23,0,0,0,.19-1.17,2.63,2.63,0,0,0-.77-2,3.05,3.05,0,0,0-2.14-.71l3.39-.3A5.33,5.33,0,0,1,34,434.46a3.92,3.92,0,0,1,.74,2.3,5.21,5.21,0,0,1-.29,1.77,4,4,0,0,1-.88,1.39l-2.89-2.11A2.2,2.2,0,0,0,31.25,437Z"/><path class="cls-3" d="M40.52,442.08v3.44h-21v-3.44Zm-12.77,5.06,2,2.58-10.15,5.8v-3.87Zm-2.65-3.51L34.53,451v3.82l-13.35-11Z"/><path class="cls-3" d="M19.35,461.85s.08-.4.25-1.21a11,11,0,0,1,.74-2.27,9.07,9.07,0,0,1,1.2-1.91l2.59,2.09a9.83,9.83,0,0,0-1.22,2.33,6.89,6.89,0,0,0-.42,2.31,5.2,5.2,0,0,0,.43,2.39,1.33,1.33,0,0,0,1.23.81,1.1,1.1,0,0,0,.93-.4,2.36,2.36,0,0,0,.42-1c.08-.41.15-1,.22-1.72l0-.39c0-.13,0-.26,0-.39a.41.41,0,0,1,0-.11s0-.08,0-.12a13.57,13.57,0,0,1,.48-2.58A3.34,3.34,0,0,1,27.48,458a4,4,0,0,1,2.52-.69,4.64,4.64,0,0,1,2.6.69,4.11,4.11,0,0,1,1.6,2,8.65,8.65,0,0,1,.54,3.26,11.29,11.29,0,0,1-.22,2.25,11.52,11.52,0,0,1-.65,2.09,10.12,10.12,0,0,1-1.06,1.9l-2.51-2.06a9.38,9.38,0,0,0,1-2.13,7.09,7.09,0,0,0,.33-2.08,4.33,4.33,0,0,0-.39-2.06,1.25,1.25,0,0,0-1.15-.71.84.84,0,0,0-.75.39,2.42,2.42,0,0,0-.35,1c-.07.39-.13,1-.2,1.7a1.64,1.64,0,0,0,0,.22c0,.07,0,.15,0,.22v.1a.5.5,0,0,1,0,.12,15.09,15.09,0,0,1-.47,2.75A3.66,3.66,0,0,1,27,468.77a4.29,4.29,0,0,1-2.75.76,4.71,4.71,0,0,1-2.67-.72,4.35,4.35,0,0,1-1.65-2.14,9.55,9.55,0,0,1-.55-3.48Z"/><text class="cls-4" transform="translate(59.77 468.04)">網頁作品</text><path class="cls-5" d="M59.58,277.37h1.34v8.12H59.58Zm.56,0H64.8v1.28H60.14Zm0,3.53h4v1.27h-4Z"/><path class="cls-5" d="M65.87,279.69h1.39v5.8H65.87ZM68.76,281a1.25,1.25,0,0,0-.45-.08,1,1,0,0,0-.78.3,1.18,1.18,0,0,0-.27.83l-.12-1.31a2,2,0,0,1,.65-.81,1.53,1.53,0,0,1,.9-.29,1.83,1.83,0,0,1,.68.12,1.43,1.43,0,0,1,.54.33l-.82,1.13A.83.83,0,0,0,68.76,281Z"/><path class="cls-5" d="M71.59,285.28a2,2,0,0,1-.84-.86,3,3,0,0,1-.28-1.37v-.94a2.93,2.93,0,0,1,.28-1.35,2,2,0,0,1,.84-.86,2.86,2.86,0,0,1,1.32-.29,2.8,2.8,0,0,1,1.32.29,1.94,1.94,0,0,1,.84.86,2.93,2.93,0,0,1,.29,1.35v1a2.93,2.93,0,0,1-.29,1.35,1.94,1.94,0,0,1-.84.86,2.68,2.68,0,0,1-1.32.29A2.74,2.74,0,0,1,71.59,285.28Zm2.14-1.3a1.29,1.29,0,0,0,.29-.91v-1a1.25,1.25,0,0,0-.29-.9,1,1,0,0,0-.82-.32,1.06,1.06,0,0,0-.82.32,1.3,1.3,0,0,0-.29.9v1a1.34,1.34,0,0,0,.29.91,1.21,1.21,0,0,0,1.64,0Z"/><path class="cls-5" d="M76.86,279.69H78.2v5.8H76.86ZM80.3,282a1,1,0,0,0-1.07-1.09,1.06,1.06,0,0,0-.76.26,1,1,0,0,0-.27.76l-.12-1.2a2.21,2.21,0,0,1,.66-.82,1.58,1.58,0,0,1,.94-.28,1.77,1.77,0,0,1,1.44.62,2.65,2.65,0,0,1,.51,1.74v3.52H80.3Z"/><path class="cls-5" d="M82.81,279.69h2.72v1.17H82.81Zm.93,5.44A1.73,1.73,0,0,1,83.4,284v-6h1.34v5.79a.62.62,0,0,0,.08.33.31.31,0,0,0,.25.11h.46v1.28h-.71A1.37,1.37,0,0,1,83.74,285.13Z"/><path class="cls-5" d="M90.85,281.94v1.28H87v-1.28Z"/><path class="cls-5" d="M94.07,285.57l-.58-.3a2,2,0,0,1-.89-.88,3.06,3.06,0,0,1-.3-1.41v-.66a3.25,3.25,0,0,1,.29-1.46,2.08,2.08,0,0,1,.85-.93,2.75,2.75,0,0,1,1.35-.32,2.19,2.19,0,0,1,1.27.37,2.38,2.38,0,0,1,.81,1.08,4.72,4.72,0,0,1,.27,1.69v.38H93.21v-1H95.9v-.06a1.71,1.71,0,0,0-.34-1,1,1,0,0,0-.77-.33,1.17,1.17,0,0,0-.93.37,1.59,1.59,0,0,0-.33,1.07V283a1.25,1.25,0,0,0,1.36,1.37,1.64,1.64,0,0,0,.65-.13,1.8,1.8,0,0,0,.58-.35l.87.82a3.06,3.06,0,0,1-1,.64,2.89,2.89,0,0,1-1.11.22Z"/><path class="cls-5" d="M98.6,279.69h1.33v5.8H98.6ZM102,282a1,1,0,0,0-1.07-1.09,1.06,1.06,0,0,0-.76.26,1,1,0,0,0-.27.76l-.12-1.2a2.21,2.21,0,0,1,.66-.82,1.58,1.58,0,0,1,.94-.28,1.77,1.77,0,0,1,1.44.62,2.65,2.65,0,0,1,.51,1.74v3.52H102Z"/><path class="cls-5" d="M105.72,285.3a1.8,1.8,0,0,1-.67-.83,3.31,3.31,0,0,1-.24-1.32v-1.1a3.43,3.43,0,0,1,.23-1.32,1.84,1.84,0,0,1,.67-.84,1.88,1.88,0,0,1,1.05-.29,1.59,1.59,0,0,1,.9.27,2,2,0,0,1,.65.77l-.12,1.24a1.38,1.38,0,0,0-.11-.57.85.85,0,0,0-.34-.36,1.15,1.15,0,0,0-.55-.12,1,1,0,0,0-.77.32,1.39,1.39,0,0,0-.27.91v1.09a1.33,1.33,0,0,0,.27.89,1,1,0,0,0,.77.32,1,1,0,0,0,.55-.13.85.85,0,0,0,.34-.36,1.33,1.33,0,0,0,.11-.56l.08,1.27a1.55,1.55,0,0,1-.55.73,1.6,1.6,0,0,1-.93.28A1.94,1.94,0,0,1,105.72,285.3Zm2.47-7.93h1.34v8.12h-1.34Z"/><path class="cls-5" d="M115.83,285.57l-.59-.3a2,2,0,0,1-.88-.88,2.94,2.94,0,0,1-.31-1.41v-.66a3.39,3.39,0,0,1,.29-1.46,2,2,0,0,1,.86-.93,2.7,2.7,0,0,1,1.35-.32,2.23,2.23,0,0,1,1.27.37,2.3,2.3,0,0,1,.8,1.08,4.71,4.71,0,0,1,.28,1.69v.38H115v-1h2.7v-.06a1.71,1.71,0,0,0-.34-1,1,1,0,0,0-.76-.33,1.18,1.18,0,0,0-.94.37,1.59,1.59,0,0,0-.33,1.07V283a1.34,1.34,0,0,0,.36,1,1.36,1.36,0,0,0,1,.36,1.68,1.68,0,0,0,.65-.13,1.87,1.87,0,0,0,.57-.35l.88.82a3.22,3.22,0,0,1-1,.64,2.84,2.84,0,0,1-1.1.22Z"/><path class="cls-5" d="M120.35,279.69h1.33v5.8h-1.33Zm3.43,2.29a1,1,0,0,0-1.07-1.09,1.06,1.06,0,0,0-.76.26,1,1,0,0,0-.27.76l-.11-1.2a2,2,0,0,1,.66-.82,1.56,1.56,0,0,1,.94-.28,1.77,1.77,0,0,1,1.44.62,2.65,2.65,0,0,1,.51,1.74v3.52h-1.34Z"/><path class="cls-5" d="M127.48,285.3a1.76,1.76,0,0,1-.68-.83,3.32,3.32,0,0,1-.23-1.32v-1.1a3.25,3.25,0,0,1,.23-1.32,1.76,1.76,0,0,1,.66-.84,1.93,1.93,0,0,1,1.06-.29,1.58,1.58,0,0,1,.89.27,2,2,0,0,1,.65.77l-.11,1.24a1.23,1.23,0,0,0-.12-.57.79.79,0,0,0-.34-.36,1.13,1.13,0,0,0-.54-.12,1,1,0,0,0-.77.32,1.34,1.34,0,0,0-.28.91v1.09a1.28,1.28,0,0,0,.28.89,1,1,0,0,0,.77.32,1,1,0,0,0,.54-.13.79.79,0,0,0,.34-.36,1.19,1.19,0,0,0,.12-.56l.07,1.27a1.55,1.55,0,0,1-.55.73,1.58,1.58,0,0,1-.93.28A1.91,1.91,0,0,1,127.48,285.3Zm.58,2.55-.53-.25a1.91,1.91,0,0,1-.82-.68l.9-.82a1.31,1.31,0,0,0,.5.4,1.43,1.43,0,0,0,.61.14,1.25,1.25,0,0,0,.9-.31,1.15,1.15,0,0,0,.33-.87v-5.77h1.33v5.63a2.92,2.92,0,0,1-.3,1.37,2,2,0,0,1-.87.86,2.93,2.93,0,0,1-1.38.3Z"/><path class="cls-5" d="M132.86,277.37h1.33v1.34h-1.33Zm0,2.32h1.33v5.8h-1.33Z"/><path class="cls-5" d="M135.77,279.69h1.33v5.8h-1.33ZM139.2,282a1,1,0,0,0-1.07-1.09,1.06,1.06,0,0,0-.76.26,1,1,0,0,0-.27.76l-.11-1.2a2,2,0,0,1,.66-.82,1.56,1.56,0,0,1,.94-.28,1.77,1.77,0,0,1,1.44.62,2.65,2.65,0,0,1,.51,1.74v3.52H139.2Z"/><path class="cls-5" d="M143.76,285.57l-.58-.3a2,2,0,0,1-.88-.88A2.94,2.94,0,0,1,142,283v-.66a3.39,3.39,0,0,1,.29-1.46,2,2,0,0,1,.86-.93,2.7,2.7,0,0,1,1.35-.32,2.23,2.23,0,0,1,1.27.37,2.36,2.36,0,0,1,.8,1.08,4.71,4.71,0,0,1,.28,1.69v.38H142.9v-1h2.7v-.06a1.71,1.71,0,0,0-.34-1,1,1,0,0,0-.76-.33,1.18,1.18,0,0,0-.94.37,1.59,1.59,0,0,0-.33,1.07V283a1.34,1.34,0,0,0,.36,1,1.36,1.36,0,0,0,1,.36,1.68,1.68,0,0,0,.65-.13,1.87,1.87,0,0,0,.57-.35l.88.82a3.22,3.22,0,0,1-1,.64,2.84,2.84,0,0,1-1.1.22Z"/><path class="cls-5" d="M149.9,285.57l-.59-.3a2,2,0,0,1-.88-.88,2.94,2.94,0,0,1-.31-1.41v-.66a3.39,3.39,0,0,1,.29-1.46,2,2,0,0,1,.86-.93,2.7,2.7,0,0,1,1.35-.32,2.23,2.23,0,0,1,1.27.37,2.3,2.3,0,0,1,.8,1.08,4.71,4.71,0,0,1,.28,1.69v.38H149v-1h2.7v-.06a1.71,1.71,0,0,0-.34-1,1,1,0,0,0-.76-.33,1.18,1.18,0,0,0-.94.37,1.59,1.59,0,0,0-.33,1.07V283a1.34,1.34,0,0,0,.36,1,1.36,1.36,0,0,0,1,.36,1.68,1.68,0,0,0,.65-.13,1.87,1.87,0,0,0,.57-.35l.88.82a3.22,3.22,0,0,1-1,.64,2.84,2.84,0,0,1-1.1.22Z"/><path class="cls-5" d="M154.42,279.69h1.39v5.8h-1.39Zm2.9,1.28a1.3,1.3,0,0,0-.46-.08,1,1,0,0,0-.78.3,1.18,1.18,0,0,0-.27.83l-.12-1.31a2.07,2.07,0,0,1,.66-.81,1.5,1.5,0,0,1,.89-.29,1.83,1.83,0,0,1,.68.12,1.36,1.36,0,0,1,.54.33l-.81,1.13A.83.83,0,0,0,157.32,281Z"/><path class="cls-5" d="M159.26,277.37h1.33v1.34h-1.33Zm0,2.32h1.33v5.8h-1.33Z"/><path class="cls-5" d="M162.17,279.69h1.33v5.8h-1.33ZM165.6,282a1,1,0,0,0-1.07-1.09,1.06,1.06,0,0,0-.76.26,1,1,0,0,0-.27.76l-.11-1.2a2,2,0,0,1,.66-.82,1.56,1.56,0,0,1,.94-.28,1.78,1.78,0,0,1,1.44.62,2.65,2.65,0,0,1,.51,1.74v3.52H165.6Z"/><path class="cls-5" d="M169.29,285.3a1.8,1.8,0,0,1-.67-.83,3.32,3.32,0,0,1-.23-1.32v-1.1a3.25,3.25,0,0,1,.23-1.32,1.76,1.76,0,0,1,.66-.84,1.93,1.93,0,0,1,1.06-.29,1.58,1.58,0,0,1,.89.27,2,2,0,0,1,.65.77l-.11,1.24a1.23,1.23,0,0,0-.12-.57.79.79,0,0,0-.34-.36,1.13,1.13,0,0,0-.54-.12,1,1,0,0,0-.77.32,1.34,1.34,0,0,0-.28.91v1.09a1.28,1.28,0,0,0,.28.89,1,1,0,0,0,.77.32,1,1,0,0,0,.54-.13.79.79,0,0,0,.34-.36,1.19,1.19,0,0,0,.12-.56l.07,1.27a1.55,1.55,0,0,1-.55.73,1.58,1.58,0,0,1-.93.28A2,2,0,0,1,169.29,285.3Zm.59,2.55-.53-.25a1.91,1.91,0,0,1-.82-.68l.9-.82a1.31,1.31,0,0,0,.5.4,1.43,1.43,0,0,0,.61.14,1.25,1.25,0,0,0,.9-.31,1.15,1.15,0,0,0,.33-.87v-5.77h1.33v5.63a2.92,2.92,0,0,1-.3,1.37,2,2,0,0,1-.87.86,2.93,2.93,0,0,1-1.38.3Z"/><path class="cls-5" d="M61.69,295.4a.44.44,0,0,1-.11.29.38.38,0,0,1-.3.12h-.73l-.12-.34.79,0a.14.14,0,0,0,.1-.05.15.15,0,0,0,0-.11v-.92H59.92a3.35,3.35,0,0,1-.61,1.45l-.26-.23a3.68,3.68,0,0,0,.61-2.29v-1.41h2Zm2.88-4H59.06v-.32h5.51Zm-3.21,2.72v-.78H60c0,.16,0,.42,0,.78Zm0-1.11v-.73H60V293Zm0-2.16L61,291a4.06,4.06,0,0,0-.63-.59l.35-.14A4.21,4.21,0,0,1,61.36,290.83Zm1.94-.43a2.7,2.7,0,0,1-.62.56l-.34-.17a3.37,3.37,0,0,0,.67-.55Zm-.47,4.35h-.32V292h.32Zm1.25.6a.45.45,0,0,1-.08.29.38.38,0,0,1-.21.15l-.49,0h-.45l-.12-.35.87,0c.11,0,.16-.06.16-.19v-3.42h.32Z"/><path class="cls-5" d="M67.41,291.58H67l.23.21c0,.66-.15,1.67-.35,3l.47-.17,0,.34a14.24,14.24,0,0,1-1.87.55l-.07-.33a3.89,3.89,0,0,0,.49-.12,26.61,26.61,0,0,0-.22-3.31l.25-.2h-.44v-.32h.83a8.77,8.77,0,0,0-.31-.89l.29-.11a6.47,6.47,0,0,1,.34,1h.79Zm-.53,0H66a30.33,30.33,0,0,1,.24,3.43l.28-.08A26.47,26.47,0,0,0,66.88,291.58Zm4.07,1H69.27a6,6,0,0,1-.26.71H70.7v2.06c0,.29-.17.43-.53.43H70l-.08-.31h.22c.16,0,.25-.07.25-.21v-1.66h-.61v2h-.31v-2h-.61v2h-.31v-2h-.62v2.2h-.31v-2.51h1a5.44,5.44,0,0,0,.26-.71H67.37v-.3H71Zm-.33-.93H67.73v-1.12h.32v.81H69v-1.09h.32v1.09h1v-.81h.33Z"/><path class="cls-5" d="M77.33,295.52H71.78v-.33h2.6v-4.32H72v-.35h5v.35H74.72v4.32h2.61Z"/><path class="cls-5" d="M80.29,293.41l-.23.26a4.93,4.93,0,0,0-.55-.8v2.94h-.33v-2.95a9,9,0,0,1-.86,1.57l-.22-.26a8.81,8.81,0,0,0,1.06-2h-1v-.32h1.05v-.94l-.78.14-.17-.31a6.81,6.81,0,0,0,1.84-.44l.19.29q-.47.17-.75.24v1h.75v.32h-.75v.26A5.87,5.87,0,0,1,80.29,293.41Zm3.36,2.25H80.08v-.31h1.63v-1H80.3v-.32h1.41v-.92l-1.26.07-.15-.32a14.91,14.91,0,0,0,3-.34l.22.29c-.43.1-.93.18-1.5.26v1h1.37v.32H82v1h1.61Zm-.4-3.48H80.52v-1.73h2.73Zm-.34-.32v-1.1h-2v1.1Z"/><path class="cls-5" d="M60.81,323.23a2.32,2.32,0,0,1-1-1,3.7,3.7,0,0,1-.34-1.63v-5.18h1.34v5.22a1.69,1.69,0,0,0,.41,1.22,1.75,1.75,0,0,0,2.32,0,1.69,1.69,0,0,0,.42-1.22v-5.22h1.33v5.18A3.57,3.57,0,0,1,65,322.2a2.32,2.32,0,0,1-1,1,3.6,3.6,0,0,1-3.14,0Z"/><path class="cls-5" d="M68.27,323.5H66.91v-8.11h1.36Z"/><path class="cls-5" d="M70.32,325H69.05l3.71-10.62H74Z"/><path class="cls-5" d="M76.11,323.23a2.3,2.3,0,0,1-1-1,3.57,3.57,0,0,1-.34-1.63v-5.18h1.33v5.22a1.73,1.73,0,0,0,.41,1.22,1.51,1.51,0,0,0,1.16.44,1.55,1.55,0,0,0,1.17-.44,1.73,1.73,0,0,0,.41-1.22v-5.22h1.33v5.18a3.57,3.57,0,0,1-.34,1.63,2.32,2.32,0,0,1-1,1,3.6,3.6,0,0,1-3.14,0Z"/><path class="cls-5" d="M84.2,318.69l1.93-3.3h1.44l-2.68,4.48-2.12,3.63H81.32Zm0,1.37-.16-.28-2.66-4.39h1.44l1.89,3.19.2.33,2.78,4.59H86.25Z"/><path class="cls-5" d="M91.66,317.71h1.39v5.79H91.66Zm2.9,1.27a1.25,1.25,0,0,0-.45-.08,1,1,0,0,0-.78.3,1.16,1.16,0,0,0-.28.83l-.12-1.31a2.07,2.07,0,0,1,.66-.81,1.53,1.53,0,0,1,.89-.29,1.92,1.92,0,0,1,.69.12,1.55,1.55,0,0,1,.53.34l-.81,1.12A.83.83,0,0,0,94.56,319Z"/><path class="cls-5" d="M98,323.59l-.58-.3a2.07,2.07,0,0,1-.89-.89,2.94,2.94,0,0,1-.31-1.41v-.65a3.44,3.44,0,0,1,.29-1.47,2,2,0,0,1,.86-.93,2.7,2.7,0,0,1,1.35-.32A2.14,2.14,0,0,1,100,318a2.22,2.22,0,0,1,.8,1.07,4.55,4.55,0,0,1,.28,1.7v.38H97.17v-1h2.7v-.06a1.58,1.58,0,0,0-.34-.94.93.93,0,0,0-.76-.34,1.18,1.18,0,0,0-.94.38,1.57,1.57,0,0,0-.32,1.07V321a1.38,1.38,0,0,0,.35,1,1.41,1.41,0,0,0,1,.35,1.87,1.87,0,0,0,.65-.12,2.3,2.3,0,0,0,.58-.35l.87.81a3.29,3.29,0,0,1-1,.64,2.94,2.94,0,0,1-1.11.23Z"/><path class="cls-5" d="M104.17,323.59l-.47-.1a4.32,4.32,0,0,1-.88-.29,3.29,3.29,0,0,1-.74-.46l.81-1a3.8,3.8,0,0,0,.91.48,2.58,2.58,0,0,0,.89.16,2.07,2.07,0,0,0,.93-.16.51.51,0,0,0,.31-.48.43.43,0,0,0-.15-.36,1,1,0,0,0-.4-.17c-.16,0-.38-.05-.67-.08h-.15l-.15,0h-.09a6.16,6.16,0,0,1-1-.19,1.28,1.28,0,0,1-.65-.46,1.55,1.55,0,0,1-.27-1,1.81,1.81,0,0,1,.27-1,1.63,1.63,0,0,1,.78-.62,3.32,3.32,0,0,1,1.26-.21,4.14,4.14,0,0,1,.87.09,4.47,4.47,0,0,1,.81.25,4.1,4.1,0,0,1,.74.41l-.8,1a4.06,4.06,0,0,0-.83-.37,2.53,2.53,0,0,0-.8-.13,1.7,1.7,0,0,0-.8.15.48.48,0,0,0-.27.45.33.33,0,0,0,.15.29,1,1,0,0,0,.37.14c.15,0,.37.05.66.07h.26a6,6,0,0,1,1.06.19,1.32,1.32,0,0,1,.72.49,1.63,1.63,0,0,1,.3,1.06,1.84,1.84,0,0,1-.28,1,1.68,1.68,0,0,1-.83.63,3.6,3.6,0,0,1-1.35.22Z"/><path class="cls-5" d="M110.1,323.59l-.58-.3a2.07,2.07,0,0,1-.89-.89,2.94,2.94,0,0,1-.31-1.41v-.65a3.44,3.44,0,0,1,.29-1.47,2,2,0,0,1,.86-.93,2.7,2.7,0,0,1,1.35-.32,2.14,2.14,0,0,1,1.27.38,2.22,2.22,0,0,1,.8,1.07,4.55,4.55,0,0,1,.28,1.7v.38h-3.94v-1h2.7v-.06a1.58,1.58,0,0,0-.34-.94.93.93,0,0,0-.76-.34,1.18,1.18,0,0,0-.94.38,1.57,1.57,0,0,0-.32,1.07V321a1.38,1.38,0,0,0,.35,1,1.41,1.41,0,0,0,1,.35,1.87,1.87,0,0,0,.65-.12,2.3,2.3,0,0,0,.58-.35l.87.81a3.29,3.29,0,0,1-1,.64,2.94,2.94,0,0,1-1.11.23Z"/><path class="cls-5" d="M114.84,323.14a1.71,1.71,0,0,1-.5-1.35,1.59,1.59,0,0,1,.5-1.28,2.27,2.27,0,0,1,1.51-.43h1.55l.08,1h-1.62a.91.91,0,0,0-.6.17.63.63,0,0,0-.2.51.6.6,0,0,0,.26.54,1.36,1.36,0,0,0,.78.18,2.44,2.44,0,0,0,.94-.14.45.45,0,0,0,.31-.44l.12.83a.94.94,0,0,1-.33.46,1.67,1.67,0,0,1-.57.27,2.5,2.5,0,0,1-.74.1A2.16,2.16,0,0,1,114.84,323.14Zm3-3.31a.94.94,0,0,0-.29-.75,1.13,1.13,0,0,0-.81-.27,2.16,2.16,0,0,0-.66.1,2.28,2.28,0,0,0-.58.3l-.88-.75a2.26,2.26,0,0,1,.89-.62,3.45,3.45,0,0,1,1.23-.22,2.86,2.86,0,0,1,1.26.26,1.78,1.78,0,0,1,.8.73,2.41,2.41,0,0,1,.28,1.17v3.72h-1.24Z"/><path class="cls-5" d="M120.71,317.71h1.39v5.79h-1.39ZM123.6,319a1.25,1.25,0,0,0-.45-.08,1,1,0,0,0-.78.3,1.2,1.2,0,0,0-.27.83l-.12-1.31a2,2,0,0,1,.65-.81,1.53,1.53,0,0,1,.9-.29,1.83,1.83,0,0,1,.68.12,1.5,1.5,0,0,1,.54.34l-.82,1.12A.83.83,0,0,0,123.6,319Z"/><path class="cls-5" d="M127.06,323.59l-.58-.31a2.05,2.05,0,0,1-.87-.88,3.06,3.06,0,0,1-.3-1.41v-.79a2.94,2.94,0,0,1,.3-1.39,2,2,0,0,1,.87-.88,2.88,2.88,0,0,1,1.39-.31,3.45,3.45,0,0,1,.87.11,2.76,2.76,0,0,1,.74.32,1.85,1.85,0,0,1,.54.5l-.9.85a1.58,1.58,0,0,0-.54-.37,1.74,1.74,0,0,0-.64-.13,1.34,1.34,0,0,0-1,.34,1.28,1.28,0,0,0-.34,1V321a1.33,1.33,0,0,0,.34,1,1.3,1.3,0,0,0,1,.34,1.62,1.62,0,0,0,.65-.14,1.58,1.58,0,0,0,.53-.4l.9.91a1.86,1.86,0,0,1-.55.49,2.4,2.4,0,0,1-.73.31,3.58,3.58,0,0,1-.87.11Z"/><path class="cls-5" d="M131.17,315.39h1.33v8.11h-1.33Zm3.43,4.6a1.08,1.08,0,0,0-.28-.8,1,1,0,0,0-.79-.29,1,1,0,0,0-.76.27,1,1,0,0,0-.27.74l-.11-1.2a2.07,2.07,0,0,1,.66-.81,1.63,1.63,0,0,1,.94-.28,1.77,1.77,0,0,1,1.44.62,2.67,2.67,0,0,1,.51,1.75v3.51H134.6Z"/><path class="cls-5" d="M62.76,331.57c0,1.34-.61,2-1.82,2s-1.73-.64-1.73-1.93V328.7h.53v2.91c0,1,.42,1.5,1.27,1.5s1.22-.49,1.22-1.45v-3h.53Z"/><path class="cls-5" d="M64.5,333.5H64v-4.8h.53Z"/><path class="cls-5" d="M67.84,328.7l-2.31,5.6h-.48l2.3-5.6Z"/><path class="cls-5" d="M71.91,331.57c0,1.34-.6,2-1.81,2s-1.73-.64-1.73-1.93V328.7h.52v2.91c0,1,.43,1.5,1.27,1.5s1.22-.49,1.22-1.45v-3h.53Z"/><path class="cls-5" d="M76.4,333.5h-.65l-1.12-1.85a1.94,1.94,0,0,1-.11-.24h0l-.11.24-1.16,1.85h-.65l1.61-2.41-1.48-2.39h.65l1,1.7a3.79,3.79,0,0,1,.18.34h0c.08-.16.14-.27.19-.35l1-1.69h.61l-1.51,2.38Z"/><path class="cls-5" d="M79.07,328.9h-.83a7.8,7.8,0,0,1-.43,1.55h1.12v2.84H78.6V333h-.78v.41H77.5v-2.3a3.42,3.42,0,0,1-.39.51l-.23-.26a4.79,4.79,0,0,0,1-2.44H77v-.33h2.08Zm-.47,3.74V330.8h-.78v1.84Zm3.86-1.75h-.83v2.93H81.3v-2.93h-1a4.92,4.92,0,0,1-.27,1.84,3.63,3.63,0,0,1-.67,1.09l-.27-.23a2.89,2.89,0,0,0,.68-1.09,4.75,4.75,0,0,0,.19-1.61h-.74v-.31H80v-1.83h-.64v-.33h3v.33h-.71v1.83h.83Zm-1.16-.31v-1.83h-1v1.83Z"/><path class="cls-5" d="M88.8,332.44a3,3,0,0,1-.13,1,.63.63,0,0,1-.22.26,1.56,1.56,0,0,1-.69.09,1.12,1.12,0,0,1-.65-.12.46.46,0,0,1-.14-.38v-1.54H85.63c-.11,1-.83,1.69-2.16,2.12l-.23-.31c1.21-.3,1.9-.91,2.05-1.81H83.74v-.33h1.59c0-.2,0-.49,0-.84h.34c0,.32,0,.6,0,.84H87.3v1.88a.13.13,0,0,0,.07.13,2,2,0,0,0,.49,0,.94.94,0,0,0,.41-.06.32.32,0,0,0,.13-.22,5.73,5.73,0,0,0,.07-.86Zm-.21-2.39h-.33v-.86H86.91v1.09a.17.17,0,0,0,0,.12.16.16,0,0,0,.12.05h1.34v.31H87.08c-.33,0-.5-.18-.5-.54v-1h-1a1.93,1.93,0,0,1-.51,1.14,3.23,3.23,0,0,1-1.68.71l-.18-.31c1.28-.16,2-.68,2-1.54H83.81V330h-.33v-1.17h2.38a1.9,1.9,0,0,0-.31-.49l.35-.13a7,7,0,0,1,.36.62h2.33Z"/><line class="cls-6" x1="125.17" y1="464.68" x2="176.17" y2="464.68"/></g></g></svg>