<svg xmlns="http://www.w3.org/2000/svg" viewBox="0 0 572.02 509.87"><defs><style>.cls-1{fill:#282828;}.cls-2,.cls-3{fill:#fff;}.cls-3{font-size:10.68px;font-family:MicrosoftJhengHeiBold, Microsoft JhengHei;font-weight:700;}.cls-4{fill:#5fc1c7;}.cls-5{fill:#c5c7cd;}.cls-6{fill:#898989;}.cls-7{fill:none;stroke:#5fc1c7;stroke-miterlimit:10;}</style></defs><title>website0-_2</title><g id="圖層_2" data-name="圖層 2"><g id="圖層_4" data-name="圖層 4"><rect class="cls-1" x="191.11" width="380.91" height="509.87"/><polygon class="cls-1" points="85.4 0 27.87 0 52.91 119.02 85.4 0"/><polygon class="cls-1" points="163.25 0 105.71 0 138.2 119.02 163.25 0"/><polygon class="cls-1" points="152.19 164.04 125.91 164.04 96.23 49.41 65.21 164.04 38.92 164.04 0 0 0 509.87 191.11 509.87 191.11 0 152.19 164.04"/><path class="cls-2" d="M170.93,162.77l-1.5-.78a5.28,5.28,0,0,1-2.29-2.29,7.68,7.68,0,0,1-.79-3.64v-1.68a8.71,8.71,0,0,1,.75-3.79,5.37,5.37,0,0,1,2.21-2.4,7,7,0,0,1,3.48-.82,5.55,5.55,0,0,1,3.28,1,5.9,5.9,0,0,1,2.07,2.78,11.89,11.89,0,0,1,.72,4.38v1H168.7v-2.53h7l0-.15a4.26,4.26,0,0,0-.88-2.44,2.43,2.43,0,0,0-2-.86,3,3,0,0,0-2.41,1,4.1,4.1,0,0,0-.85,2.76v1.9a3.2,3.2,0,0,0,3.52,3.53,4.68,4.68,0,0,0,1.68-.32,5.25,5.25,0,0,0,1.49-.9l2.25,2.1a8.38,8.38,0,0,1-2.56,1.65,7.47,7.47,0,0,1-2.86.59Z"/><path class="cls-2" d="M182.61,141.59h3.44v21h-3.44Zm4.71,20.51a3.91,3.91,0,0,1-1.47-1.9l.2-3.27a3.2,3.2,0,0,0,.3,1.45,2.09,2.09,0,0,0,.88.91,2.9,2.9,0,0,0,1.4.32,2.49,2.49,0,0,0,2-.81,3.37,3.37,0,0,0,.71-2.29V153.7a3.5,3.5,0,0,0-.71-2.34,2.47,2.47,0,0,0-2-.83,2.9,2.9,0,0,0-1.4.31,2.09,2.09,0,0,0-.88.91,3.28,3.28,0,0,0-.3,1.46l-.3-3.1a5,5,0,0,1,1.68-2,4,4,0,0,1,2.31-.72,4.9,4.9,0,0,1,2.72.74,4.59,4.59,0,0,1,1.72,2.15,9,9,0,0,1,.59,3.43v2.82a8.58,8.58,0,0,1-.6,3.38,4.56,4.56,0,0,1-1.75,2.14,5,5,0,0,1-2.75.74A4.14,4.14,0,0,1,187.32,162.1Z"/><path class="cls-2" d="M202.83,162.77l-1.21-.26a9.74,9.74,0,0,1-2.27-.74,8.55,8.55,0,0,1-1.91-1.19l2.09-2.6a9.47,9.47,0,0,0,2.32,1.23,7.24,7.24,0,0,0,2.32.41,5.34,5.34,0,0,0,2.38-.42,1.33,1.33,0,0,0,.82-1.23A1.08,1.08,0,0,0,207,157a2.28,2.28,0,0,0-1-.43,16.4,16.4,0,0,0-1.72-.21l-.39,0-.39-.05h-.23a15.36,15.36,0,0,1-2.58-.48,3.42,3.42,0,0,1-1.7-1.19,4.1,4.1,0,0,1-.68-2.53,4.77,4.77,0,0,1,.68-2.6,4.26,4.26,0,0,1,2-1.6,8.68,8.68,0,0,1,3.26-.54,11.15,11.15,0,0,1,2.25.23,11.35,11.35,0,0,1,2.1.64,10.63,10.63,0,0,1,1.89,1.06l-2.06,2.51a9.58,9.58,0,0,0-2.13-1,6.73,6.73,0,0,0-2.08-.33,4.37,4.37,0,0,0-2.06.38,1.26,1.26,0,0,0-.71,1.16.86.86,0,0,0,.39.75,2.47,2.47,0,0,0,1,.35c.39.06.95.13,1.69.19l.22,0,.23,0h.21a15.87,15.87,0,0,1,2.76.48,3.66,3.66,0,0,1,1.86,1.26,4.32,4.32,0,0,1,.76,2.74,4.76,4.76,0,0,1-.72,2.68,4.44,4.44,0,0,1-2.14,1.64,9.61,9.61,0,0,1-3.48.56Z"/><path class="cls-2" d="M213.87,141.59h3.43V145h-3.43Zm0,6h3.43v15h-3.43Z"/><path class="cls-2" d="M220.22,147.59h7v3h-7Zm2.43,14a4.36,4.36,0,0,1-.88-3V143.24h3.44v14.94a1.39,1.39,0,0,0,.22.85.74.74,0,0,0,.63.29h1.2v3.3h-1.85A3.46,3.46,0,0,1,222.65,161.62Z"/><path class="cls-2" d="M235.16,162.77l-1.5-.78a5.23,5.23,0,0,1-2.29-2.29,7.68,7.68,0,0,1-.8-3.64v-1.68a8.71,8.71,0,0,1,.76-3.79,5.31,5.31,0,0,1,2.21-2.4,7,7,0,0,1,3.48-.82,5.52,5.52,0,0,1,3.27,1,5.91,5.91,0,0,1,2.08,2.78,11.9,11.9,0,0,1,.71,4.38v1H232.92v-2.53h7v-.15a4.33,4.33,0,0,0-.88-2.44,2.44,2.44,0,0,0-2-.86,3,3,0,0,0-2.41,1,4.05,4.05,0,0,0-.85,2.76v1.9a3.19,3.19,0,0,0,3.52,3.53,4.76,4.76,0,0,0,1.68-.32,5.39,5.39,0,0,0,1.49-.9l2.25,2.1a8.51,8.51,0,0,1-2.56,1.65,7.47,7.47,0,0,1-2.86.59Z"/><path class="cls-2" d="M253.46,147.59h3.43l2.65,10,3.45-10h2.19l3.44,10,2.66-10h3.43l-4.62,15h-2.58l-3.43-10.05-3.43,10.05h-2.58Z"/><path class="cls-2" d="M279.77,162a5.15,5.15,0,0,1-2.16-2.22,7.8,7.8,0,0,1-.74-3.53v-2.43a7.65,7.65,0,0,1,.74-3.49,5.1,5.1,0,0,1,2.16-2.2,8,8,0,0,1,6.82,0,5,5,0,0,1,2.16,2.2,7.52,7.52,0,0,1,.75,3.49v2.47a7.54,7.54,0,0,1-.75,3.5,5,5,0,0,1-2.16,2.21,7.94,7.94,0,0,1-6.82,0Zm5.53-3.36a3.4,3.4,0,0,0,.75-2.35v-2.47a3.35,3.35,0,0,0-.75-2.33,3.15,3.15,0,0,0-4.24,0,3.35,3.35,0,0,0-.75,2.33v2.47a3.4,3.4,0,0,0,.75,2.35,2.7,2.7,0,0,0,2.12.83A2.73,2.73,0,0,0,285.3,158.64Z"/><path class="cls-2" d="M293.39,147.59H297v15h-3.59Zm7.48,3.28a3.26,3.26,0,0,0-1.17-.2,2.6,2.6,0,0,0-2,.77,3,3,0,0,0-.71,2.14l-.31-3.38a5.4,5.4,0,0,1,1.7-2.09,3.89,3.89,0,0,1,2.29-.74,5,5,0,0,1,1.78.3,3.81,3.81,0,0,1,1.38.87l-2.1,2.9A2.28,2.28,0,0,0,300.87,150.87Z"/><path class="cls-2" d="M306,141.59h3.45v21H306ZM307.54,157l7.34-9.43h3.82l-11,13.35Zm3.5-2.66,2.58-2,5.81,10.15h-3.88Z"/><path class="cls-2" d="M325.76,162.77l-1.21-.26a9.74,9.74,0,0,1-2.27-.74,8.79,8.79,0,0,1-1.91-1.19l2.09-2.6a9.35,9.35,0,0,0,2.33,1.23,7.13,7.13,0,0,0,2.31.41,5.39,5.39,0,0,0,2.39-.42,1.34,1.34,0,0,0,.81-1.23,1.1,1.1,0,0,0-.4-.93,2.37,2.37,0,0,0-1-.43,16.4,16.4,0,0,0-1.72-.21l-.39,0-.39-.05h-.23a15.36,15.36,0,0,1-2.58-.48,3.47,3.47,0,0,1-1.7-1.19,4.1,4.1,0,0,1-.68-2.53,4.77,4.77,0,0,1,.68-2.6,4.24,4.24,0,0,1,2-1.6,8.63,8.63,0,0,1,3.25-.54,11.15,11.15,0,0,1,2.25.23,11.35,11.35,0,0,1,2.1.64,10.29,10.29,0,0,1,1.89,1.06l-2.06,2.51a9.72,9.72,0,0,0-2.12-1,6.79,6.79,0,0,0-2.09-.33,4.37,4.37,0,0,0-2.06.38,1.25,1.25,0,0,0-.7,1.16.86.86,0,0,0,.39.75,2.42,2.42,0,0,0,1,.35c.39.06,1,.13,1.69.19l.23,0,.22,0h.22a15.91,15.91,0,0,1,2.75.48,3.66,3.66,0,0,1,1.86,1.26,4.26,4.26,0,0,1,.76,2.74,4.76,4.76,0,0,1-.72,2.68,4.4,4.4,0,0,1-2.14,1.64,9.61,9.61,0,0,1-3.48.56Z"/><text class="cls-3" transform="translate(37.93 468.04)">網頁作品</text><path class="cls-4" d="M38,217.87h1.73v10.57H38Zm.72,0h6.07v1.67H38.75Zm0,4.59H44v1.66H38.75Z"/><path class="cls-4" d="M46.21,220.9H48v7.54h-1.8ZM50,222.55a1.55,1.55,0,0,0-.59-.1,1.32,1.32,0,0,0-1,.39,1.53,1.53,0,0,0-.36,1.08l-.15-1.71a2.74,2.74,0,0,1,.86-1.05,1.92,1.92,0,0,1,1.15-.37,2.54,2.54,0,0,1,.9.15,1.89,1.89,0,0,1,.7.44l-1.06,1.46A1.06,1.06,0,0,0,50,222.55Z"/><path class="cls-4" d="M53.66,228.16A2.51,2.51,0,0,1,52.57,227a3.87,3.87,0,0,1-.38-1.78V224a3.81,3.81,0,0,1,.38-1.76,2.49,2.49,0,0,1,1.09-1.11,4.08,4.08,0,0,1,3.44,0,2.54,2.54,0,0,1,1.09,1.11,3.81,3.81,0,0,1,.37,1.76v1.25a3.84,3.84,0,0,1-.37,1.76,2.54,2.54,0,0,1-1.09,1.11,4,4,0,0,1-3.44,0Zm2.79-1.69a1.7,1.7,0,0,0,.37-1.18V224a1.66,1.66,0,0,0-.37-1.17,1.38,1.38,0,0,0-1.07-.42,1.36,1.36,0,0,0-1.07.42,1.66,1.66,0,0,0-.38,1.17v1.25a1.71,1.71,0,0,0,.38,1.18,1.34,1.34,0,0,0,1.07.42A1.38,1.38,0,0,0,56.45,226.47Z"/><path class="cls-4" d="M60.52,220.9h1.74v7.54H60.52Zm4.47,3a1.45,1.45,0,0,0-.36-1.05,1.37,1.37,0,0,0-1-.37,1.34,1.34,0,0,0-1,.35,1.31,1.31,0,0,0-.35,1l-.15-1.56a2.72,2.72,0,0,1,.86-1.06,2.1,2.1,0,0,1,1.23-.36,2.32,2.32,0,0,1,1.87.8,3.49,3.49,0,0,1,.66,2.27v4.58H65Z"/><path class="cls-4" d="M68.26,220.9H71.8v1.52H68.26ZM69.48,228a2.16,2.16,0,0,1-.44-1.49V218.7h1.73v7.54a.7.7,0,0,0,.11.42.38.38,0,0,0,.32.15h.6v1.67h-.93A1.74,1.74,0,0,1,69.48,228Z"/><path class="cls-4" d="M78.72,223.83v1.65h-5v-1.65Z"/><path class="cls-4" d="M82.93,228.55l-.76-.39A2.74,2.74,0,0,1,81,227a4,4,0,0,1-.4-1.84v-.85a4.28,4.28,0,0,1,.39-1.91,2.66,2.66,0,0,1,1.11-1.21,3.57,3.57,0,0,1,1.75-.41,2.83,2.83,0,0,1,1.66.48,3,3,0,0,1,1,1.4,6.05,6.05,0,0,1,.36,2.21v.49H81.8V224.1h3.51V224a2.15,2.15,0,0,0-.44-1.23,1.25,1.25,0,0,0-1-.43,1.52,1.52,0,0,0-1.21.49,2,2,0,0,0-.43,1.39v1a1.79,1.79,0,0,0,.47,1.32A1.75,1.75,0,0,0,84,227a2.29,2.29,0,0,0,.85-.16,2.41,2.41,0,0,0,.75-.46l1.14,1.06a4.48,4.48,0,0,1-1.29.84,3.91,3.91,0,0,1-1.45.29Z"/><path class="cls-4" d="M88.81,220.9h1.74v7.54H88.81Zm4.47,3a1.45,1.45,0,0,0-.36-1.05,1.37,1.37,0,0,0-1-.37,1.34,1.34,0,0,0-1,.35,1.31,1.31,0,0,0-.35,1l-.15-1.56a2.72,2.72,0,0,1,.86-1.06,2.09,2.09,0,0,1,1.22-.36,2.33,2.33,0,0,1,1.88.8,3.49,3.49,0,0,1,.66,2.27v4.58H93.28Z"/><path class="cls-4" d="M98.09,228.19a2.37,2.37,0,0,1-.88-1.08,4.43,4.43,0,0,1-.3-1.71V224a4.41,4.41,0,0,1,.3-1.72,2.33,2.33,0,0,1,.87-1.09,2.42,2.42,0,0,1,1.37-.38,2,2,0,0,1,1.16.36,2.54,2.54,0,0,1,.85,1l-.15,1.61a1.65,1.65,0,0,0-.15-.74,1.08,1.08,0,0,0-.45-.47,1.51,1.51,0,0,0-.7-.16,1.26,1.26,0,0,0-1,.42,1.82,1.82,0,0,0-.35,1.18v1.43a1.78,1.78,0,0,0,.35,1.16,1.29,1.29,0,0,0,1,.41,1.39,1.39,0,0,0,.7-.17,1.08,1.08,0,0,0,.45-.47,1.61,1.61,0,0,0,.15-.73l.1,1.66a2,2,0,0,1-1.93,1.31A2.51,2.51,0,0,1,98.09,228.19Zm3.22-10.32H103v10.57h-1.73Z"/><path class="cls-4" d="M111.24,228.55l-.75-.39a2.68,2.68,0,0,1-1.16-1.15,4,4,0,0,1-.4-1.84v-.85a4.42,4.42,0,0,1,.38-1.91,2.74,2.74,0,0,1,1.12-1.21,3.54,3.54,0,0,1,1.75-.41,2.83,2.83,0,0,1,1.66.48,3,3,0,0,1,1,1.4,6.05,6.05,0,0,1,.36,2.21v.49h-5.12V224.1h3.51V224a2.15,2.15,0,0,0-.44-1.23,1.25,1.25,0,0,0-1-.43,1.5,1.5,0,0,0-1.21.49,2,2,0,0,0-.43,1.39v1a1.82,1.82,0,0,0,.46,1.32,1.77,1.77,0,0,0,1.31.46,2.29,2.29,0,0,0,.85-.16,2.41,2.41,0,0,0,.75-.46l1.14,1.06a4.48,4.48,0,0,1-1.29.84,3.91,3.91,0,0,1-1.45.29Z"/><path class="cls-4" d="M117.13,220.9h1.74v7.54h-1.74Zm4.47,3a1.45,1.45,0,0,0-.36-1.05,1.37,1.37,0,0,0-1-.37,1.34,1.34,0,0,0-1,.35,1.31,1.31,0,0,0-.35,1l-.15-1.56a2.72,2.72,0,0,1,.86-1.06,2.07,2.07,0,0,1,1.22-.36,2.29,2.29,0,0,1,1.87.8,3.43,3.43,0,0,1,.67,2.27v4.58H121.6Z"/><path class="cls-4" d="M126.41,228.19a2.37,2.37,0,0,1-.88-1.08,4.43,4.43,0,0,1-.3-1.71V224a4.41,4.41,0,0,1,.3-1.72,2.33,2.33,0,0,1,.87-1.09,2.42,2.42,0,0,1,1.37-.38,2,2,0,0,1,1.16.36,2.54,2.54,0,0,1,.85,1l-.15,1.61a1.53,1.53,0,0,0-.16-.74,1.06,1.06,0,0,0-.44-.47,1.51,1.51,0,0,0-.7-.16,1.25,1.25,0,0,0-1,.42A1.82,1.82,0,0,0,127,224v1.43a1.78,1.78,0,0,0,.35,1.16,1.27,1.27,0,0,0,1,.41,1.39,1.39,0,0,0,.7-.17,1.06,1.06,0,0,0,.44-.47,1.49,1.49,0,0,0,.16-.73l.1,1.66a2,2,0,0,1-1.93,1.31A2.51,2.51,0,0,1,126.41,228.19Zm.77,3.32-.69-.32a2.57,2.57,0,0,1-1.08-.89l1.17-1.07a1.83,1.83,0,0,0,.65.53,1.87,1.87,0,0,0,.8.18,1.65,1.65,0,0,0,1.17-.41,1.48,1.48,0,0,0,.43-1.13v-7.5h1.73v7.32A3.93,3.93,0,0,1,131,230a2.57,2.57,0,0,1-1.14,1.12,3.82,3.82,0,0,1-1.79.39Z"/><path class="cls-4" d="M133.42,217.87h1.73v1.74h-1.73Zm0,3h1.73v7.54h-1.73Z"/><path class="cls-4" d="M137.21,220.9H139v7.54h-1.74Zm4.47,3a1.45,1.45,0,0,0-.36-1.05,1.39,1.39,0,0,0-1-.37,1.37,1.37,0,0,0-1,.35,1.3,1.3,0,0,0-.34,1l-.16-1.56a2.81,2.81,0,0,1,.86-1.06,2.12,2.12,0,0,1,1.23-.36,2.31,2.31,0,0,1,1.87.8,3.49,3.49,0,0,1,.67,2.27v4.58h-1.74Z"/><path class="cls-4" d="M147.62,228.55l-.76-.39a2.66,2.66,0,0,1-1.15-1.15,3.88,3.88,0,0,1-.4-1.84v-.85a4.28,4.28,0,0,1,.38-1.91,2.66,2.66,0,0,1,1.11-1.21,3.57,3.57,0,0,1,1.75-.41,2.83,2.83,0,0,1,1.66.48,3,3,0,0,1,1,1.4,6.05,6.05,0,0,1,.36,2.21v.49h-5.13V224.1H150V224a2.08,2.08,0,0,0-.44-1.23,1.25,1.25,0,0,0-1-.43,1.52,1.52,0,0,0-1.21.49,2,2,0,0,0-.43,1.39v1a1.79,1.79,0,0,0,.47,1.32,1.76,1.76,0,0,0,1.31.46,2.28,2.28,0,0,0,.84-.16,2.58,2.58,0,0,0,.76-.46l1.13,1.06a4.22,4.22,0,0,1-1.29.84,3.89,3.89,0,0,1-1.44.29Z"/><path class="cls-4" d="M155.6,228.55l-.76-.39a2.66,2.66,0,0,1-1.15-1.15,3.88,3.88,0,0,1-.4-1.84v-.85a4.28,4.28,0,0,1,.38-1.91,2.66,2.66,0,0,1,1.11-1.21,3.58,3.58,0,0,1,1.76-.41,2.82,2.82,0,0,1,1.65.48,3,3,0,0,1,1.05,1.4,6.05,6.05,0,0,1,.36,2.21v.49h-5.13V224.1H158V224a2.08,2.08,0,0,0-.44-1.23,1.23,1.23,0,0,0-1-.43,1.53,1.53,0,0,0-1.22.49,2.06,2.06,0,0,0-.43,1.39v1a1.79,1.79,0,0,0,.47,1.32,1.76,1.76,0,0,0,1.31.46,2.28,2.28,0,0,0,.84-.16,2.58,2.58,0,0,0,.76-.46l1.13,1.06a4.22,4.22,0,0,1-1.29.84,3.89,3.89,0,0,1-1.44.29Z"/><path class="cls-4" d="M161.49,220.9h1.81v7.54h-1.81Zm3.77,1.65a1.55,1.55,0,0,0-.59-.1,1.3,1.3,0,0,0-1,.39,1.53,1.53,0,0,0-.36,1.08l-.16-1.71a2.74,2.74,0,0,1,.86-1.05,2,2,0,0,1,1.16-.37,2.48,2.48,0,0,1,.89.15,1.89,1.89,0,0,1,.7.44l-1.06,1.46A1.06,1.06,0,0,0,165.26,222.55Z"/><path class="cls-4" d="M167.79,217.87h1.73v1.74h-1.73Zm0,3h1.73v7.54h-1.73Z"/><path class="cls-4" d="M171.58,220.9h1.73v7.54h-1.73Zm4.46,3a1.45,1.45,0,0,0-.36-1.05,1.6,1.6,0,0,0-2,0,1.31,1.31,0,0,0-.35,1l-.15-1.56a2.72,2.72,0,0,1,.86-1.06,2.12,2.12,0,0,1,1.23-.36,2.32,2.32,0,0,1,1.87.8,3.49,3.49,0,0,1,.66,2.27v4.58H176Z"/><path class="cls-4" d="M180.85,228.19a2.44,2.44,0,0,1-.88-1.08,4.43,4.43,0,0,1-.3-1.71V224a4.41,4.41,0,0,1,.3-1.72,2.33,2.33,0,0,1,.87-1.09,2.45,2.45,0,0,1,1.37-.38,2,2,0,0,1,1.17.36,2.52,2.52,0,0,1,.84,1l-.15,1.61a1.65,1.65,0,0,0-.15-.74,1,1,0,0,0-.45-.47,1.51,1.51,0,0,0-.7-.16,1.23,1.23,0,0,0-1,.42,1.77,1.77,0,0,0-.36,1.18v1.43a1.73,1.73,0,0,0,.36,1.16,1.25,1.25,0,0,0,1,.41,1.39,1.39,0,0,0,.7-.17,1,1,0,0,0,.45-.47,1.61,1.61,0,0,0,.15-.73l.1,1.66a2,2,0,0,1-.72.94,2,2,0,0,1-1.2.37A2.53,2.53,0,0,1,180.85,228.19Zm.77,3.32-.69-.32a2.57,2.57,0,0,1-1.08-.89l1.17-1.07a1.78,1.78,0,0,0,.66.53,1.82,1.82,0,0,0,.79.18,1.63,1.63,0,0,0,1.17-.41,1.44,1.44,0,0,0,.43-1.13v-7.5h1.74v7.32a3.8,3.8,0,0,1-.39,1.78,2.6,2.6,0,0,1-1.13,1.12,3.86,3.86,0,0,1-1.8.39Z"/><path class="cls-4" d="M40.77,241.33a.51.51,0,0,1-.53.55h-1l-.16-.44c.22,0,.56,0,1,0a.18.18,0,0,0,.13-.06.27.27,0,0,0,.05-.15v-1.2H38.46a4.33,4.33,0,0,1-.79,1.89l-.33-.3a4.88,4.88,0,0,0,.78-3v-1.83h2.65Zm3.75-5.22H37.34v-.41h7.18Zm-4.18,3.54v-1H38.55c0,.22,0,.55,0,1Zm0-1.45v-.95H38.55v.95Zm0-2.8-.41.17a4.83,4.83,0,0,0-.83-.76l.45-.18A4.84,4.84,0,0,1,40.34,235.4Zm2.53-.57a3.73,3.73,0,0,1-.81.73l-.44-.22a5.11,5.11,0,0,0,.87-.71Zm-.62,5.67h-.42V237h.42Zm1.64.78a.68.68,0,0,1-.11.38.46.46,0,0,1-.28.18,3,3,0,0,1-.63,0l-.59,0-.15-.45,1.13,0q.21,0,.21-.24v-4.45h.42Z"/><path class="cls-4" d="M48.21,236.36h-.58l.3.29c0,.85-.2,2.16-.46,3.93l.62-.21,0,.44a20.74,20.74,0,0,1-2.43.71l-.1-.43c.22,0,.44-.09.65-.15a36,36,0,0,0-.29-4.32l.32-.26h-.57V236h1.08a11.06,11.06,0,0,0-.41-1.16l.39-.14a9.85,9.85,0,0,1,.44,1.3h1Zm-.68,0H46.34a42.94,42.94,0,0,1,.31,4.47l.36-.11A35.9,35.9,0,0,0,47.53,236.36Zm5.29,1.37H50.64c-.1.3-.21.61-.34.92h2.2v2.68c0,.37-.23.56-.7.56h-.21l-.11-.41h.28q.33,0,.33-.27v-2.16H51.3v2.55h-.41v-2.55H50.1v2.55h-.41v-2.55h-.8v2.86h-.4v-3.26h1.36a6,6,0,0,0,.34-.92h-2v-.4h4.66Zm-.43-1.23H48.63v-1.45h.42v1.06h1.2v-1.42h.42v1.42H52v-1.06h.43Z"/><path class="cls-4" d="M61.13,241.5H53.9v-.43h3.39v-5.63h-3V235h6.5v.46h-3v5.63h3.4Z"/><path class="cls-4" d="M65,238.75l-.3.34a5.78,5.78,0,0,0-.71-1v3.83h-.43V238a11.84,11.84,0,0,1-1.12,2.05l-.29-.34a11.19,11.19,0,0,0,1.38-2.65H62.17v-.41h1.37v-1.23l-1,.19-.23-.41a8.63,8.63,0,0,0,2.4-.57L65,235l-1,.32v1.32h1v.41H64v.34A7.7,7.7,0,0,1,65,238.75Zm4.38,2.93H64.7v-.4h2.13V240H65v-.41h1.84v-1.2c-.89,0-1.43.09-1.64.09l-.2-.42a18.25,18.25,0,0,0,3.94-.44l.28.37c-.55.13-1.2.25-1.94.35v1.25H69V240H67.27v1.27h2.09Zm-.53-4.53H65.28v-2.26h3.55Zm-.44-.42v-1.42H65.72v1.42Z"/><path class="cls-5" d="M238.39,217.37h1l1.61,5.89,1.24-5.89h1.38l-1.93,8.12h-1.3l-1.47-5.67-1.53,5.67h-1.3l-1.93-8.12h1.38l1.24,5.89Z"/><path class="cls-5" d="M245,225.28a2,2,0,0,1-.83-.86,2.92,2.92,0,0,1-.29-1.37v-.94a2.81,2.81,0,0,1,.29-1.35,2,2,0,0,1,.83-.86,2.86,2.86,0,0,1,1.32-.29,2.8,2.8,0,0,1,1.32.29,1.94,1.94,0,0,1,.84.86,2.93,2.93,0,0,1,.29,1.35v1a2.93,2.93,0,0,1-.29,1.35,1.94,1.94,0,0,1-.84.86,2.68,2.68,0,0,1-1.32.29A2.74,2.74,0,0,1,245,225.28Zm2.14-1.3a1.29,1.29,0,0,0,.29-.91v-1a1.25,1.25,0,0,0-.29-.9,1,1,0,0,0-.82-.32,1.08,1.08,0,0,0-.82.32,1.3,1.3,0,0,0-.29.9v1a1.34,1.34,0,0,0,.29.91,1.06,1.06,0,0,0,.82.32A1,1,0,0,0,247.16,224Z"/><path class="cls-5" d="M251.25,225.28a2,2,0,0,1-.83-.86,2.92,2.92,0,0,1-.29-1.37v-.94a2.81,2.81,0,0,1,.29-1.35,2,2,0,0,1,.83-.86,2.86,2.86,0,0,1,1.32-.29,2.8,2.8,0,0,1,1.32.29,1.94,1.94,0,0,1,.84.86,2.93,2.93,0,0,1,.29,1.35v1a2.93,2.93,0,0,1-.29,1.35,1.94,1.94,0,0,1-.84.86,2.68,2.68,0,0,1-1.32.29A2.74,2.74,0,0,1,251.25,225.28Zm2.14-1.3a1.3,1.3,0,0,0,.3-.91v-1a1.25,1.25,0,0,0-.3-.9,1,1,0,0,0-.82-.32,1.08,1.08,0,0,0-.82.32,1.3,1.3,0,0,0-.29.9v1a1.34,1.34,0,0,0,.29.91,1.06,1.06,0,0,0,.82.32A1,1,0,0,0,253.39,224Z"/><path class="cls-5" d="M257.27,225.3a1.82,1.82,0,0,1-.68-.83,3.5,3.5,0,0,1-.23-1.32v-1.1a3.43,3.43,0,0,1,.23-1.32,1.72,1.72,0,0,1,.67-.84,1.88,1.88,0,0,1,1.05-.29,1.56,1.56,0,0,1,.89.27,2,2,0,0,1,.65.77l-.11,1.24a1.23,1.23,0,0,0-.12-.57.79.79,0,0,0-.34-.36,1.13,1.13,0,0,0-.54-.12,1,1,0,0,0-.77.32,1.39,1.39,0,0,0-.28.91v1.09a1.34,1.34,0,0,0,.28.89,1,1,0,0,0,.77.32,1,1,0,0,0,.54-.13.79.79,0,0,0,.34-.36,1.19,1.19,0,0,0,.12-.56l.08,1.27a1.54,1.54,0,0,1-1.48,1A1.92,1.92,0,0,1,257.27,225.3Zm2.47-7.93h1.33v8.12h-1.33Z"/><path class="cls-5" d="M264.3,225.57l-.46-.09a4,4,0,0,1-.88-.29,3.43,3.43,0,0,1-.74-.46l.81-1a3.57,3.57,0,0,0,.9.48,2.84,2.84,0,0,0,.89.16,2.05,2.05,0,0,0,.93-.17.51.51,0,0,0,.31-.47.43.43,0,0,0-.15-.36,1,1,0,0,0-.4-.17,5.65,5.65,0,0,0-.66-.08h-.15l-.16,0h-.08a5.18,5.18,0,0,1-1-.18,1.37,1.37,0,0,1-.66-.46,1.57,1.57,0,0,1-.26-1,1.79,1.79,0,0,1,.26-1,1.68,1.68,0,0,1,.78-.62,3.32,3.32,0,0,1,1.26-.21,4.14,4.14,0,0,1,.87.09,4.24,4.24,0,0,1,.81.25,4.1,4.1,0,0,1,.74.41l-.8,1a3.71,3.71,0,0,0-.82-.37,2.63,2.63,0,0,0-.81-.13,1.7,1.7,0,0,0-.8.15.48.48,0,0,0-.27.45.34.34,0,0,0,.15.29.94.94,0,0,0,.38.13c.15,0,.36.05.65.08h.26a5.07,5.07,0,0,1,1.06.19,1.36,1.36,0,0,1,.72.48,1.66,1.66,0,0,1,.3,1.07,1.78,1.78,0,0,1-.28,1,1.65,1.65,0,0,1-.83.64,3.75,3.75,0,0,1-1.35.21Z"/><path class="cls-5" d="M271.65,217.37H273v1.34h-1.33Zm0,2.32H273v5.8h-1.33Z"/><path class="cls-5" d="M274.56,219.69h1.34v5.8h-1.34ZM278,222a1.14,1.14,0,0,0-.28-.81,1,1,0,0,0-1.82.74l-.12-1.2a2,2,0,0,1,.66-.82,1.58,1.58,0,0,1,.94-.28,1.77,1.77,0,0,1,1.44.62,2.65,2.65,0,0,1,.51,1.74v3.52H278Z"/><path class="cls-5" d="M281,219.69h1.33v5.8H281Zm3.43,2.29a1.09,1.09,0,0,0-.28-.81,1,1,0,0,0-.79-.28,1.06,1.06,0,0,0-.76.26,1,1,0,0,0-.27.76l-.11-1.2a2,2,0,0,1,.66-.82,1.56,1.56,0,0,1,.94-.28,1.77,1.77,0,0,1,1.44.62,2.65,2.65,0,0,1,.51,1.74v3.52h-1.34Z"/><path class="cls-5" d="M289.9,219.69h1.33l1,3.86,1.34-3.86h.84l1.34,3.86,1-3.86h1.32l-1.78,5.8h-1L294,221.6l-1.33,3.89h-1Z"/><path class="cls-5" d="M300.75,225.57l-.58-.3a2,2,0,0,1-.89-.88A2.94,2.94,0,0,1,299,223v-.66a3.25,3.25,0,0,1,.3-1.46,2,2,0,0,1,.85-.93,2.7,2.7,0,0,1,1.35-.32,2.14,2.14,0,0,1,1.27.37,2.3,2.3,0,0,1,.8,1.08,4.5,4.5,0,0,1,.28,1.69v.38h-3.94v-1h2.7v-.06a1.63,1.63,0,0,0-.34-.95,1,1,0,0,0-.76-.33,1.17,1.17,0,0,0-.93.37,1.59,1.59,0,0,0-.33,1.07V223a1.24,1.24,0,0,0,1.36,1.37,1.68,1.68,0,0,0,.65-.13,2,2,0,0,0,.58-.35l.87.82a3.5,3.5,0,0,1-1,.64,2.93,2.93,0,0,1-1.11.22Z"/><path class="cls-5" d="M305.27,217.37h1.33v8.12h-1.33Zm1.83,7.95a1.52,1.52,0,0,1-.57-.74l.07-1.27a1.19,1.19,0,0,0,.12.56.79.79,0,0,0,.34.36,1.13,1.13,0,0,0,.54.12,1,1,0,0,0,.77-.31,1.28,1.28,0,0,0,.28-.89v-1.09a1.34,1.34,0,0,0-.28-.91,1,1,0,0,0-.77-.32,1.13,1.13,0,0,0-.54.12.79.79,0,0,0-.34.36,1.22,1.22,0,0,0-.12.56l-.11-1.2a1.87,1.87,0,0,1,.65-.78,1.52,1.52,0,0,1,.89-.28,1.93,1.93,0,0,1,1.06.29,1.73,1.73,0,0,1,.66.83,3.33,3.33,0,0,1,.23,1.33v1.09a3.23,3.23,0,0,1-.23,1.31,1.76,1.76,0,0,1-.68.83,1.93,1.93,0,0,1-1.06.28A1.59,1.59,0,0,1,307.1,225.32Z"/><path class="cls-5" d="M313.1,225.57l-.47-.09a4,4,0,0,1-.87-.29,3.43,3.43,0,0,1-.74-.46l.81-1a3.57,3.57,0,0,0,.9.48,2.84,2.84,0,0,0,.89.16,2.05,2.05,0,0,0,.93-.17.51.51,0,0,0,.31-.47.43.43,0,0,0-.15-.36,1,1,0,0,0-.4-.17,5.94,5.94,0,0,0-.66-.08h-.16l-.15,0h-.09a5.2,5.2,0,0,1-1-.18,1.33,1.33,0,0,1-.66-.46,1.57,1.57,0,0,1-.27-1,1.79,1.79,0,0,1,.27-1,1.68,1.68,0,0,1,.78-.62,3.32,3.32,0,0,1,1.26-.21,4.14,4.14,0,0,1,.87.09,4.47,4.47,0,0,1,.81.25,4.1,4.1,0,0,1,.74.41l-.8,1a3.71,3.71,0,0,0-.82-.37,2.63,2.63,0,0,0-.81-.13,1.7,1.7,0,0,0-.8.15.48.48,0,0,0-.27.45.34.34,0,0,0,.15.29,1,1,0,0,0,.37.13c.16,0,.37.05.66.08H314a5.07,5.07,0,0,1,1.06.19,1.36,1.36,0,0,1,.72.48,1.66,1.66,0,0,1,.3,1.07,1.78,1.78,0,0,1-.28,1,1.65,1.65,0,0,1-.83.64,3.75,3.75,0,0,1-1.35.21Z"/><path class="cls-5" d="M317.38,217.37h1.33v1.34h-1.33Zm0,2.32h1.33v5.8h-1.33Z"/><path class="cls-5" d="M319.84,219.69h2.73v1.17h-2.73Zm.94,5.44a1.68,1.68,0,0,1-.34-1.15v-6h1.34v5.79a.54.54,0,0,0,.08.33.29.29,0,0,0,.24.11h.47v1.28h-.72A1.36,1.36,0,0,1,320.78,225.13Z"/><path class="cls-5" d="M325.63,225.57l-.58-.3a2,2,0,0,1-.89-.88,2.94,2.94,0,0,1-.31-1.41v-.66a3.39,3.39,0,0,1,.29-1.46,2,2,0,0,1,.86-.93,2.7,2.7,0,0,1,1.35-.32,2.14,2.14,0,0,1,1.27.37,2.3,2.3,0,0,1,.8,1.08,4.5,4.5,0,0,1,.28,1.69v.38h-3.94v-1h2.7v-.06a1.63,1.63,0,0,0-.34-.95,1,1,0,0,0-.76-.33,1.19,1.19,0,0,0-.94.37,1.65,1.65,0,0,0-.32,1.07V223a1.24,1.24,0,0,0,1.36,1.37,1.68,1.68,0,0,0,.65-.13,2,2,0,0,0,.58-.35l.87.82a3.5,3.5,0,0,1-1,.64,2.93,2.93,0,0,1-1.11.22Z"/><path class="cls-6" d="M341.7,224.05a5.1,5.1,0,0,1-.61,1.63.82.82,0,0,1-.67.33,2.7,2.7,0,0,1-1.69-1,5.55,5.55,0,0,1-1.39-2.91h-3.07v3.16a28,28,0,0,0,3-.8V225a31.93,31.93,0,0,1-3.5,1l-.2-.52a.23.23,0,0,0,.17-.24v-7.75h7v2.66h-3.11a8.27,8.27,0,0,0,.14,1.49h3.69v.51H337.9a5.61,5.61,0,0,0,.73,1.89,3.66,3.66,0,0,0,1,1.12,1.85,1.85,0,0,0,.76.34c.29,0,.55-.59.77-1.76Zm-1.48-4.45V218h-6v1.59Zm-3,2a12.32,12.32,0,0,1-.14-1.49h-2.83v1.49Z"/><path class="cls-6" d="M345.68,219.19a8.66,8.66,0,0,1-.43,1.2l-.3.71V226h-.52v-3.9a9.43,9.43,0,0,1-1.1,1.44l-.32-.44a10,10,0,0,0,2.15-4Zm5.76.14h-.53v-.83h-7v.83h-.55V218h3.85a4.71,4.71,0,0,0-.29-.73l.5-.12a3.12,3.12,0,0,1,.35.85h3.62Zm.13.9H349a6.71,6.71,0,0,1-.35,1.07h2.39V226h-.53v-.51h-3.61V226h-.55V221.3h1.77a7.48,7.48,0,0,0,.33-1.07h-2.59v-.52h5.69Zm-1,2.85v-1.29h-3.61v1.29Zm0,1.86v-1.36h-3.61v1.36Z"/><path class="cls-6" d="M354.08,223.66a12.05,12.05,0,0,1-.56,2.37l-.5-.22a10.09,10.09,0,0,0,.59-2.25Zm2.45-.63-.48.16a3.45,3.45,0,0,0-.15-.57c-1,.28-1.89.49-2.66.63l-.16-.56a10.15,10.15,0,0,0,1.9-2.27c-.88.15-1.44.23-1.68.26l-.14-.5a10,10,0,0,0,1.61-2.91l.48.16a11.3,11.3,0,0,1-1.4,2.66,13.91,13.91,0,0,0,1.44-.21,10.73,10.73,0,0,0,.7-1.28l.47.19a14.69,14.69,0,0,1-2.59,3.81,13.3,13.3,0,0,0,1.87-.44,5.35,5.35,0,0,0-.27-.68l.45-.16A8.23,8.23,0,0,1,356.53,223Zm-1.19,2.59-.52.1a13.65,13.65,0,0,0-.27-2.08l.49-.08A12.92,12.92,0,0,1,355.34,225.62Zm1.17-.46-.47.17a9.54,9.54,0,0,0-.44-1.79l.47-.15A9.13,9.13,0,0,1,356.51,225.16Zm5.05.11a.67.67,0,0,1-.17.46.72.72,0,0,1-.4.25,4.56,4.56,0,0,1-.91,0l-.22-.55h.55a1.45,1.45,0,0,0,.55-.06.23.23,0,0,0,.09-.21V218h-3.79v8h-.51v-8.45h4.81Zm-.8-4.75h-3.21V220h.81a7.72,7.72,0,0,0-.5-1.27l.48-.19a11.73,11.73,0,0,1,.55,1.46h.56a9.85,9.85,0,0,0,.67-1.48l.46.18c-.09.28-.28.71-.55,1.3h.73Zm0,1.82h-2.14v1.48c0,.17.08.26.24.26h1.76v.47h-1.81q-.69,0-.69-.72v-1.49h-.57v-.48h1.56a7,7,0,0,0-.38-.91l.49-.17c.12.25.26.61.43,1.08h1.11Z"/><path class="cls-6" d="M371.77,218h-4a10,10,0,0,1-.43,1.08h3.33V224h-4.39l.3.31a12,12,0,0,1-3,1.7l-.35-.45a10,10,0,0,0,2.9-1.56h-1.94v-4.92h2.58a6.18,6.18,0,0,0,.43-1.08h-4.14v-.51h8.69Zm-1.62,2.47v-.88h-5.43v.88Zm0,1.49v-1h-5.43v1Zm0,1.53v-1h-5.43v1Zm1.45,2-.28.49a11.39,11.39,0,0,0-3-1.25l.25-.45A16.69,16.69,0,0,1,371.6,225.52Z"/><path class="cls-5" d="M235,238.71h1.33v8.11H235Zm.62,6.84h4.7v1.27h-4.7Z"/><path class="cls-5" d="M241.4,238.71h1.33V240H241.4Zm0,2.32h1.33v5.79H241.4Z"/><path class="cls-5" d="M245.64,244.55a1.13,1.13,0,0,0,.28.8,1.05,1.05,0,0,0,.77.28.94.94,0,0,0,1-1l.08,1.24a1.68,1.68,0,0,1-.56.76,1.47,1.47,0,0,1-1,.31,1.82,1.82,0,0,1-1.46-.61,2.56,2.56,0,0,1-.52-1.72V241h1.33Zm2.08-3.52h1.33v5.79h-1.33Z"/><path class="cls-5" d="M250.67,238.71H252v8.11h-1.33Zm3.43,4.6a1.08,1.08,0,0,0-.28-.8,1,1,0,0,0-.79-.29,1,1,0,0,0-.76.27,1,1,0,0,0-.27.74l-.11-1.2a2.07,2.07,0,0,1,.66-.81,1.63,1.63,0,0,1,.94-.28,1.77,1.77,0,0,1,1.44.62,2.67,2.67,0,0,1,.51,1.75v3.51H254.1Z"/><path class="cls-5" d="M258.67,246.91l-.59-.3a2.1,2.1,0,0,1-.88-.89,2.94,2.94,0,0,1-.31-1.41v-.65a3.44,3.44,0,0,1,.29-1.47,2.1,2.1,0,0,1,.86-.93,2.7,2.7,0,0,1,1.35-.32,2.17,2.17,0,0,1,1.27.38,2.22,2.22,0,0,1,.8,1.07,4.76,4.76,0,0,1,.28,1.7v.38H257.8v-1h2.7v-.06a1.64,1.64,0,0,0-.34-.94.93.93,0,0,0-.76-.34,1.18,1.18,0,0,0-.94.38,1.57,1.57,0,0,0-.33,1.07v.73a1.24,1.24,0,0,0,1.37,1.37,1.87,1.87,0,0,0,.65-.12,2.08,2.08,0,0,0,.57-.35l.88.81a3.22,3.22,0,0,1-1,.64,2.86,2.86,0,0,1-1.1.23Z"/><path class="cls-5" d="M266.26,241h1.33v5.79h-1.33Zm3.43,2.28a1.08,1.08,0,0,0-.28-.8,1,1,0,0,0-.79-.29.94.94,0,0,0-1,1l-.11-1.2a2,2,0,0,1,.66-.82,1.63,1.63,0,0,1,.94-.28,1.77,1.77,0,0,1,1.44.62,2.67,2.67,0,0,1,.51,1.75v3.51h-1.34Z"/><path class="cls-5" d="M272.61,238.71h1.33V240h-1.33Zm0,2.32h1.33v5.79h-1.33Z"/><path class="cls-5" d="M276.26,246.63a1.76,1.76,0,0,1-.68-.83,3.43,3.43,0,0,1-.23-1.32v-1.1a3.28,3.28,0,0,1,.23-1.32,1.76,1.76,0,0,1,.66-.84,1.93,1.93,0,0,1,1.06-.29,1.59,1.59,0,0,1,.89.28,1.9,1.9,0,0,1,.65.77l-.11,1.23a1.26,1.26,0,0,0-.12-.57.9.9,0,0,0-.34-.36,1.13,1.13,0,0,0-.54-.12.94.94,0,0,0-.77.33,1.29,1.29,0,0,0-.28.9v1.09a1.27,1.27,0,0,0,.28.89.94.94,0,0,0,.77.32,1.13,1.13,0,0,0,.54-.12.87.87,0,0,0,.34-.37,1.19,1.19,0,0,0,.12-.56l.07,1.27a1.51,1.51,0,0,1-1.47,1A1.92,1.92,0,0,1,276.26,246.63Zm.59,2.55-.54-.24a1.92,1.92,0,0,1-.82-.69l.9-.82a1.42,1.42,0,0,0,1.11.54,1.25,1.25,0,0,0,.9-.31,1.12,1.12,0,0,0,.33-.87V241h1.33v5.62a2.92,2.92,0,0,1-.3,1.37,2,2,0,0,1-.87.86,2.92,2.92,0,0,1-1.37.3Z"/><path class="cls-5" d="M281.68,238.71H283v8.11h-1.33Zm3.43,4.6a1.08,1.08,0,0,0-.28-.8,1,1,0,0,0-.79-.29,1,1,0,0,0-.76.27,1,1,0,0,0-.27.74l-.11-1.2a2.07,2.07,0,0,1,.66-.81,1.65,1.65,0,0,1,.94-.28,1.77,1.77,0,0,1,1.44.62,2.67,2.67,0,0,1,.51,1.75v3.51h-1.34Z"/><path class="cls-5" d="M287.62,241h2.73v1.16h-2.73Zm.94,5.43a1.67,1.67,0,0,1-.34-1.14v-6h1.33v5.79a.54.54,0,0,0,.09.33.28.28,0,0,0,.24.11h.47v1.28h-.72A1.35,1.35,0,0,1,288.56,246.46Z"/><path class="cls-5" d="M291.8,241h1.33v5.79H291.8Zm3.42,2.37a1.21,1.21,0,0,0-.28-.87,1,1,0,0,0-.78-.31.94.94,0,0,0-1,1L293,242a2.1,2.1,0,0,1,.67-.81,1.63,1.63,0,0,1,.94-.29,1.87,1.87,0,0,1,1,.29,1.78,1.78,0,0,1,.66.83,3.52,3.52,0,0,1,.23,1.33v3.43h-1.33Zm3.42,0a1.26,1.26,0,0,0-.28-.87,1,1,0,0,0-.8-.31,1,1,0,0,0-.75.3,1.21,1.21,0,0,0-.26.83l-.26-1.23a2.22,2.22,0,0,1,.72-.87,1.73,1.73,0,0,1,1-.31,1.91,1.91,0,0,1,1.06.29,1.76,1.76,0,0,1,.68.83,3.52,3.52,0,0,1,.23,1.33v3.43h-1.33Z"/><path class="cls-5" d="M301.81,246.46a1.71,1.71,0,0,1-.5-1.35,1.59,1.59,0,0,1,.5-1.28,2.27,2.27,0,0,1,1.51-.43h1.55l.08,1h-1.62a.93.93,0,0,0-.6.17.63.63,0,0,0-.19.51.59.59,0,0,0,.25.54,1.36,1.36,0,0,0,.78.18,2.44,2.44,0,0,0,.94-.14.45.45,0,0,0,.31-.44l.12.83a.94.94,0,0,1-.33.46,1.9,1.9,0,0,1-.57.28,2.89,2.89,0,0,1-.74.09A2.16,2.16,0,0,1,301.81,246.46Zm3-3.31a1,1,0,0,0-.28-.75,1.18,1.18,0,0,0-.82-.27,2.16,2.16,0,0,0-.66.1,2.45,2.45,0,0,0-.58.3l-.88-.75a2.26,2.26,0,0,1,.89-.62,3.45,3.45,0,0,1,1.23-.22,2.86,2.86,0,0,1,1.26.26,1.74,1.74,0,0,1,.8.74,2.34,2.34,0,0,1,.28,1.16v3.72h-1.24Z"/><path class="cls-5" d="M307.68,241h1.39v5.79h-1.39Zm2.89,1.27a1.25,1.25,0,0,0-.45-.08,1,1,0,0,0-.78.3,1.2,1.2,0,0,0-.27.83L309,242a2.07,2.07,0,0,1,.66-.81,1.5,1.5,0,0,1,.89-.29,1.83,1.83,0,0,1,.68.12,1.5,1.5,0,0,1,.54.34l-.82,1.12A.77.77,0,0,0,310.57,242.3Z"/><path class="cls-5" d="M312.56,238.71h1.33v8.11h-1.33Zm.6,6L316,241h1.48l-4.25,5.17Zm1.36-1,1-.76,2.25,3.93h-1.51Z"/><path class="cls-5" d="M320.21,246.91l-.58-.3a2.12,2.12,0,0,1-.89-.89,3.06,3.06,0,0,1-.3-1.41v-.65a3.3,3.3,0,0,1,.29-1.47,2.08,2.08,0,0,1,.85-.93,2.75,2.75,0,0,1,1.35-.32,2.12,2.12,0,0,1,1.27.38,2.3,2.3,0,0,1,.81,1.07,4.77,4.77,0,0,1,.27,1.7v.38h-3.93v-1H322v-.06a1.64,1.64,0,0,0-.34-.94,1,1,0,0,0-.77-.34,1.18,1.18,0,0,0-.93.38,1.57,1.57,0,0,0-.33,1.07v.73A1.24,1.24,0,0,0,321,245.7a1.82,1.82,0,0,0,.65-.12,2,2,0,0,0,.58-.35l.87.81a3.06,3.06,0,0,1-1,.64,2.94,2.94,0,0,1-1.11.23Z"/><path class="cls-5" d="M324.29,241H327v1.16h-2.72Zm.93,5.43a1.72,1.72,0,0,1-.34-1.14v-6h1.34v5.79a.62.62,0,0,0,.08.33.31.31,0,0,0,.25.11H327v1.28h-.71A1.37,1.37,0,0,1,325.22,246.46Z"/><path class="cls-5" d="M331,241h1.33l1,3.86,1.33-3.86h.85l1.34,3.86,1-3.86h1.33l-1.78,5.79h-1l-1.33-3.89-1.33,3.89h-1Z"/><path class="cls-5" d="M341.87,246.91l-.58-.3a2.1,2.1,0,0,1-.88-.89,2.94,2.94,0,0,1-.31-1.41v-.65a3.44,3.44,0,0,1,.29-1.47,2.1,2.1,0,0,1,.86-.93,2.7,2.7,0,0,1,1.35-.32,2.17,2.17,0,0,1,1.27.38,2.22,2.22,0,0,1,.8,1.07,4.76,4.76,0,0,1,.28,1.7v.38H341v-1h2.7v-.06a1.64,1.64,0,0,0-.34-.94.93.93,0,0,0-.76-.34,1.18,1.18,0,0,0-.94.38,1.57,1.57,0,0,0-.33,1.07v.73a1.24,1.24,0,0,0,1.37,1.37,1.87,1.87,0,0,0,.65-.12,2.08,2.08,0,0,0,.57-.35l.87.81a3.06,3.06,0,0,1-1,.64,2.86,2.86,0,0,1-1.1.23Z"/><path class="cls-5" d="M346.4,238.71h1.33v8.11H346.4Zm1.82,7.94a1.59,1.59,0,0,1-.57-.74l.08-1.26a1.22,1.22,0,0,0,.12.56.82.82,0,0,0,.34.35,1.13,1.13,0,0,0,.54.13,1,1,0,0,0,.77-.32,1.32,1.32,0,0,0,.28-.89V243.4a1.36,1.36,0,0,0-.28-.91.94.94,0,0,0-.77-.32,1.13,1.13,0,0,0-.54.12.82.82,0,0,0-.34.35,1.26,1.26,0,0,0-.12.57l-.11-1.2a1.9,1.9,0,0,1,.65-.79,1.57,1.57,0,0,1,.89-.28,1.88,1.88,0,0,1,1,.29,1.74,1.74,0,0,1,.67.83,3.52,3.52,0,0,1,.23,1.33v1.09a3.41,3.41,0,0,1-.23,1.31,1.77,1.77,0,0,1-.68.83,1.94,1.94,0,0,1-1.07.29A1.62,1.62,0,0,1,348.22,246.65Z"/><path class="cls-5" d="M354.23,246.91l-.47-.1a4.32,4.32,0,0,1-.88-.29,3.29,3.29,0,0,1-.74-.46l.81-1a3.94,3.94,0,0,0,.9.48,2.67,2.67,0,0,0,.9.16,2,2,0,0,0,.92-.16.52.52,0,0,0,.32-.48.41.41,0,0,0-.16-.36.87.87,0,0,0-.39-.17c-.16,0-.38-.05-.67-.08h-.15l-.15,0h-.09a6.16,6.16,0,0,1-1-.19,1.24,1.24,0,0,1-.65-.46,1.55,1.55,0,0,1-.27-1,1.81,1.81,0,0,1,.27-1,1.59,1.59,0,0,1,.78-.62,3.32,3.32,0,0,1,1.26-.21,4.21,4.21,0,0,1,.87.09,4.11,4.11,0,0,1,1.55.66l-.8,1a4.06,4.06,0,0,0-.83-.37,2.53,2.53,0,0,0-.8-.13,1.7,1.7,0,0,0-.8.15.49.49,0,0,0-.28.45.33.33,0,0,0,.15.29,1.07,1.07,0,0,0,.38.14c.15,0,.37.05.66.07h.25a6,6,0,0,1,1.07.19,1.4,1.4,0,0,1,.72.49,1.63,1.63,0,0,1,.3,1.06,1.9,1.9,0,0,1-.28,1,1.68,1.68,0,0,1-.83.63,3.6,3.6,0,0,1-1.35.22Z"/><path class="cls-5" d="M358.51,238.71h1.33V240h-1.33Zm0,2.32h1.33v5.79h-1.33Z"/><path class="cls-5" d="M361,241h2.73v1.16H361Zm.94,5.43a1.67,1.67,0,0,1-.34-1.14v-6h1.33v5.79a.54.54,0,0,0,.09.33.28.28,0,0,0,.24.11h.47v1.28H363A1.33,1.33,0,0,1,361.91,246.46Z"/><path class="cls-5" d="M366.75,246.91l-.58-.3a2.1,2.1,0,0,1-.88-.89,2.94,2.94,0,0,1-.31-1.41v-.65a3.44,3.44,0,0,1,.29-1.47,2.1,2.1,0,0,1,.86-.93,2.68,2.68,0,0,1,1.34-.32,2.18,2.18,0,0,1,1.28.38,2.22,2.22,0,0,1,.8,1.07,4.76,4.76,0,0,1,.28,1.7v.38h-3.94v-1h2.7v-.06a1.64,1.64,0,0,0-.34-.94,1,1,0,0,0-.77-.34,1.18,1.18,0,0,0-.93.38,1.57,1.57,0,0,0-.33,1.07v.73a1.24,1.24,0,0,0,1.37,1.37,1.91,1.91,0,0,0,.65-.12,2.08,2.08,0,0,0,.57-.35l.87.81a3.06,3.06,0,0,1-1,.64,2.86,2.86,0,0,1-1.1.23Z"/><path class="cls-6" d="M377.63,242.68a17.16,17.16,0,0,1-3,4.66l-.44-.37a16,16,0,0,0,3-4.51Zm5.16-1.46H374.3v-.53h4.24a10.66,10.66,0,0,0-.81-1.94l.53-.22a12.8,12.8,0,0,1,.85,2.16h3.68Zm.15,5.72-.47.39a22.87,22.87,0,0,0-3.08-4.51l.45-.39A30.77,30.77,0,0,1,382.94,246.94Z"/><path class="cls-6" d="M392.94,241.47l-.34.44a12,12,0,0,1-4.07-2.66,15,15,0,0,1-4,2.67l-.33-.45a12,12,0,0,0,4.37-3l.51.2a.62.62,0,0,1-.15.22A11.69,11.69,0,0,0,392.94,241.47Zm-1.26,5.89h-.53v-.67h-5.23v.67h-.54v-4h6.3Zm-.53-1.2v-2.25h-5.23v2.25Zm0-4.17H386v-.53h5.18Z"/><path class="cls-6" d="M397,240.53a8.18,8.18,0,0,1-.53,1.18l-.37.69v4.91h-.52v-4.12a10.08,10.08,0,0,1-1.08,1.22l-.34-.41a9.87,9.87,0,0,0,2.35-3.67Zm5.81-.42h-8.5v-.5h4.15a5.55,5.55,0,0,0-.63-.84l.51-.25a11.34,11.34,0,0,1,.78,1.09h3.69Zm.16,6.78-.24.5a11.25,11.25,0,0,1-2.92-1.37,10.86,10.86,0,0,1-2.75,1.32l-.32-.46a10.34,10.34,0,0,0,2.63-1.19,8.89,8.89,0,0,1-1.75-2.2,8.72,8.72,0,0,1-.71.67l-.41-.33a10,10,0,0,0,2.58-3.41l.48.2a8.85,8.85,0,0,1-.45.87h3.19a6.73,6.73,0,0,1-2.06,4.2A10.18,10.18,0,0,0,403,246.89Zm-2.1-2.75a14.73,14.73,0,0,0-2.64-1.34,2.63,2.63,0,0,1-.24.31,7.55,7.55,0,0,0,1.83,2.23A4.25,4.25,0,0,0,400.87,244.14Zm.78-2.13H398.8c-.09.15-.17.27-.24.37a14.23,14.23,0,0,1,2.56,1.3A6.71,6.71,0,0,0,401.65,242Z"/><path class="cls-6" d="M412.83,240.36h-4.08V242h3.39v3.74a.71.71,0,0,1-.64.74,11,11,0,0,1-1.25,0l-.27-.53.7,0a2.75,2.75,0,0,0,.8-.07.26.26,0,0,0,.14-.25v-3.15h-2.87v4.9h-.53v-4.9h-2.84v4h-.54V242h3.38v-1.59h-4.09v-.52h4.21a6.73,6.73,0,0,0-.77-1.07l.49-.25a6.54,6.54,0,0,1,.93,1.32h3.84Z"/><path class="cls-6" d="M415.21,245a12,12,0,0,1-.56,2.38l-.5-.22a11,11,0,0,0,.59-2.25Zm2.45-.63-.48.16A3.45,3.45,0,0,0,417,244c-1,.28-1.9.49-2.66.63l-.16-.55a10.61,10.61,0,0,0,1.9-2.27l-1.68.25-.14-.49a10.28,10.28,0,0,0,1.61-2.91l.48.15a11.47,11.47,0,0,1-1.4,2.66,10,10,0,0,0,1.44-.21,11.41,11.41,0,0,0,.7-1.28l.47.19a14.59,14.59,0,0,1-2.59,3.81,13.3,13.3,0,0,0,1.87-.44,5.19,5.19,0,0,0-.27-.67l.45-.17A9.1,9.1,0,0,1,417.66,244.36Zm-1.19,2.6-.52.09a13.81,13.81,0,0,0-.27-2.08l.48-.07A12.56,12.56,0,0,1,416.47,247Zm1.17-.47-.48.17a9.33,9.33,0,0,0-.43-1.78l.47-.16A9.13,9.13,0,0,1,417.64,246.49Zm5.05.11a.71.71,0,0,1-.17.46.67.67,0,0,1-.4.25,4.6,4.6,0,0,1-.91,0l-.22-.55h.55a1.43,1.43,0,0,0,.54,0,.22.22,0,0,0,.1-.21v-7.17h-3.79v8h-.51v-8.45h4.81Zm-.8-4.75h-3.21v-.49h.8a7.54,7.54,0,0,0-.49-1.26l.47-.2a12.35,12.35,0,0,1,.56,1.46h.56a9.7,9.7,0,0,0,.67-1.47l.46.18a12.5,12.5,0,0,1-.56,1.29h.74Zm0,1.82h-2.14v1.48c0,.18.08.26.24.26h1.76v.47h-1.81a.63.63,0,0,1-.7-.72v-1.49h-.56v-.47h1.56a7.94,7.94,0,0,0-.38-.92l.49-.17c.11.25.26.61.43,1.09h1.11Z"/><path class="cls-6" d="M432.9,239.34h-4a10.49,10.49,0,0,1-.43,1.08h3.33v4.92h-4.39l.3.31a12.06,12.06,0,0,1-3,1.71l-.35-.46a9.7,9.7,0,0,0,2.9-1.56h-1.95v-4.92h2.59a6.18,6.18,0,0,0,.43-1.08h-4.14v-.5h8.69Zm-1.62,2.47v-.87h-5.43v.87Zm0,1.49v-1h-5.43v1Zm0,1.53v-1h-5.43v1Zm1.45,2-.28.49a11.88,11.88,0,0,0-3-1.25l.25-.45A17,17,0,0,1,432.73,246.85Z"/><path class="cls-5" d="M235,354h1.33v8.12H235Zm.56,0h4.66v1.28h-4.66Zm0,3.53h4v1.27h-4Z"/><path class="cls-5" d="M242.24,361.9a1.94,1.94,0,0,1-.84-.86,3,3,0,0,1-.29-1.37v-.94a3,3,0,0,1,.29-1.35,1.92,1.92,0,0,1,.84-.85,2.68,2.68,0,0,1,1.32-.3,2.74,2.74,0,0,1,1.32.3,2,2,0,0,1,.83.85,2.83,2.83,0,0,1,.29,1.35v1a2.81,2.81,0,0,1-.29,1.35,2,2,0,0,1-.83.86,2.74,2.74,0,0,1-1.32.3A2.68,2.68,0,0,1,242.24,361.9Zm2.14-1.3a1.34,1.34,0,0,0,.29-.91v-1a1.3,1.3,0,0,0-.29-.9,1.08,1.08,0,0,0-.82-.32,1,1,0,0,0-.82.32,1.25,1.25,0,0,0-.29.9v1a1.34,1.34,0,0,0,.28.91,1.22,1.22,0,0,0,1.65,0Z"/><path class="cls-5" d="M248.47,361.9a1.94,1.94,0,0,1-.84-.86,3,3,0,0,1-.29-1.37v-.94a3,3,0,0,1,.29-1.35,1.92,1.92,0,0,1,.84-.85,2.68,2.68,0,0,1,1.32-.3,2.74,2.74,0,0,1,1.32.3,2,2,0,0,1,.84.85,3,3,0,0,1,.28,1.35v1A2.93,2.93,0,0,1,252,361a2.05,2.05,0,0,1-.84.86,2.74,2.74,0,0,1-1.32.3A2.68,2.68,0,0,1,248.47,361.9Zm2.14-1.3a1.34,1.34,0,0,0,.29-.91v-1a1.3,1.3,0,0,0-.29-.9,1.08,1.08,0,0,0-.82-.32,1,1,0,0,0-.82.32,1.25,1.25,0,0,0-.29.9v1a1.34,1.34,0,0,0,.28.91,1.22,1.22,0,0,0,1.65,0Z"/><path class="cls-5" d="M254.48,361.92a1.82,1.82,0,0,1-.68-.83,3.43,3.43,0,0,1-.23-1.32v-1.1a3.43,3.43,0,0,1,.23-1.32,1.84,1.84,0,0,1,.67-.84,1.88,1.88,0,0,1,1.05-.29,1.52,1.52,0,0,1,.9.28,2,2,0,0,1,.65.77L257,358.5a1.26,1.26,0,0,0-.12-.57.84.84,0,0,0-.34-.36,1.13,1.13,0,0,0-.54-.12.94.94,0,0,0-.77.33,1.34,1.34,0,0,0-.27.9v1.09a1.32,1.32,0,0,0,.27.89,1,1,0,0,0,.77.32,1,1,0,0,0,.54-.13.74.74,0,0,0,.34-.36,1.19,1.19,0,0,0,.12-.56l.08,1.27a1.57,1.57,0,0,1-.56.73,1.48,1.48,0,0,1-.92.28A1.94,1.94,0,0,1,254.48,361.92ZM257,354h1.34v8.12H257Z"/><path class="cls-5" d="M263.72,361.92a1.82,1.82,0,0,1-.68-.83,3.43,3.43,0,0,1-.23-1.32v-1.1a3.25,3.25,0,0,1,.23-1.32,1.72,1.72,0,0,1,.67-.84,1.88,1.88,0,0,1,1.05-.29,1.52,1.52,0,0,1,.89.28,1.9,1.9,0,0,1,.65.77l-.11,1.23a1.26,1.26,0,0,0-.12-.57.9.9,0,0,0-.34-.36,1.13,1.13,0,0,0-.54-.12.94.94,0,0,0-.77.33,1.29,1.29,0,0,0-.28.9v1.09a1.27,1.27,0,0,0,.28.89,1,1,0,0,0,.77.32,1,1,0,0,0,.54-.13.79.79,0,0,0,.34-.36,1.19,1.19,0,0,0,.12-.56l.07,1.27a1.55,1.55,0,0,1-.55.73,1.5,1.5,0,0,1-.92.28A1.92,1.92,0,0,1,263.72,361.92Zm2.47-7.93h1.33v8.12h-1.33Z"/><path class="cls-5" d="M270.75,362.2l-.58-.3a2.07,2.07,0,0,1-.89-.89,3.06,3.06,0,0,1-.31-1.41V359a3.26,3.26,0,0,1,.3-1.47,2,2,0,0,1,.85-.93,2.7,2.7,0,0,1,1.35-.32,2.14,2.14,0,0,1,1.27.38,2.22,2.22,0,0,1,.8,1.07,4.52,4.52,0,0,1,.28,1.7v.38h-3.94v-1h2.7v-.06a1.58,1.58,0,0,0-.34-.94.93.93,0,0,0-.76-.34,1.18,1.18,0,0,0-.93.38,1.56,1.56,0,0,0-.33,1.07v.73a1.23,1.23,0,0,0,1.36,1.37,1.64,1.64,0,0,0,.65-.13,2.11,2.11,0,0,0,.58-.34l.87.81a3.29,3.29,0,0,1-1,.64,2.94,2.94,0,0,1-1.11.23Z"/><path class="cls-5" d="M276.61,360.41a.48.48,0,0,0,.1.33.41.41,0,0,0,.3.11h.4v1.28h-.73a1.35,1.35,0,0,1-1-.4,1.61,1.61,0,0,1-.37-1.14V354h1.34Z"/><path class="cls-5" d="M278.54,354h1.33v1.34h-1.33Zm0,2.33h1.33v5.79h-1.33Z"/><path class="cls-5" d="M284.81,356.32h1.35L284,362.11h-1l-2.17-5.79h1.35l1.31,3.88Z"/><path class="cls-5" d="M288.66,362.2l-.58-.3a2.1,2.1,0,0,1-.88-.89,2.94,2.94,0,0,1-.31-1.41V359a3.41,3.41,0,0,1,.29-1.47,2,2,0,0,1,.86-.93,2.7,2.7,0,0,1,1.35-.32,2.17,2.17,0,0,1,1.27.38,2.22,2.22,0,0,1,.8,1.07,4.72,4.72,0,0,1,.28,1.7v.38H287.8v-1h2.7v-.06a1.64,1.64,0,0,0-.34-.94.93.93,0,0,0-.76-.34,1.18,1.18,0,0,0-.94.38,1.56,1.56,0,0,0-.33,1.07v.73a1.24,1.24,0,0,0,1.37,1.37,1.68,1.68,0,0,0,.65-.13,2.05,2.05,0,0,0,.57-.34l.88.81a3.22,3.22,0,0,1-1,.64,2.86,2.86,0,0,1-1.1.23Z"/><path class="cls-5" d="M293.19,356.32h1.39v5.79h-1.39Zm2.9,1.27a1.3,1.3,0,0,0-.46-.08,1,1,0,0,0-.78.3,1.2,1.2,0,0,0-.27.83l-.12-1.31a2.07,2.07,0,0,1,.66-.81,1.5,1.5,0,0,1,.89-.29,1.83,1.83,0,0,1,.68.12,1.38,1.38,0,0,1,.54.34l-.82,1.12A.74.74,0,0,0,296.09,357.59Z"/><path class="cls-5" d="M297.45,356.32h1.3l1.87,5-.8,1.24Zm5.25,0-2.53,7.15a1.89,1.89,0,0,1-.35.63,1.32,1.32,0,0,1-.53.33,2.62,2.62,0,0,1-.79.1h-.28v-1.29h.28a.78.78,0,0,0,.46-.12.76.76,0,0,0,.29-.39l2.14-6.41Z"/><path class="cls-5" d="M306.88,361.75a1.71,1.71,0,0,1-.5-1.35,1.63,1.63,0,0,1,.5-1.29,2.32,2.32,0,0,1,1.51-.42h1.55l.08,1H308.4a.91.91,0,0,0-.6.17.63.63,0,0,0-.2.51.6.6,0,0,0,.26.54,1.36,1.36,0,0,0,.78.18,2.44,2.44,0,0,0,.94-.14.45.45,0,0,0,.31-.44l.12.83a.94.94,0,0,1-.33.46,1.67,1.67,0,0,1-.57.27,2.5,2.5,0,0,1-.74.1A2.16,2.16,0,0,1,306.88,361.75Zm3-3.31a1,1,0,0,0-.28-.75,1.18,1.18,0,0,0-.82-.27,2.16,2.16,0,0,0-.66.1,2,2,0,0,0-.58.3l-.88-.75a2.26,2.26,0,0,1,.89-.62,3.45,3.45,0,0,1,1.23-.22,2.86,2.86,0,0,1,1.26.26,1.78,1.78,0,0,1,.8.73,2.3,2.3,0,0,1,.28,1.17v3.72h-1.24Z"/><path class="cls-5" d="M312.75,356.32h1.33v8.15h-1.33Zm1.82,5.62a1.64,1.64,0,0,1-.57-.74l.08-1.26a1.25,1.25,0,0,0,.12.56.82.82,0,0,0,.34.35,1.13,1.13,0,0,0,.54.12,1,1,0,0,0,.77-.31,1.32,1.32,0,0,0,.27-.89v-1.08a1.35,1.35,0,0,0-.27-.91.94.94,0,0,0-.77-.32,1.13,1.13,0,0,0-.54.12.82.82,0,0,0-.34.35,1.25,1.25,0,0,0-.12.56l-.12-1.2a2,2,0,0,1,.65-.78,1.6,1.6,0,0,1,.9-.28,1.88,1.88,0,0,1,1.05.29,1.74,1.74,0,0,1,.67.83,3.52,3.52,0,0,1,.23,1.33v1.09a3.41,3.41,0,0,1-.23,1.31,1.77,1.77,0,0,1-.68.83,1.94,1.94,0,0,1-1.07.29A1.62,1.62,0,0,1,314.57,361.94Z"/><path class="cls-5" d="M319,356.32h1.33v8.15H319Zm1.82,5.62a1.64,1.64,0,0,1-.57-.74l.08-1.26a1.25,1.25,0,0,0,.12.56.82.82,0,0,0,.34.35,1.13,1.13,0,0,0,.54.12,1,1,0,0,0,.77-.31,1.32,1.32,0,0,0,.27-.89v-1.08a1.35,1.35,0,0,0-.27-.91.94.94,0,0,0-.77-.32,1.13,1.13,0,0,0-.54.12.82.82,0,0,0-.34.35,1.25,1.25,0,0,0-.12.56l-.12-1.2a2,2,0,0,1,.65-.78,1.6,1.6,0,0,1,.9-.28,1.88,1.88,0,0,1,1,.29,1.8,1.8,0,0,1,.67.83,3.52,3.52,0,0,1,.23,1.33v1.09a3.41,3.41,0,0,1-.23,1.31,1.77,1.77,0,0,1-.68.83,1.94,1.94,0,0,1-1.07.29A1.62,1.62,0,0,1,320.79,361.94Z"/><path class="cls-5" d="M328.22,354h1.33v1.34h-1.33Zm0,2.33h1.33v5.79h-1.33Z"/><path class="cls-5" d="M331.13,356.32h1.33v5.79h-1.33Zm3.42,2.37a1.21,1.21,0,0,0-.28-.87,1,1,0,0,0-.78-.31,1,1,0,0,0-.76.27,1,1,0,0,0-.27.75l-.12-1.2a2,2,0,0,1,.67-.81,1.63,1.63,0,0,1,.94-.29,1.87,1.87,0,0,1,1,.29,1.78,1.78,0,0,1,.66.83,3.52,3.52,0,0,1,.23,1.33v3.43h-1.33Zm3.42,0a1.26,1.26,0,0,0-.28-.87,1,1,0,0,0-.8-.31,1,1,0,0,0-.75.3,1.21,1.21,0,0,0-.26.83l-.26-1.23a2.22,2.22,0,0,1,.72-.87,1.7,1.7,0,0,1,1-.31,1.92,1.92,0,0,1,1.07.29,1.82,1.82,0,0,1,.68.83,3.52,3.52,0,0,1,.23,1.33v3.43H338Z"/><path class="cls-5" d="M340.92,356.32h1.33v8.15h-1.33Zm1.83,5.62a1.52,1.52,0,0,1-.57-.74l.07-1.26a1.25,1.25,0,0,0,.12.56.82.82,0,0,0,.34.35,1.13,1.13,0,0,0,.54.12,1,1,0,0,0,.78-.31,1.32,1.32,0,0,0,.27-.89v-1.08a1.35,1.35,0,0,0-.27-.91,1,1,0,0,0-.78-.32,1.13,1.13,0,0,0-.54.12.82.82,0,0,0-.34.35,1.25,1.25,0,0,0-.12.56l-.11-1.2a1.94,1.94,0,0,1,.65-.78,1.59,1.59,0,0,1,.89-.28,1.93,1.93,0,0,1,1.06.29,1.78,1.78,0,0,1,.66.83,3.33,3.33,0,0,1,.23,1.33v1.09a3.23,3.23,0,0,1-.23,1.31,1.71,1.71,0,0,1-.68.83,1.93,1.93,0,0,1-1.06.29A1.6,1.6,0,0,1,342.75,361.94Z"/><path class="cls-5" d="M347.14,356.32h1.39v5.79h-1.39Zm2.9,1.27a1.25,1.25,0,0,0-.45-.08,1,1,0,0,0-.78.3,1.16,1.16,0,0,0-.28.83l-.12-1.31a2.07,2.07,0,0,1,.66-.81,1.53,1.53,0,0,1,.89-.29,1.92,1.92,0,0,1,.69.12,1.42,1.42,0,0,1,.53.34l-.81,1.12A.83.83,0,0,0,350,357.59Z"/><path class="cls-5" d="M352.87,361.9A1.94,1.94,0,0,1,352,361a3,3,0,0,1-.29-1.37v-.94a3,3,0,0,1,.29-1.35,1.92,1.92,0,0,1,.84-.85,2.68,2.68,0,0,1,1.32-.3,2.74,2.74,0,0,1,1.32.3,2,2,0,0,1,.83.85,2.83,2.83,0,0,1,.29,1.35v1a2.81,2.81,0,0,1-.29,1.35,2,2,0,0,1-.83.86,2.74,2.74,0,0,1-1.32.3A2.68,2.68,0,0,1,352.87,361.9Zm2.14-1.3a1.34,1.34,0,0,0,.29-.91v-1a1.3,1.3,0,0,0-.29-.9,1.08,1.08,0,0,0-.82-.32,1,1,0,0,0-.82.32,1.25,1.25,0,0,0-.29.9v1a1.34,1.34,0,0,0,.28.91,1.22,1.22,0,0,0,1.65,0Z"/><path class="cls-5" d="M361.27,356.32h1.36l-2.18,5.79h-1l-2.18-5.79h1.36l1.3,3.88Z"/><path class="cls-5" d="M363.59,354h1.33v1.34h-1.33Zm0,2.33h1.33v5.79h-1.33Z"/><path class="cls-5" d="M366.5,356.32h1.34v5.79H366.5Zm3.44,2.28a1.11,1.11,0,0,0-.28-.8,1.07,1.07,0,0,0-.79-.29,1,1,0,0,0-.76.27,1,1,0,0,0-.27.75l-.12-1.2a2.21,2.21,0,0,1,.66-.82,1.65,1.65,0,0,1,.94-.28,1.77,1.77,0,0,1,1.44.62,2.67,2.67,0,0,1,.51,1.75v3.51h-1.33Z"/><path class="cls-5" d="M373.63,361.92a1.74,1.74,0,0,1-.67-.83,3.24,3.24,0,0,1-.24-1.32v-1.1a3.43,3.43,0,0,1,.23-1.32,1.78,1.78,0,0,1,.67-.84,1.88,1.88,0,0,1,1.05-.29,1.52,1.52,0,0,1,.9.28,2,2,0,0,1,.65.77l-.12,1.23a1.26,1.26,0,0,0-.12-.57.84.84,0,0,0-.34-.36,1.13,1.13,0,0,0-.54-.12.94.94,0,0,0-.77.33,1.34,1.34,0,0,0-.27.9v1.09a1.32,1.32,0,0,0,.27.89,1,1,0,0,0,.77.32,1,1,0,0,0,.54-.13.74.74,0,0,0,.34-.36,1.19,1.19,0,0,0,.12-.56l.08,1.27a1.57,1.57,0,0,1-.56.73,1.48,1.48,0,0,1-.92.28A1.94,1.94,0,0,1,373.63,361.92Zm.59,2.55-.53-.24a2,2,0,0,1-.83-.69l.9-.82a1.36,1.36,0,0,0,.5.4,1.33,1.33,0,0,0,.61.14,1.25,1.25,0,0,0,.9-.31,1.12,1.12,0,0,0,.33-.87v-5.76h1.34v5.62a2.92,2.92,0,0,1-.3,1.37,2,2,0,0,1-.87.86,3,3,0,0,1-1.38.3Z"/><path class="cls-5" d="M382.13,356.32h1.39v5.79h-1.39Zm2.89,1.27a1.25,1.25,0,0,0-.45-.08,1,1,0,0,0-.78.3,1.2,1.2,0,0,0-.27.83l-.12-1.31a2.14,2.14,0,0,1,.65-.81,1.56,1.56,0,0,1,.9-.29,1.83,1.83,0,0,1,.68.12,1.38,1.38,0,0,1,.54.34l-.82,1.12A.83.83,0,0,0,385,357.59Z"/><path class="cls-5" d="M388.5,362.2l-.58-.3A2.12,2.12,0,0,1,387,361a3.06,3.06,0,0,1-.3-1.41V359a3.27,3.27,0,0,1,.29-1.47,2,2,0,0,1,.85-.93,2.75,2.75,0,0,1,1.35-.32,2.12,2.12,0,0,1,1.27.38,2.3,2.3,0,0,1,.81,1.07,4.74,4.74,0,0,1,.27,1.7v.38h-3.93v-1h2.69v-.06a1.64,1.64,0,0,0-.34-.94,1,1,0,0,0-.77-.34,1.18,1.18,0,0,0-.93.38,1.56,1.56,0,0,0-.33,1.07v.73a1.24,1.24,0,0,0,1.36,1.37,1.64,1.64,0,0,0,.65-.13,2,2,0,0,0,.58-.34l.87.81a3.06,3.06,0,0,1-1,.64,2.9,2.9,0,0,1-1.11.23Z"/><path class="cls-5" d="M394.64,362.2l-.47-.1a4.13,4.13,0,0,1-.88-.29,3.29,3.29,0,0,1-.74-.46l.81-1a3.57,3.57,0,0,0,.9.48,2.67,2.67,0,0,0,.9.16,2.2,2.2,0,0,0,.92-.16.53.53,0,0,0,.32-.48.44.44,0,0,0-.16-.36.93.93,0,0,0-.39-.17,5.87,5.87,0,0,0-.67-.08H395l-.15,0h-.09a5.18,5.18,0,0,1-1-.18,1.31,1.31,0,0,1-.66-.46,1.63,1.63,0,0,1-.26-1,1.9,1.9,0,0,1,.26-1,1.68,1.68,0,0,1,.78-.62,3.35,3.35,0,0,1,1.26-.21,4.14,4.14,0,0,1,.87.09,4.34,4.34,0,0,1,.82.25,4,4,0,0,1,.73.41l-.8,1a3.52,3.52,0,0,0-.82-.37,2.63,2.63,0,0,0-.81-.13,1.65,1.65,0,0,0-.79.15.48.48,0,0,0-.28.45.34.34,0,0,0,.15.29,1,1,0,0,0,.38.14c.15,0,.37,0,.65.07h.26a6.13,6.13,0,0,1,1.07.19,1.4,1.4,0,0,1,.72.49,1.62,1.62,0,0,1,.29,1.06,1.84,1.84,0,0,1-.28,1,1.65,1.65,0,0,1-.82.63,3.81,3.81,0,0,1-1.35.22Z"/><path class="cls-5" d="M400.56,362.2l-.58-.3a2.12,2.12,0,0,1-.89-.89,3.06,3.06,0,0,1-.3-1.41V359a3.27,3.27,0,0,1,.29-1.47,2.08,2.08,0,0,1,.85-.93,2.75,2.75,0,0,1,1.35-.32,2.12,2.12,0,0,1,1.27.38,2.3,2.3,0,0,1,.81,1.07,4.74,4.74,0,0,1,.27,1.7v.38H399.7v-1h2.69v-.06a1.64,1.64,0,0,0-.34-.94,1,1,0,0,0-.77-.34,1.18,1.18,0,0,0-.93.38,1.56,1.56,0,0,0-.33,1.07v.73a1.24,1.24,0,0,0,1.36,1.37,1.64,1.64,0,0,0,.65-.13,2,2,0,0,0,.58-.34l.87.81a3.06,3.06,0,0,1-1,.64,2.9,2.9,0,0,1-1.11.23Z"/><path class="cls-5" d="M405.3,361.75a1.7,1.7,0,0,1-.49-1.35,1.6,1.6,0,0,1,.5-1.29,2.31,2.31,0,0,1,1.51-.42h1.55l.08,1h-1.63a.9.9,0,0,0-.59.17.6.6,0,0,0-.2.51.58.58,0,0,0,.26.54,1.33,1.33,0,0,0,.77.18A2.5,2.5,0,0,0,408,361a.47.47,0,0,0,.31-.44l.12.83a1,1,0,0,1-.34.46,1.59,1.59,0,0,1-.57.27,2.43,2.43,0,0,1-.73.1A2.17,2.17,0,0,1,405.3,361.75Zm3-3.31a1,1,0,0,0-.29-.75,1.13,1.13,0,0,0-.81-.27,2.11,2.11,0,0,0-.66.1,1.88,1.88,0,0,0-.58.3l-.89-.75a2.41,2.41,0,0,1,.89-.62,3.45,3.45,0,0,1,1.23-.22,2.86,2.86,0,0,1,1.26.26,1.85,1.85,0,0,1,.81.73,2.41,2.41,0,0,1,.27,1.17v3.72h-1.23Z"/><path class="cls-5" d="M411.17,356.32h1.39v5.79h-1.39Zm2.9,1.27a1.25,1.25,0,0,0-.45-.08,1,1,0,0,0-.78.3,1.16,1.16,0,0,0-.28.83l-.12-1.31a2.07,2.07,0,0,1,.66-.81,1.53,1.53,0,0,1,.89-.29,1.92,1.92,0,0,1,.69.12,1.42,1.42,0,0,1,.53.34l-.81,1.12A.83.83,0,0,0,414.07,357.59Z"/><path class="cls-5" d="M417.53,362.2l-.58-.31a2,2,0,0,1-.88-.89,3,3,0,0,1-.3-1.41v-.78a3,3,0,0,1,.3-1.4,2.13,2.13,0,0,1,.88-.88,2.93,2.93,0,0,1,1.38-.3,3.6,3.6,0,0,1,.88.11,2.59,2.59,0,0,1,.74.32,2.15,2.15,0,0,1,.54.5l-.91.85a1.64,1.64,0,0,0-.53-.37,1.78,1.78,0,0,0-.64-.13,1.18,1.18,0,0,0-1.3,1.3v.78a1.33,1.33,0,0,0,.33,1,1.31,1.31,0,0,0,1,.35,1.57,1.57,0,0,0,.64-.14,1.41,1.41,0,0,0,.53-.4l.91.91a2,2,0,0,1-.55.49,2.46,2.46,0,0,1-.74.31,3.45,3.45,0,0,1-.87.11Z"/><path class="cls-5" d="M421.63,354H423v8.12h-1.34Zm3.44,4.61a1.11,1.11,0,0,0-.28-.8,1.07,1.07,0,0,0-.79-.29,1,1,0,0,0-.76.27,1,1,0,0,0-.27.74l-.12-1.2a2.26,2.26,0,0,1,.66-.81,1.65,1.65,0,0,1,.94-.28,1.77,1.77,0,0,1,1.44.62,2.67,2.67,0,0,1,.51,1.75v3.51h-1.33Z"/><path class="cls-6" d="M439.68,356.44l-.3.46a16.8,16.8,0,0,1-2.71-1.26V356h-2.75v-.37a20.82,20.82,0,0,1-2.7,1.29l-.3-.43a11.26,11.26,0,0,0,4.42-2.66l.53.22c0,.06-.12.13-.21.24A11.79,11.79,0,0,0,439.68,356.44Zm-1.5,3.33h-5.34V362c.57-.12,1.31-.33,2.23-.62l0,.53c-.88.28-1.81.53-2.78.77l-.19-.52a.51.51,0,0,0,.2-.4v-5.1h5.85Zm-.51-1.86v-.77h-4.83v.77Zm0,1.34v-.86h-4.83v.86Zm-1.17-3.72a11.81,11.81,0,0,1-1.21-.9,12.86,12.86,0,0,1-1.19.9Zm2.75,4.6a8.07,8.07,0,0,1-1.63,1.07,17.79,17.79,0,0,1,1.62,1l-.29.42a20,20,0,0,0-3.76-1.94l.24-.45c.59.24,1.14.48,1.66.73a6.76,6.76,0,0,0,1.74-1.13Z"/><path class="cls-6" d="M444.44,358.79c-.43.21-.81.39-1.13.52v3.32h-.51V359.5a17.31,17.31,0,0,1-1.71.61l-.13-.51a15.76,15.76,0,0,0,1.84-.63v-2.54h-.86a8.89,8.89,0,0,1-.48,1.75L441,358a10.77,10.77,0,0,0,.7-3.34l.47.08a9.72,9.72,0,0,1-.15,1.21h.78v-2.08h.51v2.08h1v.49h-1v2.33a12.09,12.09,0,0,0,1.13-.51Zm5-3.49c0,1.44-.05,2.84-.14,4.22a12.89,12.89,0,0,1-.26,2.41,1.16,1.16,0,0,1-.43.54,2,2,0,0,1-1,.19,6.68,6.68,0,0,1-.76,0l-.19-.51a6.33,6.33,0,0,0,.85.05,1.78,1.78,0,0,0,.85-.13.69.69,0,0,0,.29-.41,18.29,18.29,0,0,0,.19-2.14c.08-1.24.11-2.47.11-3.7h-.6a9.35,9.35,0,0,1-3.22,6.49l-.42-.33a8.43,8.43,0,0,0,3.15-6.16H447a8.59,8.59,0,0,1-2.38,4.54l-.41-.3a7.76,7.76,0,0,0,2.29-4.24h-.81a8.1,8.1,0,0,1-1.09,1.82l-.42-.29a7.91,7.91,0,0,0,1.62-3.46l.48.09a11.13,11.13,0,0,1-.4,1.36Z"/><path class="cls-6" d="M455.56,355.21a10.23,10.23,0,0,1-.95,4.3,6.76,6.76,0,0,1-3.13,3.1l-.35-.44a6.4,6.4,0,0,0,2.76-2.48,10,10,0,0,0-1.82-2.17,10.09,10.09,0,0,1-.7,1l-.41-.38a9.63,9.63,0,0,0,1.94-4.28l.52.13c0,.23-.15.63-.31,1.21Zm-.56.51h-2.06a9.68,9.68,0,0,1-.58,1.31,12.39,12.39,0,0,1,1.82,2.09A9.76,9.76,0,0,0,455,355.72Zm4.65,3.41-.26.51a15.06,15.06,0,0,0-2.35-2.16v5.18h-.54V353.9H457v2.89A19.16,19.16,0,0,1,459.65,359.13Z"/><path class="cls-6" d="M469.79,361.89l-.15.56-3.95,0a4.28,4.28,0,0,1-3.23-1.12,11.45,11.45,0,0,1-1.18,1.33l-.43-.38a6.45,6.45,0,0,0,2.09-3.21h-1.79v-.47c.66-.76,1.21-1.44,1.65-2.05h-1.87V356h2.56v.5c-.61.78-1.14,1.45-1.6,2h1.6v.5a13.17,13.17,0,0,1-.76,1.84,3.09,3.09,0,0,0,1.22.77,5.06,5.06,0,0,0,1.57.26h1.87C468.15,361.91,469,361.91,469.79,361.89Zm-6.64-6.58-.4.37a7.27,7.27,0,0,0-1.42-1.47l.39-.34A6.72,6.72,0,0,1,463.15,355.31Zm6.4,2.75h-2.71a4.1,4.1,0,0,1-2.63,3.19l-.38-.45a3.45,3.45,0,0,0,2.46-2.74h-2.44v-.52h2.51q0-.41,0-1.38h-2.21v-.52h5v.52h-2.27c0,.28,0,.74,0,1.38h2.66Zm-3.46-2.91-.44.23a8.08,8.08,0,0,0-.87-1.28l.45-.27A5.11,5.11,0,0,1,466.09,355.15Zm3.52,5.64-.35.45a12.53,12.53,0,0,0-2.4-1.89l.28-.41A13.14,13.14,0,0,1,469.61,360.79Zm-1-6.67a4.72,4.72,0,0,1-.95,1.27l-.43-.29a5.74,5.74,0,0,0,.93-1.2Z"/><path class="cls-6" d="M474.09,360.46a9,9,0,0,1-2.84,1.57l-.34-.45a8.56,8.56,0,0,0,2.76-1.46Zm5.29-.77-.45.3c-.16-.23-.35-.49-.59-.78l-2.69.27V362a.51.51,0,0,1-.15.37.7.7,0,0,1-.33.19,4.38,4.38,0,0,1-.67,0l-.5,0-.22-.53.58,0a3.72,3.72,0,0,0,.63,0c.07,0,.11-.09.11-.23v-2.3c-1.46.1-2.56.15-3.31.18l-.15-.44a27.35,27.35,0,0,0,3.6-1.61c-1.16.07-2.19.12-3.1.14l-.13-.36a10.83,10.83,0,0,0,3.63-2.08l.49.29a11.25,11.25,0,0,1-2.49,1.61l.94,0,.88-.05a4,4,0,0,0,.91-.13c.43-.27.84-.56,1.24-.87l.47.32a24,24,0,0,1-4.83,2.67,46.61,46.61,0,0,0,4.69-.38,8.66,8.66,0,0,0-.77-.72l.45-.31A11.55,11.55,0,0,1,479.38,359.69Zm-3.06-5.58a9.91,9.91,0,0,1-4.2,2l-.4-.46a8.91,8.91,0,0,0,4.15-1.83Zm3.3,7.5-.34.43a12,12,0,0,0-2.52-1.56l.35-.42A13.55,13.55,0,0,1,479.62,361.61Z"/><path class="cls-6" d="M482,360.24a10,10,0,0,1-.6,2.35l-.48-.17a9.09,9.09,0,0,0,.59-2.3Zm2.41-.62-.45.16a4.58,4.58,0,0,0-.17-.58,24.4,24.4,0,0,1-2.64.69l-.14-.46a15.44,15.44,0,0,0,2-2.47c-.52.11-1.11.21-1.76.29l-.14-.47a10.33,10.33,0,0,0,1.66-2.94l.46.17a9.94,9.94,0,0,1-1.46,2.68,12.51,12.51,0,0,0,1.58-.29,5.91,5.91,0,0,0,.4-.75l.46.2a15.85,15.85,0,0,1-2.29,3.37,12.2,12.2,0,0,0,1.75-.5,5.75,5.75,0,0,0-.25-.62l.45-.19A8.31,8.31,0,0,1,484.42,359.62Zm-1.18,2.55-.5.1a7.38,7.38,0,0,0-.33-2l.51-.08A12.79,12.79,0,0,1,483.24,362.17Zm1.15-.79-.47.15a10.31,10.31,0,0,0-.4-1.42L484,360A10.22,10.22,0,0,1,484.39,361.38Zm5.23-5.88h-3.07a12.25,12.25,0,0,1-1.33,2.25,26.28,26.28,0,0,0,3.13-.33,8.94,8.94,0,0,0-.75-.93l.44-.28a13.55,13.55,0,0,1,1.47,2.09l-.42.31a5.56,5.56,0,0,0-.46-.75l-.92.15v3.73c0,.15.07.22.23.22h.7a.3.3,0,0,0,.23-.09,1.3,1.3,0,0,0,.15-.61,10.27,10.27,0,0,0,.07-1.18l.51.18a6.38,6.38,0,0,1-.16,1.54.79.79,0,0,1-.37.54,1.85,1.85,0,0,1-.83.13,1.71,1.71,0,0,1-.82-.14.62.62,0,0,1-.22-.54v-3.72c-.55.07-.89.1-1,.1a5.27,5.27,0,0,1-1.86,4.45l-.34-.36a4.42,4.42,0,0,0,1.25-1.57,5.84,5.84,0,0,0,.44-2.47,8.77,8.77,0,0,1-1.09.06l-.12-.45A8.34,8.34,0,0,0,486,355.5h-1.7V355h1.93c.11-.25.27-.65.47-1.18l.48.15c-.17.46-.31.81-.42,1h2.85Z"/><path class="cls-6" d="M493,354c-.07.32-.17.71-.3,1.18l-.2.69v6.78H492v-5.48a10.12,10.12,0,0,1-.73,1.33l-.38-.42a12.57,12.57,0,0,0,1.65-4.25Zm6.52.6h-2.95a2.58,2.58,0,0,1-.23.53h2.24v2.46h.87v1.23h-.52V358H493.6v.78h-.48v-1.23H494v-2.46h1.81a2.93,2.93,0,0,0,.25-.53h-2.67v-.46h6.15Zm.11,7.72-.26.4a15.35,15.35,0,0,1-2.82-.74,9.1,9.1,0,0,1-3.16.69l-.24-.47a9,9,0,0,0,2.83-.46,10.5,10.5,0,0,1-1.31-.78,7.06,7.06,0,0,1-1.21.55l-.28-.41a5.9,5.9,0,0,0,1.11-.46,3.05,3.05,0,0,1-.27-.28l.34-.29a2.44,2.44,0,0,0,.36.36,3.52,3.52,0,0,0,.79-.66.57.57,0,0,1-.59-.62v-.75h.53v.76a.17.17,0,0,0,.1.18,3.49,3.49,0,0,0,.81.05,1.94,1.94,0,0,0,.93-.12c.09-.08.13-.25.13-.53l.45.21c-.05.44-.18.7-.41.78a5.34,5.34,0,0,1-1.36.09,3.36,3.36,0,0,1-.37.4h2.66v.41a5.31,5.31,0,0,1-1.25,1.09A14.2,14.2,0,0,0,499.61,362.32Zm-5-3.68a5.06,5.06,0,0,1-.93,1.39l-.4-.3a4.56,4.56,0,0,0,.92-1.28ZM498,356v-.42h-3.59V356Zm0,.82v-.44h-3.59v.44Zm0,.82v-.45h-3.59v.45Zm-.33,3h-2.55l-.08.08a5.59,5.59,0,0,0,1.46.79A4.64,4.64,0,0,0,497.71,360.63Zm-.78-1.92-.24.37a5.36,5.36,0,0,0-.87-.49l.26-.36A4,4,0,0,1,496.93,358.71Zm2.4,1.06-.42.25a6.54,6.54,0,0,0-.93-1.42l.39-.26A7.14,7.14,0,0,1,499.33,359.77Z"/><path class="cls-6" d="M503.82,354c-.13.36-.32.83-.59,1.41l-.4.85v6.4h-.53v-5.46a11.57,11.57,0,0,1-1,1.39l-.37-.42a14.12,14.12,0,0,0,2.4-4.32Zm5.85,6.31a6.78,6.78,0,0,1-.14,1.4c-.1.43-.3.68-.59.74a17.35,17.35,0,0,1-2.38.09h-.8a.69.69,0,0,1-.52-.21.78.78,0,0,1-.2-.56v-7.9h.56v3.39h3.88v.53H505.6v4a.33.33,0,0,0,.06.19.23.23,0,0,0,.17.08h.66a17.11,17.11,0,0,0,2.31-.08c.2-.05.32-.67.35-1.84Z"/><path class="cls-5" d="M235,375.33h1.33v8.12H235Zm.56,0h4.66v1.28h-4.66Zm0,3.52h4v1.27h-4Z"/><path class="cls-5" d="M241.5,383.09a1.74,1.74,0,0,1-.5-1.35,1.6,1.6,0,0,1,.5-1.29A2.27,2.27,0,0,1,243,380h1.55l.08,1H243a.92.92,0,0,0-.6.16.67.67,0,0,0-.2.52.62.62,0,0,0,.26.54,1.46,1.46,0,0,0,.78.17,2.26,2.26,0,0,0,.94-.14.45.45,0,0,0,.31-.43l.12.82a.9.9,0,0,1-.33.46,1.65,1.65,0,0,1-.58.28,2.75,2.75,0,0,1-.73.09A2.21,2.21,0,0,1,241.5,383.09Zm3-3.32a1,1,0,0,0-.29-.75,1.13,1.13,0,0,0-.81-.27,2.17,2.17,0,0,0-.66.11,2.25,2.25,0,0,0-.58.29l-.88-.75a2.14,2.14,0,0,1,.89-.61,3.24,3.24,0,0,1,1.23-.22,2.86,2.86,0,0,1,1.26.25,1.8,1.8,0,0,1,.8.74,2.34,2.34,0,0,1,.28,1.16v3.73h-1.24Z"/><path class="cls-5" d="M247.37,377.65h1.33v5.8h-1.33Zm3.42,2.37a1.21,1.21,0,0,0-.28-.87,1,1,0,0,0-.78-.3.92.92,0,0,0-1,1l-.12-1.2a2.18,2.18,0,0,1,.67-.81,1.57,1.57,0,0,1,.93-.28,1.87,1.87,0,0,1,1,.28,1.76,1.76,0,0,1,.66.84,3.43,3.43,0,0,1,.23,1.32v3.44h-1.33Zm3.42,0a1.26,1.26,0,0,0-.28-.87,1.06,1.06,0,0,0-.8-.3,1,1,0,0,0-.75.29,1.21,1.21,0,0,0-.26.83l-.26-1.23a2.22,2.22,0,0,1,.72-.87,1.69,1.69,0,0,1,1-.3,1.92,1.92,0,0,1,1.07.28,1.79,1.79,0,0,1,.68.84,3.43,3.43,0,0,1,.23,1.32v3.44h-1.33Z"/><path class="cls-5" d="M257.12,375.33h1.33v1.33h-1.33Zm0,2.32h1.33v5.8h-1.33Z"/><path class="cls-5" d="M261.64,383.53l-.47-.1a3.79,3.79,0,0,1-.88-.29,3.29,3.29,0,0,1-.74-.46l.81-1a4.32,4.32,0,0,0,.9.47,2.67,2.67,0,0,0,.9.16,2,2,0,0,0,.92-.16.52.52,0,0,0,.32-.48.41.41,0,0,0-.16-.36.87.87,0,0,0-.39-.16l-.67-.09H262l-.15,0h-.09a6.16,6.16,0,0,1-1-.19,1.24,1.24,0,0,1-.65-.46,1.55,1.55,0,0,1-.27-1,1.78,1.78,0,0,1,.27-1,1.53,1.53,0,0,1,.78-.62,3.32,3.32,0,0,1,1.26-.21,5,5,0,0,1,.87.08,4.47,4.47,0,0,1,.81.25,3.9,3.9,0,0,1,.74.42l-.8,1a3.62,3.62,0,0,0-.83-.38,2.84,2.84,0,0,0-.8-.13,1.7,1.7,0,0,0-.8.15.49.49,0,0,0-.28.45.32.32,0,0,0,.16.29,1,1,0,0,0,.37.14c.15,0,.37.05.66.07h.26a6.09,6.09,0,0,1,1.06.18,1.46,1.46,0,0,1,.72.49,1.63,1.63,0,0,1,.3,1.06,1.9,1.9,0,0,1-.28,1,1.76,1.76,0,0,1-.83.64,3.83,3.83,0,0,1-1.35.21Z"/><path class="cls-5" d="M265.51,377.65h2.73v1.17h-2.73Zm.94,5.44a1.7,1.7,0,0,1-.34-1.15v-6h1.33v5.79a.52.52,0,0,0,.09.33.26.26,0,0,0,.24.11h.47v1.28h-.72A1.38,1.38,0,0,1,266.45,383.09Z"/><path class="cls-5" d="M270.64,383.23a1.92,1.92,0,0,1-.83-.86,3,3,0,0,1-.29-1.36v-.95a3,3,0,0,1,.29-1.35,2,2,0,0,1,.83-.85,3.17,3.17,0,0,1,2.65,0,2,2,0,0,1,.83.85,3,3,0,0,1,.29,1.35v1a3,3,0,0,1-.29,1.36,2,2,0,0,1-.83.85,3.08,3.08,0,0,1-2.65,0Zm2.15-1.3a1.32,1.32,0,0,0,.29-.91v-1a1.33,1.33,0,0,0-.29-.9,1.25,1.25,0,0,0-1.65,0,1.33,1.33,0,0,0-.29.9v1a1.32,1.32,0,0,0,.29.91,1.06,1.06,0,0,0,.82.32A1.08,1.08,0,0,0,272.79,381.93Z"/><path class="cls-5" d="M275.92,377.65h1.39v5.8h-1.39Zm2.9,1.27a1.27,1.27,0,0,0-.46-.07,1,1,0,0,0-.78.29,1.2,1.2,0,0,0-.27.83l-.12-1.31a2.22,2.22,0,0,1,.66-.81,1.49,1.49,0,0,1,.89-.28,2.06,2.06,0,0,1,.68.11,1.5,1.5,0,0,1,.54.34l-.81,1.12A.83.83,0,0,0,278.82,378.92Z"/><path class="cls-5" d="M280.18,377.65h1.31l1.86,5-.8,1.23Zm5.25,0-2.53,7.15a1.71,1.71,0,0,1-.35.63,1.09,1.09,0,0,1-.53.33,2.62,2.62,0,0,1-.79.1H281v-1.29h.28a.93.93,0,0,0,.47-.11.84.84,0,0,0,.28-.4l2.15-6.41Z"/><path class="cls-5" d="M290.18,379.9v1.27h-3.86V379.9Z"/><path class="cls-6" d="M300.38,379l-.42.34a8.16,8.16,0,0,0-.84-1,44.73,44.73,0,0,1-7.23.79l-.14-.48a11,11,0,0,0,3.1-3.42l.53.19a12.16,12.16,0,0,1-2.7,3.13,34.65,34.65,0,0,0,6-.68,16.77,16.77,0,0,0-1.62-1.51l.46-.34A20.33,20.33,0,0,1,300.38,379Zm-.95,5h-.55v-.62H293.1v.6h-.54v-3.91h6.87Zm-.55-1.15v-2.25H293.1v2.25Z"/><path class="cls-6" d="M305,376.75h-3.32v-.5h1.44a4.12,4.12,0,0,0-.38-.94l.48-.2a7.35,7.35,0,0,1,.46,1.14H305Zm-.31,1.49h-2.75v-.51h2.75Zm0,1.43h-2.75v-.52h2.75Zm-.11,4.06H304v-.54h-1.55V384H302v-3.3h2.57Zm-.51-1.06v-1.53h-1.55v1.53Zm6.33-2.92h-5.28v-.49h1.47l.38-1.61h-1.4v-.49H307l.29-1.23h-2v-.49h4.81v.49h-2.27l-.29,1.23h1.92v2.1h.87Zm-.65,4.2h-.54v-.66h-3.05V384h-.53v-3.34h4.12Zm-.54-1.15v-1.67h-3.05v1.67Zm-.21-3.54v-1.61h-1.51l-.36,1.61Z"/><path class="cls-6" d="M315,376.75h-3.32v-.5h1.44a4.12,4.12,0,0,0-.38-.94l.48-.2a7.35,7.35,0,0,1,.46,1.14H315Zm-.31,1.49h-2.75v-.51h2.75Zm0,1.43h-2.75v-.52h2.75Zm-.11,4.06H314v-.54h-1.55V384H312v-3.3h2.57Zm-.51-1.06v-1.53h-1.55v1.53Zm6.33-2.92h-5.28v-.49h1.47l.38-1.61h-1.4v-.49H317l.29-1.23h-2v-.49h4.81v.49h-2.27l-.29,1.23h1.92v2.1h.87Zm-.65,4.2h-.54v-.66h-3.05V384h-.53v-3.34h4.12Zm-.54-1.15v-1.67h-3.05v1.67Zm-.21-3.54v-1.61h-1.51l-.36,1.61Z"/><path class="cls-6" d="M330.35,378.67h-8.7v-.5h2.72a6.13,6.13,0,0,0-.73-1.49h-1.51v-.52h3.69a5.41,5.41,0,0,0-.44-.84l.51-.18a9.66,9.66,0,0,1,.5,1h3.5v.52h-1.57a10.45,10.45,0,0,1-.66,1.49h2.69ZM329,383.93h-.5v-.65h-4.93v.65H323v-4.38H329Zm-.5-2.81v-1h-4.93v1Zm0,1.65v-1.15h-4.93v1.15Zm-.7-6.09h-3.51c.27.55.5,1.05.69,1.49H327A7.66,7.66,0,0,0,327.77,376.68Z"/><path class="cls-6" d="M340.23,376.41h-7.37v2.89a12.84,12.84,0,0,1-.8,4.71l-.43-.36a12,12,0,0,0,.73-4.34V376h3.74c-.13-.22-.27-.43-.4-.64l.51-.13a3.55,3.55,0,0,1,.45.77h3.57Zm-5.68,5.39a7,7,0,0,1-1.17,1.91l-.39-.33a6.07,6.07,0,0,0,1.09-1.79Zm.57-5a6.69,6.69,0,0,1-.62,1.34v3.13H334v-2.41a6.16,6.16,0,0,1-.62.71l-.33-.39a7.12,7.12,0,0,0,1.62-2.56Zm5,4.39h-4.44v-2.5l-.69.8-.29-.42a9.34,9.34,0,0,0,1.66-2.44l.44.17a5.27,5.27,0,0,1-.36.71H338a5.1,5.1,0,0,0-.38-.67l.49-.15a4.36,4.36,0,0,1,.43.82h1.6V378h-1.84v.57H340V379h-1.7v.63H340v.46h-1.7v.62h1.87Zm-1.3,1.51a2,2,0,0,1-.18.78.69.69,0,0,1-.44.34,6.82,6.82,0,0,1-1.47.09,5.56,5.56,0,0,1-1.05-.06.61.61,0,0,1-.36-.25,1,1,0,0,1-.13-.54v-1.44h.51v1.47c0,.15,0,.25.14.29a5.48,5.48,0,0,0,1,0,7,7,0,0,0,1.11,0,.39.39,0,0,0,.26-.21,1.58,1.58,0,0,0,.09-.66Zm-1.06-4.15V378H336.2v.57Zm0,1.1V379H336.2v.63Zm0,1.08v-.62H336.2v.62Zm-.11,1.78-.43.29a6,6,0,0,0-.87-1l.44-.3A7,7,0,0,1,337.67,382.48Zm2.71.89-.42.26a9.6,9.6,0,0,0-1.22-1.78l.44-.26A9.27,9.27,0,0,1,340.38,383.37Z"/><path class="cls-6" d="M349.89,383.24a.59.59,0,0,1-.29.56,3.26,3.26,0,0,1-1.31.16h-.44l-.17-.54.73,0a3,3,0,0,0,.83-.06.19.19,0,0,0,.11-.19v-2.41h-2.82v2.92H346v-2.92h-2.86a6.63,6.63,0,0,1-1,3.14l-.47-.32a6.26,6.26,0,0,0,1-3.61V375.4h7.24Zm-3.9-5.47V376h-2.8v1.82Zm0,2.49v-1.95h-2.8v1.95Zm3.36-2.49V376h-2.82v1.82Zm0,2.49v-1.95h-2.82v1.95Z"/><path class="cls-6" d="M353.33,385.16a6.71,6.71,0,0,1-1.63-4.6,7,7,0,0,1,1.63-4.68h.74a7.1,7.1,0,0,0-1.66,4.67,6.93,6.93,0,0,0,1.65,4.61Z"/><path class="cls-6" d="M358.44,380.78l-.38.38a7.15,7.15,0,0,0-1.19-1.53V384h-.52v-3.8a10,10,0,0,1-1.18,1.11l-.35-.39a9.25,9.25,0,0,0,2.73-3.34H355V377h3.1v.53a8.93,8.93,0,0,1-1,1.64A10.77,10.77,0,0,1,358.44,380.78Zm-1.26-4.23-.47.22a7.77,7.77,0,0,0-.83-1.4l.46-.23A5.21,5.21,0,0,1,357.18,376.55Zm6.39,7.18h-5.66v-.5h.93v-7.77h4v7.77h.76Zm-1.29-5.83V376h-2.91v1.93Zm0,2.58v-2.05h-2.91v2.05Zm0,2.75V381h-2.91v2.25Z"/><path class="cls-6" d="M367.81,379.5a11.28,11.28,0,0,1-1.11.45v3.34a.7.7,0,0,1-.15.49.49.49,0,0,1-.31.17h-1l-.15-.52a5.83,5.83,0,0,0,1,0,.16.16,0,0,0,.12-.17v-3.09a12.86,12.86,0,0,1-1.24.38l-.1-.5,1.34-.42V378.1a16.21,16.21,0,0,0,1-1.91H365v-.5h2.78v.5c-.2.45-.43.91-.67,1.38l-.37.68v1.16a7.9,7.9,0,0,0,1.11-.48Zm1.67,2.22a7.27,7.27,0,0,1-1.83,1.82l-.35-.39a7.1,7.1,0,0,0,1.75-1.75Zm4.07-1.14-.43.31a4,4,0,0,0-.42-.77c-.48.12-1.1.24-1.87.36v2.81a.86.86,0,0,1-.14.46c-.1.15-.38.22-.84.22l-.62,0-.21-.52h1.08a.18.18,0,0,0,.21-.2v-2.68c-1,.12-1.77.2-2.4.23l-.07-.46a18.83,18.83,0,0,0,2.85-1.71q-2.16.27-2.37.27l-.13-.48a7.45,7.45,0,0,0,3-2.51l.46.24a7.78,7.78,0,0,1-2.44,2.21c.63-.07,1.36-.17,2.19-.29a7.26,7.26,0,0,0,.95-1l.47.24a11.44,11.44,0,0,1-3.92,3c1.45-.19,2.63-.38,3.55-.57l-.62-.78.4-.27A7.37,7.37,0,0,1,373.55,380.58Zm-2.93-5.13a8.91,8.91,0,0,1-2.47,2l-.3-.4a8.3,8.3,0,0,0,2.33-1.87Zm2.94,7.71-.43.31a7.58,7.58,0,0,0-1.52-1.84l.41-.3A8,8,0,0,1,373.56,383.16Z"/><path class="cls-6" d="M383.54,383.5l-.25.52a11.77,11.77,0,0,1-4.09-1.84,11.7,11.7,0,0,1-4.05,1.84l-.31-.53a10.63,10.63,0,0,0,4-1.67,10.43,10.43,0,0,1-1.7-2.36l.49-.24a9.33,9.33,0,0,0,1.62,2.24,11.64,11.64,0,0,0,1.73-2.23l.49.25a13.75,13.75,0,0,1-1.8,2.33A10.74,10.74,0,0,0,383.54,383.5Zm-5.37-5.87a13.8,13.8,0,0,1-2.84,2.69l-.37-.42a13.27,13.27,0,0,0,2.8-2.59Zm5.3-.78H375v-.51h4.14a3.23,3.23,0,0,0-.49-1l.52-.2a5.88,5.88,0,0,1,.54,1.19h3.78Zm0,3.11-.41.38a15.62,15.62,0,0,0-2.75-2.66l.38-.37A15.56,15.56,0,0,1,383.43,380Z"/><path class="cls-6" d="M386.79,380.75a17.94,17.94,0,0,1-1.54,3.25l-.44-.36a15.55,15.55,0,0,0,1.49-3.17Zm0-1.52-.36.39a9.42,9.42,0,0,0-1.58-1.33l.33-.41A11.28,11.28,0,0,1,386.76,379.23Zm.18-2.68-.34.42a10.58,10.58,0,0,0-1.48-1.39l.34-.41A12.71,12.71,0,0,1,386.94,376.55Zm1.54,3.2a8.68,8.68,0,0,1-.3,2.65A3.27,3.27,0,0,1,386.9,384l-.41-.38a3.07,3.07,0,0,0,1-1.08,5.51,5.51,0,0,0,.42-2.75Zm5.1-.41-.44.35a6.46,6.46,0,0,0-.6-.81c-2,.22-3.67.39-5.11.49l-.14-.51a5.41,5.41,0,0,0,2-2.1h-2.09v-.53h2.38a8.77,8.77,0,0,0,.47-1.07l.54.15c-.06.16-.19.47-.41.92h3.21v.53H390a6.83,6.83,0,0,1-1.67,2c1.27-.08,2.56-.2,3.86-.35a6.59,6.59,0,0,0-.89-.86l.41-.35A11.76,11.76,0,0,1,393.58,379.34ZM390.16,384h-.52v-4.21h.52Zm3.38-.11h-1.32c-.51,0-.76-.24-.76-.71v-3.39H392v3.32c0,.17.1.26.3.26h1.27Z"/><path class="cls-6" d="M394.31,385.16a7,7,0,0,0,1.64-4.61,7.07,7.07,0,0,0-1.66-4.67H395a7,7,0,0,1,1.64,4.68,6.73,6.73,0,0,1-1.64,4.6Z"/><path class="cls-4" d="M39.62,361.76a3,3,0,0,1-1.29-1.34,4.65,4.65,0,0,1-.45-2.13v-6.75h1.74v6.8a2.27,2.27,0,0,0,.53,1.6,2.3,2.3,0,0,0,3,0,2.23,2.23,0,0,0,.54-1.6v-6.8h1.74v6.75a4.65,4.65,0,0,1-.45,2.13,3.11,3.11,0,0,1-1.3,1.34,4.78,4.78,0,0,1-4.09,0Z"/><path class="cls-4" d="M49.34,362.11H47.56V351.54h1.78Z"/><path class="cls-4" d="M52,364.12H50.36l4.81-13.83h1.65Z"/><path class="cls-4" d="M59.54,361.76a3.09,3.09,0,0,1-1.29-1.34,4.65,4.65,0,0,1-.44-2.13v-6.75h1.73v6.8a2.23,2.23,0,0,0,.54,1.6,2.29,2.29,0,0,0,3,0,2.23,2.23,0,0,0,.54-1.6v-6.8h1.74v6.75a4.65,4.65,0,0,1-.45,2.13,3.11,3.11,0,0,1-1.3,1.34,4.78,4.78,0,0,1-4.09,0Z"/><path class="cls-4" d="M70.07,355.84l2.51-4.3h1.89L71,357.39l-2.76,4.72H66.32Zm0,1.79-.21-.36-3.47-5.73h1.88l2.46,4.16.26.43,3.61,6H72.74Z"/><path class="cls-4" d="M79.79,354.57H81.6v7.54H79.79Zm3.77,1.65a1.78,1.78,0,0,0-.59-.1,1.3,1.3,0,0,0-1,.39,1.53,1.53,0,0,0-.36,1.08l-.16-1.71a2.74,2.74,0,0,1,.86-1.05,2,2,0,0,1,1.16-.37,2.52,2.52,0,0,1,.89.15,1.89,1.89,0,0,1,.7.44L84,356.51A1.17,1.17,0,0,0,83.56,356.22Z"/><path class="cls-4" d="M88.09,362.22l-.76-.39a2.66,2.66,0,0,1-1.15-1.15,3.88,3.88,0,0,1-.4-1.84V358a4.31,4.31,0,0,1,.38-1.91,2.66,2.66,0,0,1,1.11-1.21,3.58,3.58,0,0,1,1.76-.41,2.82,2.82,0,0,1,1.65.48,3,3,0,0,1,1,1.4,6.27,6.27,0,0,1,.36,2.21v.5H87v-1.28h3.51v-.08a2.07,2.07,0,0,0-.44-1.22,1.22,1.22,0,0,0-1-.44,1.53,1.53,0,0,0-1.22.49,2.08,2.08,0,0,0-.43,1.39v1a1.79,1.79,0,0,0,.47,1.32,1.76,1.76,0,0,0,1.31.46,2.28,2.28,0,0,0,.84-.16,2.41,2.41,0,0,0,.75-.46l1.14,1.07a4.39,4.39,0,0,1-1.29.83,3.89,3.89,0,0,1-1.44.29Z"/><path class="cls-4" d="M96.08,362.22l-.62-.13a4.91,4.91,0,0,1-1.14-.37,4.22,4.22,0,0,1-1-.6l1-1.31a4.91,4.91,0,0,0,1.17.62,3.53,3.53,0,0,0,1.17.21,2.61,2.61,0,0,0,1.21-.22.68.68,0,0,0,.41-.62.55.55,0,0,0-.21-.47,1.19,1.19,0,0,0-.51-.21,8.4,8.4,0,0,0-.87-.11l-.2,0-.19,0h-.12a6.82,6.82,0,0,1-1.3-.25,1.63,1.63,0,0,1-.85-.6,2,2,0,0,1-.35-1.27,2.35,2.35,0,0,1,.35-1.31,2.1,2.1,0,0,1,1-.81,4.4,4.4,0,0,1,1.64-.27,6.12,6.12,0,0,1,1.14.11,5.84,5.84,0,0,1,1,.33,5,5,0,0,1,1,.53l-1,1.27a4.45,4.45,0,0,0-1.07-.49,3.6,3.6,0,0,0-1-.17,2.2,2.2,0,0,0-1,.2.62.62,0,0,0-.36.58.43.43,0,0,0,.2.38,1.14,1.14,0,0,0,.49.18l.85.1h.34a9.17,9.17,0,0,1,1.39.24,1.81,1.81,0,0,1,.93.64,2.15,2.15,0,0,1,.39,1.39,2.37,2.37,0,0,1-.36,1.34,2.22,2.22,0,0,1-1.08.83,4.78,4.78,0,0,1-1.76.28Z"/><path class="cls-4" d="M103.79,362.22l-.76-.39a2.66,2.66,0,0,1-1.15-1.15,3.88,3.88,0,0,1-.4-1.84V358a4.31,4.31,0,0,1,.38-1.91,2.66,2.66,0,0,1,1.11-1.21,3.58,3.58,0,0,1,1.76-.41,2.82,2.82,0,0,1,1.65.48,3,3,0,0,1,1.05,1.4,6.05,6.05,0,0,1,.36,2.21v.5h-5.13v-1.28h3.51v-.08a2.07,2.07,0,0,0-.44-1.22,1.22,1.22,0,0,0-1-.44,1.53,1.53,0,0,0-1.22.49,2.08,2.08,0,0,0-.43,1.39v1a1.79,1.79,0,0,0,.47,1.32,1.76,1.76,0,0,0,1.31.46,2.28,2.28,0,0,0,.84-.16,2.58,2.58,0,0,0,.76-.46l1.13,1.07a4.39,4.39,0,0,1-1.29.83,3.89,3.89,0,0,1-1.44.29Z"/><path class="cls-4" d="M110,361.64a2.23,2.23,0,0,1-.65-1.75,2.07,2.07,0,0,1,.66-1.68,3,3,0,0,1,2-.56h2l.1,1.35h-2.11a1.15,1.15,0,0,0-.78.22.83.83,0,0,0-.26.67.8.8,0,0,0,.34.7,1.82,1.82,0,0,0,1,.23,3.19,3.19,0,0,0,1.23-.18.59.59,0,0,0,.4-.57l.16,1.08a1.33,1.33,0,0,1-.44.59,2,2,0,0,1-.74.36,3.58,3.58,0,0,1-1,.12A2.82,2.82,0,0,1,110,361.64Zm3.92-4.31a1.27,1.27,0,0,0-.37-1,1.5,1.5,0,0,0-1.06-.35,2.82,2.82,0,0,0-.86.14,2.65,2.65,0,0,0-.75.38l-1.16-1a3,3,0,0,1,1.17-.8,4.11,4.11,0,0,1,1.6-.29,3.78,3.78,0,0,1,1.64.33,2.36,2.36,0,0,1,1,1,3,3,0,0,1,.36,1.51v4.85h-1.61Z"/><path class="cls-4" d="M117.6,354.57h1.81v7.54H117.6Zm3.77,1.65a1.78,1.78,0,0,0-.59-.1,1.31,1.31,0,0,0-1,.39,1.53,1.53,0,0,0-.36,1.08l-.15-1.71a2.63,2.63,0,0,1,.85-1.05,2,2,0,0,1,1.16-.37,2.48,2.48,0,0,1,.89.15,1.89,1.89,0,0,1,.7.44l-1.06,1.46A1.17,1.17,0,0,0,121.37,356.22Z"/><path class="cls-4" d="M125.87,362.22l-.75-.39a2.66,2.66,0,0,1-1.14-1.16,4,4,0,0,1-.39-1.84v-1A3.87,3.87,0,0,1,124,356a2.59,2.59,0,0,1,1.14-1.15,3.86,3.86,0,0,1,1.8-.39,4.56,4.56,0,0,1,1.14.14,3.2,3.2,0,0,1,1,.41,2.64,2.64,0,0,1,.71.66l-1.18,1.1a2,2,0,0,0-.7-.48,2.12,2.12,0,0,0-.83-.17,1.7,1.7,0,0,0-1.25.44,1.68,1.68,0,0,0-.45,1.25v1a1.76,1.76,0,0,0,.44,1.28,1.7,1.7,0,0,0,1.26.45,2,2,0,0,0,.84-.18,2.1,2.1,0,0,0,.69-.52l1.18,1.18a2.63,2.63,0,0,1-.72.64,3.19,3.19,0,0,1-1,.4,4.12,4.12,0,0,1-1.13.14Z"/><path class="cls-4" d="M131.22,351.54H133v10.57h-1.74Zm4.47,6a1.45,1.45,0,0,0-.36-1.05,1.43,1.43,0,0,0-1-.37,1.33,1.33,0,0,0-1,.35,1.25,1.25,0,0,0-.35,1l-.16-1.56a2.77,2.77,0,0,1,.87-1.05,2.07,2.07,0,0,1,1.22-.36,2.29,2.29,0,0,1,1.87.8,3.45,3.45,0,0,1,.67,2.27v4.58h-1.74Z"/><path class="cls-4" d="M42.16,372.62c0,1.74-.79,2.62-2.36,2.62s-2.26-.84-2.26-2.53v-3.83h.69v3.78q0,1.95,1.65,1.95c1.06,0,1.59-.62,1.59-1.88v-3.85h.69Z"/><path class="cls-4" d="M44.42,375.13h-.68v-6.25h.68Z"/><path class="cls-4" d="M48.77,368.88l-3,7.29h-.62l3-7.29Z"/><path class="cls-4" d="M54.08,372.62c0,1.74-.79,2.62-2.37,2.62s-2.25-.84-2.25-2.53v-3.83h.69v3.78q0,1.95,1.65,1.95c1.06,0,1.59-.62,1.59-1.88v-3.85h.69Z"/><path class="cls-4" d="M59.92,375.13h-.84l-1.47-2.42a1.74,1.74,0,0,1-.14-.3h0l-.15.3-1.5,2.42h-.86L57,372l-1.93-3.11H56l1.3,2.22c.08.15.16.29.22.43h0a3.87,3.87,0,0,1,.25-.45l1.35-2.2h.79l-2,3.1Z"/><path class="cls-4" d="M63.39,369.13H62.32a10.73,10.73,0,0,1-.56,2h1.45v3.69h-.42v-.41h-1V375h-.41v-3a3.81,3.81,0,0,1-.5.66l-.3-.34a6.24,6.24,0,0,0,1.34-3.18h-1.2v-.42h2.7Zm-.6,4.87v-2.39h-1V374Zm5-2.27H66.73v3.81h-.44v-3.81H65a6.48,6.48,0,0,1-.34,2.39,4.79,4.79,0,0,1-.87,1.42l-.36-.29a3.93,3.93,0,0,0,.89-1.42,6.64,6.64,0,0,0,.24-2.1h-1v-.41h1v-2.38h-.83v-.42h3.93v.42h-.92v2.38h1.08Zm-1.52-.41v-2.38H65v2.38Z"/><path class="cls-4" d="M76.06,373.74A4.15,4.15,0,0,1,75.9,375a1,1,0,0,1-.29.33,2.1,2.1,0,0,1-.91.12,1.49,1.49,0,0,1-.84-.15.62.62,0,0,1-.18-.5v-2H71.94c-.15,1.28-1.09,2.2-2.82,2.75l-.3-.39c1.58-.4,2.47-1.19,2.67-2.36h-2v-.43h2.06c0-.27,0-.64.06-1.1H72c0,.42,0,.79-.06,1.1h2.13v2.44a.18.18,0,0,0,.09.17,2.12,2.12,0,0,0,.64,0,1.23,1.23,0,0,0,.53-.08.43.43,0,0,0,.18-.29,8.73,8.73,0,0,0,.08-1.12Zm-.27-3.1h-.43v-1.13H73.6v1.43a.21.21,0,0,0,.07.16.22.22,0,0,0,.15.06h1.75v.41H73.83c-.44,0-.65-.24-.65-.71v-1.35H71.94a2.56,2.56,0,0,1-.67,1.49,4.12,4.12,0,0,1-2.18.92l-.24-.4c1.67-.21,2.55-.88,2.65-2H69.56v1.11h-.42v-1.53h3.09a2.63,2.63,0,0,0-.4-.63l.45-.17c.19.29.35.55.48.8h3Z"/><line class="cls-7" x1="103.32" y1="464.68" x2="154.32" y2="464.68"/></g></g></svg>